<?xml version="1.0" ?><!DOCTYPE svg  PUBLIC '-//W3C//DTD SVG 1.1//EN'  'http://www.w3.org/Graphics/SVG/1.1/DTD/svg11.dtd'><svg height="25.493" viewBox="351.428 186.869 62.293 25.493" width="62.293" xmlns="http://www.w3.org/2000/svg" xmlns:xlink="http://www.w3.org/1999/xlink"><defs><path d="M179 232h-53c-15 -64 -15 -89 -15 -103c0 -74 30 -119 87 -119c38 0 133 15 197 100c9 9 10 10 13 10c4 0 10 -5 10 -11c0 -13 -86 -119 -222 -119c-91 0 -151 73 -151 178c0 178 151 273 256 273c66 0 104 -40 104 -84c0 -18 -7 -76 -83 -105c-48 -18 -116 -20 -143 -20 zM131 252h42c42 0 202 0 202 105c0 38 -30 64 -74 64c-32 0 -127 -15 -170 -169z" id="6517"/><path d="M391 376c-20 43 -75 45 -88 45c-63 0 -117 -54 -143 -101c-36 -68 -53 -165 -53 -200c0 -50 22 -110 91 -110c38 0 133 15 197 100c9 9 10 10 13 10c4 0 10 -5 10 -11c0 -13 -86 -119 -222 -119c-102 0 -156 79 -156 166c0 142 131 285 262 285c69 0 115 -37 115 -85 c0 -40 -27 -60 -51 -60c-19 0 -34 12 -34 32c0 16 11 31 17 36c14 12 23 12 42 12z" id="6317"/><path d="M282 204l-135 -122h178c16 0 92 0 98 8c12 19 20 69 23 89h31l-29 -179h-395c0 25 0 27 12 38l126 130c118 121 191 197 191 301c0 84 -48 163 -141 163c-49 0 -116 -25 -145 -98c12 0 62 0 62 -52c0 -38 -31 -53 -52 -53c-14 0 -53 7 -53 56c0 89 79 180 199 180 c125 0 225 -77 225 -196c0 -91 -59 -146 -121 -203c-16 -14 -58 -47 -74 -62z" id="3215"/><path d="M675 324h-589c-15 0 -32 0 -32 19c0 18 18 18 32 18h589c15 0 32 0 32 -19c0 -18 -18 -18 -32 -18zM675 138h-589c-15 0 -32 0 -32 19c0 18 18 18 32 18h589c15 0 32 0 32 -19c0 -18 -18 -18 -32 -18z" id="3d14"/><path d="M206 293l-33 -132l-22 -90c-5 -20 -14 -55 -16 -60c-8 -15 -22 -21 -34 -21c-15 0 -26 11 -26 25c0 5 11 52 18 78c5 18 16 63 20 82l28 108c7 31 17 70 17 92c0 30 -8 46 -31 46c-40 0 -59 -59 -74 -118c-6 -23 -7 -24 -15 -24c-7 0 -11 5 -11 9s14 65 32 101 c19 38 42 52 71 52c44 0 85 -31 88 -88c18 25 65 88 154 88c75 0 108 -43 111 -97c40 59 94 97 161 97c76 0 111 -45 111 -105c0 -58 -45 -176 -63 -224c-4 -11 -16 -43 -16 -69c0 -32 16 -33 26 -33c40 0 77 42 100 122c5 17 6 20 15 20c6 0 10 -4 10 -9 c0 -6 -35 -153 -128 -153c-48 0 -79 36 -79 81c0 18 5 31 14 55c22 60 61 169 61 225c0 40 -14 70 -54 70c-110 0 -162 -125 -164 -133l-60 -239c-9 -36 -14 -59 -44 -59c-15 0 -26 11 -26 25c0 4 6 30 10 45c2 11 21 85 29 115l25 103c12 47 12 67 12 73 c0 40 -14 70 -54 70c-39 0 -73 -16 -99 -40c-37 -32 -62 -82 -64 -88z" id="6d17"/></defs><g transform="scale(1.25)"><g transform="scale(0.01200,-0.01200)"><g transform="translate(0,-13730.833)"><use x="23800.178" xlink:href="#6517"/><use x="24530.952" xlink:href="#3d14"/><use x="25569.725" xlink:href="#6d17"/><use x="26425.725" xlink:href="#6317"/></g></g><g transform="scale(0.00800,-0.00800)"><g transform="translate(0,-19976.913)"><use x="40270.088" xlink:href="#3215"/></g></g></g></svg>