<?xml version="1.0" ?><!DOCTYPE svg  PUBLIC '-//W3C//DTD SVG 1.1//EN'  'http://www.w3.org/Graphics/SVG/1.1/DTD/svg11.dtd'><svg height="297mm" width="210mm" xmlns="http://www.w3.org/2000/svg" xmlns:xlink="http://www.w3.org/1999/xlink"><defs><path d="M387 137c0 -88 -87 -147 -181 -147c-58 0 -116 10 -171 30v124h26c0 -74 68 -128 145 -128c58 0 114 30 114 83c0 55 -67 72 -125 85c-74 17 -143 63 -143 134c0 77 73 132 154 132c50 0 99 -10 145 -30v-93h-26c0 58 -57 97 -119 97c-49 0 -95 -27 -95 -72 c0 -47 57 -59 106 -70c85 -20 170 -64 170 -145zM311 644l-164 -139h-46c52 44 93 99 120 161h90v-22z" id="c16-b1"/><path d="M571 456c-14 -64 -20 -129 -20 -194v-174c0 -184 -157 -328 -344 -328c-85 0 -172 33 -172 108c0 73 67 110 139 139c-31 13 -58 34 -75 64v191c0 47 -7 95 -20 140h-44v38c74 0 147 5 220 16c-13 -64 -20 -129 -20 -194v-169c0 -29 31 -46 63 -46c27 0 51 12 71 30 c19 16 34 35 46 57v128c0 47 -7 95 -20 140h-44v38c73 0 147 5 220 16zM415 71c-38 -50 -96 -79 -158 -79c-15 0 -30 1 -44 4c-52 -20 -87 -71 -87 -128c0 -41 38 -70 81 -70c48 0 96 11 140 32c81 40 68 148 68 241z" id="c18-79"/><path d="M705 350c0 -191 -147 -350 -335 -350h-335v26h60c9 46 14 93 14 140v368c0 47 -5 94 -14 140h-60v26h335c188 0 335 -159 335 -350zM583 350c0 165 -89 324 -239 324h-111c-9 -46 -14 -93 -14 -140v-368c0 -47 5 -94 14 -140h111c150 0 239 159 239 324z" id="c16-44"/><path d="M216 189v-131h105c14 0 40 0 40 -29s-26 -29 -40 -29h-246c-14 0 -40 0 -40 29s26 29 40 29h76v315h-76c-14 0 -40 0 -40 29s26 29 40 29h101c34 0 40 -10 40 -41v-39c46 56 103 86 170 86c50 0 92 -16 92 -59c0 -22 -16 -39 -39 -39c-7 0 -35 3 -38 39c-5 1 -11 1 -16 1 c-85 0 -169 -71 -169 -190z" id="c20-72"/><path d="M799 0h-198v26h40c9 46 14 93 14 140v189c0 38 -35 64 -74 64c-33 0 -61 -18 -84 -41c-14 -13 -26 -29 -35 -46v-166c0 -47 5 -94 14 -140h40v-26h-198v26h40c9 46 14 93 14 140v189c0 38 -35 64 -74 64c-33 0 -61 -18 -84 -41c-14 -13 -26 -29 -35 -46v-166 c0 -47 5 -94 14 -140h40v-26h-198v26h40c9 46 14 93 14 140v108c0 47 -5 94 -14 140h-40v26c53 0 106 3 158 10l-14 -73c33 46 85 73 142 73s113 -24 141 -73c33 46 85 73 142 73s113 -24 141 -73v-211c0 -47 5 -94 14 -140h40v-26z" id="c16-6d"/><path d="M437 482c0 -147 -131 -243 -243 -339l-82 -70l230 17c29 2 55 22 60 50h26l-26 -140h-349v52l118 114c107 104 177 194 177 342c0 59 -41 111 -98 111c-63 0 -99 -45 -98 -111c1 -25 6 -51 15 -74h-90c-4 14 -7 28 -7 42c0 96 83 169 180 169c99 0 187 -68 187 -163z" id="c16-32"/><path d="M518 220c0 -139 -82 -230 -219 -230c-43 0 -85 14 -120 39v-79c0 -47 5 -94 14 -140h40v-26h-198v26h40c9 46 14 93 14 140v324c0 47 -5 94 -14 140h-40v26c48 0 97 3 145 10c-4 -23 -7 -47 -9 -70c25 42 74 70 128 70c137 0 219 -91 219 -230zM418 220 c0 112 -29 204 -128 204c-61 0 -111 -48 -111 -108v-254c26 -29 63 -46 102 -46c101 0 137 90 137 204z" id="c16-70"/><path d="M160 26c0 -70 -28 -137 -77 -186l-18 18c34 40 56 90 61 142h-30l-26 26v38l26 26h38l26 -26v-38zM328 26c0 -70 -28 -137 -77 -186l-18 18c34 40 56 90 61 142h-30l-26 26v38l26 26h38l26 -26v-38z" id="c16-ff"/><path d="M557 220c0 -135 -121 -236 -261 -236s-261 101 -261 236s121 236 261 236s261 -101 261 -236zM405 220c0 107 -17 198 -109 198s-109 -91 -109 -198s17 -198 109 -198s109 91 109 198z" id="c18-6f"/><path d="M464 0h-429v57c33 0 63 18 78 48l144 291c2 2 3 4 4 6h-29c-71 0 -140 -37 -140 -102h-38v140h391v-57c-28 -4 -53 -22 -66 -48l-144 -291l-4 -6h55c72 0 140 37 140 102h38v-140z" id="c18-7a"/><path d="M648 0h-225v26h40c-7 48 -19 95 -35 140l-33 93h-196l-33 -93c-16 -45 -28 -92 -35 -140h40v-26h-136v26h40c25 45 46 92 64 140l139 394c16 45 28 92 36 140h55c8 -48 20 -95 36 -140l139 -394c18 -48 39 -95 64 -140h40v-26zM385 285l-88 250l-88 -250h176z" id="c16-41"/><path d="M645 525h-26c0 81 -61 149 -140 149h-70c-9 -46 -14 -93 -14 -140v-368c0 -47 5 -94 14 -140h60v-26h-258v26h60c9 46 14 93 14 140v368c0 47 -5 94 -14 140h-70c-79 0 -140 -68 -140 -149h-26v175h610v-175z" id="c16-54"/><path d="M647 0h-275v25h70c4 47 4 94 0 140l-9 93h-176l-51 -93c-26 -46 -48 -93 -66 -140h70v-25h-192v25h70c33 45 62 92 89 140l218 395c25 46 47 93 66 140h55c-4 -47 -4 -94 0 -140l36 -395c4 -48 13 -95 25 -140h70v-25zM431 283l-23 249l-137 -249h160z" id="c19-41"/><path d="M465 -95c0 -91 -110 -121 -215 -121c-106 0 -215 38 -215 131v56h119v-26h-30c-9 -16 -14 -35 -14 -54c0 -59 72 -81 140 -81c67 0 132 35 132 95c0 71 -53 95 -132 95c-141 0 -215 78 -215 220s59 230 193 230c23 0 44 -4 64 -10h173v-35c-42 7 -85 11 -127 14 c50 -32 84 -86 84 -148c0 -102 -89 -180 -194 -180c-41 0 -78 23 -97 60c0 -85 36 -125 119 -125c123 0 215 -14 215 -121zM322 271c0 84 -20 153 -94 153c-73 0 -93 -69 -93 -153s20 -154 93 -154c74 0 94 70 94 154z" id="c16-67"/><path d="M160 26c0 -70 -28 -137 -77 -186l-18 18c34 40 56 90 61 142h-30l-26 26v38l26 26h38l26 -26v-38z" id="c16-2c"/><path d="M193 450c-9 -58 -14 -117 -14 -176v-274c0 -122 -64 -240 -175 -240c-29 0 -45 32 -45 65h45c0 -20 10 -39 28 -39c42 0 57 50 57 97v391c0 47 -5 94 -14 140h-40v26c53 0 106 3 158 10zM179 544l-45 -26l-45 26v52l45 26l45 -26v-52z" id="c16-6a"/><path d="M536 247c-31 -134 -141 -257 -266 -257c-40 0 -63 24 -72 60l-35 -150c-11 -47 -17 -94 -20 -140h-116c18 46 33 93 44 140l88 384c11 47 18 94 21 140h-70v25c61 0 122 3 184 10l-17 -48c27 29 64 48 101 48c115 0 185 -96 158 -212zM433 247c21 91 18 187 -61 187 c-48 0 -94 -41 -106 -90l-37 -162c-18 -79 -31 -167 37 -167c95 0 142 121 167 232z" id="c19-70"/><path d="M161 570v-187c9 10 55 54 128 54c104 0 188 -98 188 -221c0 -127 -93 -222 -199 -222c-56 0 -93 29 -117 56c0 -29 0 -50 -32 -50c-33 0 -33 23 -33 41v512h-41c-14 0 -40 0 -40 29s26 29 40 29h66c34 0 40 -10 40 -41zM161 266v-79c0 -50 37 -135 112 -135 c71 0 139 68 139 164c0 90 -58 163 -130 163c-65 0 -121 -56 -121 -113z" id="c20-62"/><path d="M535 250h-348v-30c0 -93 38 -188 120 -188c72 0 141 28 193 78h19v-38c-65 -57 -148 -88 -234 -88c-136 0 -250 103 -250 236s114 236 250 236c130 0 250 -83 250 -206zM383 288c0 74 -31 130 -98 130c-70 0 -90 -56 -96 -130h194z" id="c18-65"/><path d="M206 40l-40 -40h-56l-40 40v56l40 40h56l40 -40v-56z" id="c18-2e"/><path d="M469 75c-42 -53 -105 -85 -166 -85c-152 0 -272 93 -239 235c28 124 140 234 259 234c95 0 182 -39 163 -122c-29 -125 -187 -137 -334 -137c-12 -103 52 -185 157 -185c62 0 126 39 160 98v-38zM403 337c15 67 -8 97 -76 97c-81 0 -149 -116 -171 -209 c118 0 223 11 247 112z" id="c19-65"/><path d="M400 0h-365v39c28 15 51 38 66 66l151 273c8 15 20 26 33 36h-71c-73 0 -140 -46 -140 -114h-26v140h339v-39c-23 -18 -42 -40 -56 -66l-151 -273c-8 -15 -19 -26 -31 -36h85c73 0 140 46 140 114h26v-140zM263 544l-45 -26l-45 26v52l45 26l45 -26v-52z" id="c16-bb"/><path d="M720 674h-60c-9 -46 -14 -93 -14 -140v-534h-55l-447 649c-6 -38 -9 -77 -9 -115v-368c0 -47 5 -94 14 -140h60v-26h-174v26h60c9 46 14 93 14 140v368c0 47 -5 94 -14 140h-60v26h222c24 -49 51 -95 82 -140l281 -408v382c0 47 -5 94 -14 140h-60v26h174v-26z" id="c16-4e"/><path d="M518 220c0 -139 -82 -230 -219 -230c-43 0 -85 14 -120 39v-79c0 -47 5 -94 14 -140h40v-26h-198v26h40c9 46 14 93 14 140v324c0 47 -5 94 -14 140h-40v26c48 0 97 3 145 10c-4 -23 -7 -47 -9 -70c25 42 74 70 128 70c137 0 219 -91 219 -230zM418 220 c0 112 -29 204 -128 204c-61 0 -111 -48 -111 -108v-254c26 -29 63 -46 102 -46c101 0 137 90 137 204z" id="c17-70"/><path d="M755 0h-307v38h44c-7 48 -20 95 -39 140l-38 93h-178l-39 -93c-18 -45 -31 -92 -38 -140h44v-38h-169v38h44c31 44 58 90 78 140l159 382c18 45 31 92 38 140h83c6 -48 19 -95 38 -140l158 -382c21 -50 47 -96 78 -140h44v-38zM399 309l-73 177l-73 -177h146z" id="c18-41"/><path d="M465 255h-329l-1 -35c0 -99 47 -197 136 -197c67 0 131 33 171 87h13v-26c-51 -60 -126 -94 -205 -94c-122 0 -215 106 -215 230s93 230 215 230c115 0 215 -83 215 -195zM365 281c0 83 -38 143 -115 143s-105 -61 -112 -143h227z" id="c17-65"/><path d="M518 0c-51 0 -103 -3 -153 -10l7 55c-27 -34 -70 -55 -118 -55c-137 0 -219 91 -219 230s82 230 219 230c43 0 85 -14 120 -39v123c0 47 -5 94 -14 140h-40v26c53 0 106 3 158 10c-9 -58 -14 -117 -14 -176v-368c0 -47 5 -94 14 -140h40v-26zM374 124v254 c-29 29 -69 46 -111 46c-99 0 -128 -92 -128 -204c0 -114 36 -204 137 -204c58 0 102 50 102 108z" id="c16-64"/><path d="M250 250c0 -187 -72 -366 -202 -500h-13v26c82 145 125 308 125 474s-43 329 -125 474v26h13c130 -134 202 -313 202 -500z" id="c16-29"/><path d="M435 60c-46 -45 -108 -70 -172 -70c-126 0 -228 103 -228 230s102 230 228 230c50 0 100 -10 146 -30v-93h-60c0 51 -36 97 -86 97c-99 0 -128 -92 -128 -204s29 -204 128 -204c75 0 146 44 146 114h26v-70zM368 644l-164 -139h-46c52 44 93 99 120 161h90v-22z" id="c16-a2"/><path d="M750 414h-20c-12 -46 -14 -93 -7 -140c21 -143 -53 -284 -181 -284c-25 0 -50 3 -73 10h-90v63c-34 -46 -88 -73 -145 -73c-58 0 -116 23 -145 73v211c0 47 -5 94 -14 140h-40v26c53 0 106 3 158 10c-9 -58 -14 -117 -14 -176v-189c0 -38 37 -64 77 -64c33 0 63 17 87 41 c14 13 26 28 36 45v167c0 47 -5 94 -14 140h-40v26c52 0 105 3 158 10c-10 -58 -14 -117 -14 -176v-211c0 -32 36 -47 73 -47c111 0 165 130 146 258c-8 49 -24 97 -49 140h-40v26h151v-26z" id="c16-77"/><path d="M524 225c-30 -129 -157 -235 -284 -235c-128 0 -206 106 -176 235c29 128 156 234 284 234s205 -106 176 -234zM421 225c27 114 21 209 -79 209s-149 -95 -176 -209c-26 -115 -21 -210 79 -210c101 0 150 95 176 210z" id="c19-6f"/><path d="M400 0h-365v39c28 15 51 38 66 66l151 273c8 15 20 26 33 36h-71c-73 0 -140 -46 -140 -114h-26v140h339v-39c-23 -18 -42 -40 -56 -66l-151 -273c-8 -15 -19 -26 -31 -36h85c73 0 140 46 140 114h26v-140z" id="c16-7a"/><path d="M491 220c0 -127 -102 -230 -228 -230s-228 103 -228 230s102 230 228 230s228 -103 228 -230zM391 220c0 112 -29 204 -128 204s-128 -92 -128 -204s29 -204 128 -204s128 92 128 204zM368 644l-164 -139h-46c52 44 93 99 120 161h90v-22z" id="c16-f3"/><path d="M650 194c0 -115 -113 -194 -236 -194h-379v38h70c13 45 20 93 20 140v344c0 47 -7 95 -20 140h-70v38h354c107 0 205 -67 205 -167c0 -72 -51 -126 -118 -152c96 -21 174 -91 174 -187zM442 525c0 75 -18 137 -84 137h-47c-13 -45 -20 -93 -20 -140v-134h67 c66 0 84 62 84 137zM480 194c0 89 -36 156 -117 156h-72v-172c0 -47 7 -95 20 -140h52c81 0 117 67 117 156z" id="c18-42"/><path d="M463 0h-68c-28 0 -55 13 -68 34c-28 -28 -66 -44 -106 -44c-100 0 -196 51 -196 140c0 90 96 140 196 140c34 0 68 -9 98 -26v90c0 50 -40 90 -90 90c-51 0 -89 -47 -89 -100h-90c0 81 89 126 179 126c93 0 180 -56 180 -142v-238c0 -26 26 -44 54 -44v-26zM319 63v155 c-30 17 -63 26 -97 26c-57 0 -97 -54 -97 -114s40 -114 97 -114c38 0 73 17 97 47z" id="c16-61"/><path d="M530 0c-53 0 -106 -3 -158 -10l14 73c-36 -46 -90 -73 -148 -73c-60 0 -120 22 -149 73v211c0 47 -5 94 -14 140h-40v26c53 0 106 3 158 10c-9 -58 -14 -117 -14 -176v-189c0 -39 38 -64 79 -64c35 0 67 17 93 41c13 13 25 27 35 43v169c0 47 -5 94 -14 140h-40v26 c53 0 106 3 158 10c-9 -58 -14 -117 -14 -176v-108c0 -47 5 -94 14 -140h40v-26z" id="c17-75"/><path d="M501 299c-15 -100 -39 -200 -79 -299c-50 -122 -143 -240 -257 -240c-112 0 -201 64 -167 160c31 86 134 119 230 123c-13 13 -23 29 -32 45c-28 56 -31 124 -41 189c-8 51 -21 100 -38 147h-56v25h146c22 -45 35 -96 37 -150c5 -124 -5 -274 116 -274h45 c17 41 31 83 41 125c21 97 14 193 -20 274h-56v25h146c-3 -50 -8 -99 -15 -150zM395 0h-63c-33 0 -62 11 -86 28l-1 -3c-75 0 -159 -35 -185 -105c-28 -75 28 -135 111 -135c101 0 178 107 224 215z" id="c19-79"/><path d="M302 567c0 -25 -20 -45 -45 -45s-45 20 -45 45s20 45 45 45s45 -20 45 -45zM130 431h132c34 0 40 -10 40 -41v-332h99c14 0 40 0 40 -29s-26 -29 -40 -29h-278c-14 0 -41 0 -41 29s27 29 41 29h114v315h-107c-14 0 -40 0 -40 29s26 29 40 29z" id="c20-69"/><path d="M255 13c-28 -15 -59 -23 -90 -23c-53 0 -90 26 -90 76v348h-40v26h40v59c27 0 45 25 45 54h45v-113h90v-26h-90v-302c0 -41 5 -86 41 -86c13 0 26 5 36 13h13v-26z" id="c16-74"/><path d="M400 0h-365v39c28 15 51 38 66 66l151 273c8 15 20 26 33 36h-71c-73 0 -140 -46 -140 -114h-26v140h339v-39c-23 -18 -42 -40 -56 -66l-151 -273c-8 -15 -19 -26 -31 -36h85c73 0 140 46 140 114h26v-140z" id="c17-7a"/><path d="M304 459c-21 -58 -39 -116 -52 -175l-66 -284c-26 -114 -73 -240 -171 -240c-36 0 -63 25 -55 60h45c-4 -18 0 -35 16 -35c21 0 43 11 58 29c27 32 24 71 22 107c-3 72 8 145 25 219l33 144c11 47 18 94 21 140h-70v25c64 0 129 3 194 10zM312 541l-52 -26l-40 26l12 52 l52 26l40 -26z" id="c19-6a"/><path d="M574 0h-136c-45 0 -71 47 -81 94c-3 16 -6 32 -6 48c-2 44 -9 94 -48 94h-68v-58c0 -47 7 -95 20 -140h44v-38h-264v38h44c13 45 20 93 20 140v344c0 47 -7 95 -20 140h-44v38c74 0 147 5 220 16c-13 -64 -20 -129 -20 -194v-248c42 0 74 33 102 64c17 19 34 39 34 64 h-44v38h196v-38h-22c-53 0 -84 -29 -119 -70c-18 -21 -36 -41 -57 -59c89 -5 155 -41 162 -126c3 -50 4 -109 49 -109h38v-38z" id="c18-6b"/><path d="M631 506c-24 -106 -128 -193 -233 -193h-119l-34 -148c-11 -47 -18 -94 -20 -140h70v-25h-277v25h70c18 46 33 93 44 140l85 370c11 47 18 94 21 140h-70v25h320c105 0 168 -88 143 -194zM529 506c23 102 -22 169 -123 169h-31c-19 -46 -34 -93 -45 -140l-45 -197h43 c101 0 177 66 201 168z" id="c19-50"/><path d="M420 402v-76c0 -20 0 -38 -33 -38c-12 0 -30 3 -32 23c-2 26 -6 71 -101 71c-94 0 -125 -32 -125 -59c0 -42 60 -52 148 -67c48 -7 172 -28 172 -132c0 -10 0 -130 -185 -130c-31 0 -83 3 -129 41c-15 -41 -24 -41 -36 -41c-28 0 -28 22 -28 38v103c0 20 0 39 33 39 c25 0 28 -11 33 -25c21 -72 63 -97 127 -97c93 0 127 35 127 72c0 55 -80 68 -119 75c-82 13 -111 18 -143 36c-34 19 -58 47 -58 88c0 34 22 117 185 117c20 0 66 0 106 -24c0 1 6 24 30 24c28 0 28 -22 28 -38z" id="c20-73"/><path d="M515 0h-198v26h40c9 46 14 93 14 140v189c0 38 -35 64 -74 64c-32 0 -61 -18 -83 -41c-14 -13 -26 -29 -35 -46v-166c0 -47 5 -94 14 -140h40v-26h-198v26h40c9 46 14 93 14 140v108c0 47 -5 94 -14 140h-40v26c53 0 106 3 158 10l-14 -73c32 46 85 73 141 73 c57 0 113 -24 141 -73v-211c0 -47 5 -94 14 -140h40v-26z" id="c16-6e"/><path d="M312 341c73 -26 126 -90 126 -169c0 -104 -91 -182 -197 -182c-98 0 -182 66 -196 156h70c0 -89 38 -130 126 -130c75 0 97 70 97 156c0 85 -22 156 -97 156h-99v26h99c67 0 95 57 95 132s-28 133 -95 133c-69 0 -97 -35 -97 -107h-76c14 78 88 133 173 133 c93 0 175 -68 175 -159c0 -66 -44 -120 -104 -145z" id="c16-33"/><path d="M352 88c-36 -59 -101 -98 -164 -98c-60 0 -88 17 -76 73l84 361h-69v25h75l23 101c24 0 50 8 73 25h25l-29 -126h89v-25h-95l-83 -361c-5 -20 6 -35 25 -35c50 0 92 48 122 97v-37z" id="c19-74"/><path d="M418 293v-235h41c14 0 40 0 40 -29s-26 -29 -40 -29h-147c-14 0 -40 0 -40 29s26 29 40 29h41v231c0 57 -12 90 -70 90c-54 0 -122 -43 -122 -140v-181h41c14 0 40 0 40 -29s-26 -29 -40 -29h-147c-14 0 -40 0 -40 29s26 29 40 29h41v315h-41c-14 0 -40 0 -40 29 s26 29 40 29h66c40 0 40 -14 40 -51c17 19 61 57 129 57c82 0 128 -46 128 -144z" id="c20-6e"/><path d="M520 0h-84c-39 0 -79 7 -101 27c-32 -28 -73 -43 -116 -43c-102 0 -200 56 -200 149c0 94 98 149 200 149c37 0 73 -13 101 -38v102c0 38 -26 72 -63 72c-40 0 -62 -43 -62 -88h-136c0 87 100 126 198 126c102 0 199 -55 199 -148v-238c0 -26 33 -32 64 -32v-38zM320 63 v143c-18 24 -45 38 -75 38c-49 0 -74 -55 -74 -111c0 -55 25 -111 74 -111c31 0 59 15 75 41z" id="c18-61"/><path d="M348 88c-36 -59 -101 -98 -164 -98c-60 0 -88 17 -76 73l51 221c11 47 18 94 21 140h-70v25c64 0 129 3 194 10c-21 -58 -39 -116 -52 -175l-51 -221c-5 -20 6 -35 25 -35c50 0 92 48 122 97v-37zM311 541l-52 -26l-40 26l12 52l52 26l40 -26z" id="c19-69"/><path d="M299 0h-264v38h44c13 45 20 93 20 140v344c0 47 -7 95 -20 140h-44v38c74 0 147 5 220 16c-13 -64 -20 -129 -20 -194v-344c0 -47 7 -95 20 -140h44v-38z" id="c18-6c"/><path d="M250 -250h-13c-130 134 -202 313 -202 500s72 366 202 500h13v-26c-82 -145 -125 -308 -125 -474s43 -329 125 -474v-26z" id="c16-28"/><path d="M440 212v-174c0 -19 0 -40 -32 -40c-33 0 -33 19 -33 45c-34 -37 -76 -55 -119 -55c-117 0 -219 133 -219 318c0 182 101 317 219 317c44 0 84 -18 117 -48l13 32c3 5 9 16 26 16c28 0 28 -22 28 -38v-145c0 -20 0 -38 -33 -38c-10 0 -29 0 -32 25 c-13 100 -66 138 -114 138c-79 0 -159 -106 -159 -260c0 -150 77 -259 158 -259c82 0 109 105 114 166h-41c-14 0 -41 0 -41 29s27 29 41 29h112c14 0 41 0 41 -29s-26 -29 -46 -29z" id="c20-47"/><path d="M663 674h-60c-9 -46 -14 -93 -14 -140v-368c0 -123 -104 -176 -240 -176s-240 53 -240 176v368c0 47 -5 94 -14 140h-60v26h258v-26h-60c-9 -46 -14 -93 -14 -140v-368c0 -94 62 -150 158 -150s186 60 186 150v368c0 47 -5 94 -14 140h-60v26h174v-26z" id="c16-55"/><path d="M293 216h-258v34h258v-34z" id="c16-2d"/><path d="M605 0c-74 0 -148 -5 -220 -16l20 79c-36 -50 -93 -79 -153 -79c-62 0 -122 26 -153 79v199c0 47 -7 95 -20 140h-44v38c74 0 147 5 220 16c-13 -64 -20 -129 -20 -194v-177c0 -28 27 -48 57 -48c26 0 49 14 68 31c18 17 34 38 45 60v134c0 47 -7 95 -20 140h-44v38 c73 0 147 5 220 16c-14 -64 -20 -129 -20 -194v-84c0 -47 6 -95 20 -140h44v-38z" id="c18-75"/><path d="M465 255h-329l-1 -35c0 -99 47 -197 136 -197c67 0 131 33 171 87h13v-26c-26 -30 -57 -53 -92 -69c-23 -11 -45 -20 -65 -36c-16 -13 -28 -29 -28 -51c0 -34 29 -62 63 -62c16 0 31 3 45 10v-26c-26 -7 -53 -10 -81 -10c-50 0 -99 24 -99 69c0 39 30 63 67 81h-15 c-122 0 -215 106 -215 230s93 230 215 230c115 0 215 -83 215 -195zM365 281c0 83 -38 143 -115 143s-105 -61 -112 -143h227z" id="c16-a6"/><path d="M499 0h-90c-47 0 -82 41 -92 90c-3 14 -4 30 -7 44c-9 48 -40 90 -86 90h-45v-58c0 -47 5 -94 14 -140h40v-26h-198v26h40c9 46 14 93 14 140v368c0 47 -5 94 -14 140h-40v26c53 0 106 3 158 10c-9 -58 -14 -117 -14 -176v-284c49 0 82 42 111 82c18 25 36 51 36 82h-40 v26h178v-26h-20c-54 0 -85 -29 -117 -73c-24 -33 -48 -69 -78 -92c73 -4 129 -28 149 -98c16 -55 20 -125 75 -125h26v-26z" id="c16-6b"/><path d="M450 318c0 -163 -66 -328 -210 -328s-210 165 -210 328c0 162 66 327 210 327s210 -165 210 -327zM350 318c0 138 0 301 -110 301s-110 -163 -110 -301c0 -139 0 -302 110 -302s110 163 110 302z" id="c16-30"/><path d="M355 122c-17 -73 -88 -132 -161 -132c-62 0 -123 10 -177 30l28 124h26c-18 -77 46 -129 129 -129c39 0 77 33 86 72c13 55 -45 78 -94 99c-62 27 -113 76 -96 147c15 68 79 126 145 126c47 0 90 -10 128 -30l-21 -93h-26c13 56 -28 98 -87 98c-36 0 -71 -33 -79 -70 c-12 -52 43 -72 89 -92c67 -28 127 -75 110 -150z" id="c19-73"/><path d="M456 109c0 -16 -35 -115 -169 -115c-120 0 -213 100 -213 222c0 84 55 224 226 224c44 0 145 0 145 -69c0 -27 -19 -42 -41 -42c-6 0 -37 1 -40 42c0 5 -1 6 -8 8c-9 1 -30 3 -57 3c-131 0 -160 -115 -160 -166c0 -93 72 -164 157 -164c24 0 73 6 95 61c5 14 9 22 32 22 c8 0 33 0 33 -26z" id="c20-63"/><path d="M572 88c-36 -59 -101 -98 -164 -98c-57 0 -86 16 -77 65c-28 -39 -63 -65 -106 -65c-119 0 -194 94 -166 212c28 123 158 257 274 257c37 0 66 -17 81 -43l27 119c11 47 18 94 21 140h-70v25c64 0 129 3 194 10c-21 -58 -39 -116 -52 -175l-109 -472c-5 -20 6 -35 25 -35 c50 0 92 48 122 97v-37zM359 182l38 162c11 48 -14 90 -61 90c-81 0 -157 -155 -175 -232c-29 -125 -15 -187 68 -187c70 0 112 86 130 167z" id="c19-64"/><path d="M301 440c0 -56 -45 -95 -88 -133v-141c0 -47 5 -94 14 -140h40v-26h-198v26h40c9 46 14 93 14 140v61c-23 -23 -43 -48 -43 -80h-45c0 50 47 77 88 108v279c0 47 -5 94 -14 140h-40v26c53 0 106 3 158 10c-9 -58 -14 -117 -14 -176v-200c32 32 43 55 43 106h45z" id="c17-aa"/><path d="M1040 674h-60c-24 -45 -43 -92 -58 -140l-116 -368c-17 -54 -30 -110 -39 -166h-83c-8 56 -21 112 -38 166l-109 344l-108 -344c-17 -54 -30 -110 -38 -166h-83c-9 56 -22 112 -39 166l-116 368c-15 48 -35 95 -58 140h-60v26h263v-26h-60c6 -48 16 -94 30 -140l125 -395 l125 395l5 20c-14 41 -31 81 -51 120h-60v26h263v-26h-60c6 -48 16 -94 30 -140l125 -395l124 395c15 46 25 92 31 140h-60v26h175v-26z" id="c17-57"/><path d="M620 -12h-73c-65 0 -115 55 -121 121l-10 120c-6 78 -87 121 -171 121h-26v-184c0 -47 5 -94 14 -140h60v-26h-258v26h60c9 46 14 93 14 140v368c0 47 -5 94 -14 140h-60v26h291c109 0 207 -72 207 -175c0 -82 -62 -144 -142 -166c74 -20 130 -61 136 -133l9 -108 c4 -50 14 -104 58 -104h26v-26zM433 525c0 96 -71 149 -172 149h-28c-9 -46 -14 -93 -14 -140v-158h42c101 0 172 53 172 149z" id="c16-52"/><path d="M518 0c-51 0 -103 -3 -153 -10l7 55c-27 -34 -70 -55 -118 -55c-137 0 -219 91 -219 230s82 230 219 230c43 0 85 -14 120 -39v123c0 47 -5 94 -14 140h-40v26c53 0 106 3 158 10c-9 -58 -14 -117 -14 -176v-368c0 -47 5 -94 14 -140h40v-26zM374 124v254 c-29 29 -69 46 -111 46c-99 0 -128 -92 -128 -204c0 -114 36 -204 137 -204c58 0 102 50 102 108z" id="c17-64"/><path d="M359 0h-238v26h60c9 46 14 93 14 140v303c0 47 -5 94 -14 140h-60v26c59 0 119 3 178 10c-9 -58 -14 -117 -14 -176v-303c0 -47 5 -94 14 -140h60v-26z" id="c16-31"/><path d="M875 0h-346v38h70c13 45 20 93 20 140v344c0 21 -1 42 -4 62l-171 -444c-17 -45 -29 -92 -34 -140h-38c-5 48 -16 95 -33 140l-172 449c-3 -22 -4 -45 -4 -67v-344c0 -47 7 -95 20 -140h70v-38h-218v38h70c13 45 20 93 20 140v344c0 47 -7 95 -20 140h-70v38h288 c5 -48 16 -95 33 -140l104 -273l105 273c17 45 29 92 34 140h276v-38h-70c-13 -45 -20 -93 -20 -140v-344c0 -47 7 -95 20 -140h70v-38z" id="c18-4d"/><path d="M465 255h-329l-1 -35c0 -99 47 -197 136 -197c67 0 131 33 171 87h13v-26c-51 -60 -126 -94 -205 -94c-122 0 -215 106 -215 230s93 230 215 230c115 0 215 -83 215 -195zM365 281c0 83 -38 143 -115 143s-105 -61 -112 -143h227z" id="c16-65"/><path d="M233 0h-198v26h40c9 46 14 93 14 140v108c0 47 -5 94 -14 140h-40v26c53 0 106 3 158 10c-9 -58 -14 -117 -14 -176v-108c0 -47 5 -94 14 -140h40v-26zM179 544l-45 -26l-45 26v52l45 26l45 -26v-52z" id="c17-69"/><path d="M418 390v-332h41c14 0 40 0 40 -29s-26 -29 -40 -29h-66c-17 0 -41 0 -41 36c-20 -17 -58 -42 -119 -42c-77 0 -137 28 -137 120v259h-41c-14 0 -40 0 -40 29s26 29 40 29h66c34 0 40 -10 40 -41v-271c0 -31 0 -67 79 -67c45 0 113 22 113 104v217h-41 c-14 0 -40 0 -40 29s26 29 40 29h66c34 0 40 -10 40 -41z" id="c20-75"/><path d="M530 0h-198v26h40c9 46 14 93 14 140v189c0 39 -38 64 -79 64c-35 0 -67 -17 -93 -41c-13 -13 -25 -27 -35 -43v-169c0 -47 5 -94 14 -140h40v-26h-198v26h40c9 46 14 93 14 140v368c0 47 -5 94 -14 140h-40v26c53 0 106 3 158 10c-9 -58 -14 -117 -14 -176v-157 c36 46 90 73 149 73s119 -22 148 -73v-211c0 -47 5 -94 14 -140h40v-26z" id="c16-68"/><path d="M634 88c-36 -59 -101 -98 -164 -98c-60 0 -88 17 -76 73l69 296c10 44 -34 69 -84 49c-19 -8 -37 -22 -52 -38c-43 -42 -76 -92 -88 -145l-20 -85c-11 -47 -18 -94 -21 -140h-116c19 46 33 93 44 140l33 144c11 47 18 94 21 140h-70v25c64 0 129 3 194 10 c-14 -40 -27 -80 -38 -120c51 70 128 120 209 120c56 0 93 -44 80 -100l-68 -296c-5 -20 6 -35 25 -35c50 0 92 48 122 97v-37z" id="c19-6e"/><path d="M535 -89c0 -103 -130 -127 -250 -127c-122 0 -250 37 -250 143v42h167v-38h-33c-13 -11 -20 -26 -20 -43c0 -56 71 -66 136 -66c62 0 123 32 123 89c0 67 -50 89 -123 89c-157 0 -250 70 -250 220c0 151 76 236 225 236c32 0 63 -6 92 -16h183v-51c-41 8 -81 14 -122 18 c44 -33 72 -80 72 -136c0 -111 -108 -186 -225 -186c-44 0 -83 28 -98 70c0 -82 40 -117 123 -117c141 0 250 -6 250 -127zM333 271c0 78 -6 147 -73 147s-73 -69 -73 -147c0 -79 6 -148 73 -148s73 69 73 148z" id="c18-67"/><path d="M465 330h-114c0 31 5 69 -23 69c-74 0 -93 -92 -93 -177v-44c0 -47 7 -95 20 -140h66v-38h-286v38h44c13 45 20 93 20 140v84c0 47 -7 95 -20 140h-44v38c74 0 147 5 220 16l-20 -79c15 40 72 79 115 79c61 0 115 -45 115 -104v-22z" id="c18-72"/><path d="M187 577l149 -420c18 -51 27 -77 30 -88h1v484h-22c-14 0 -41 0 -41 29s27 29 41 29h100c15 0 40 0 40 -29s-26 -29 -40 -29h-22v-512c0 -38 -12 -41 -42 -41c-22 0 -42 0 -54 34l-149 420c-18 51 -27 77 -30 88h-1v-484h22c14 0 41 0 41 -29s-27 -29 -41 -29h-100 c-15 0 -40 0 -40 29s26 29 40 29h22v495h-22c-14 0 -40 0 -40 29s25 29 40 29h65c21 0 41 0 53 -34z" id="c20-4e"/><path d="M525 0h-490v26h60c9 46 14 93 14 140v368c0 47 -5 94 -14 140h-60v26h258v-26h-60c-9 -46 -14 -93 -14 -140v-368c0 -47 5 -94 14 -140h126c79 0 140 68 140 149h26v-175z" id="c16-4c"/><path d="M799 662h-70c-14 -45 -20 -93 -20 -140v-522h-83l-451 630c-8 -35 -12 -72 -12 -108v-344c0 -47 7 -95 20 -140h70v-38h-218v38h70c13 45 20 93 20 140v344c0 47 -7 95 -20 140h-70v38h314c22 -49 49 -96 80 -140l242 -338v300c0 47 -7 95 -20 140h-70v38h218v-38z" id="c18-4e"/><path d="M528 220c0 -140 -86 -230 -225 -230c-49 0 -94 21 -122 56l7 -56c-50 7 -102 10 -153 10v26h40c9 46 14 93 14 140v368c0 47 -5 94 -14 140h-40v26c53 0 106 3 158 10c-9 -58 -14 -117 -14 -176v-123c36 25 80 39 124 39c139 0 225 -90 225 -230zM428 220 c0 115 -40 204 -143 204c-40 0 -79 -17 -106 -47v-253c0 -61 53 -108 115 -108c100 0 134 91 134 204z" id="c16-62"/><path d="M255 13c-28 -15 -59 -23 -90 -23c-53 0 -90 26 -90 76v348h-40v26h40v59c27 0 45 25 45 54h45v-113h90v-26h-90v-302c0 -41 5 -86 41 -86c13 0 26 5 36 13h13v-26z" id="c17-74"/><path d="M557 220c0 -135 -121 -236 -261 -236s-261 101 -261 236s121 236 261 236s261 -101 261 -236zM405 220c0 107 -17 198 -109 198s-109 -91 -109 -198s17 -198 109 -198s109 91 109 198zM386 662l-117 -127h-62c40 44 63 101 63 161h116v-34z" id="c18-f3"/><path d="M490 450c-9 -58 -14 -117 -14 -176v-186c0 -175 -125 -328 -294 -328c-75 0 -147 40 -147 108c0 69 63 110 131 139c-32 11 -60 31 -77 61v206c0 47 -5 94 -14 140h-40v26c53 0 106 3 158 10c-9 -58 -14 -117 -14 -176v-184c0 -39 38 -64 79 -64c35 0 67 17 93 41 c13 13 25 27 35 43v164c0 47 -5 94 -14 140h-40v26c53 0 106 3 158 10zM386 68c-36 -46 -90 -73 -148 -73c-15 0 -30 1 -45 4c-58 -17 -98 -70 -98 -131c0 -46 40 -82 87 -82c44 0 87 12 125 34c80 47 79 153 79 248z" id="c17-79"/><path d="M899 88c-36 -59 -101 -98 -164 -98c-60 0 -88 17 -76 73l69 296c9 42 -31 67 -77 49c-19 -7 -36 -22 -51 -38c-41 -42 -74 -93 -86 -145l-20 -85c-11 -47 -18 -94 -20 -140h-117c19 46 34 93 45 140l50 219c10 42 -31 67 -77 49c-19 -7 -35 -22 -50 -38 c-42 -42 -74 -93 -86 -145l-20 -85c-11 -47 -18 -94 -21 -140h-116c19 46 33 93 44 140l33 144c11 47 18 94 21 140h-70v25c64 0 129 3 194 10c-14 -39 -27 -78 -38 -118c50 69 124 118 202 118c55 0 89 -45 77 -100l-5 -20c49 70 124 120 203 120c55 0 90 -45 77 -100 l-68 -296c-5 -20 6 -35 25 -35c50 0 92 48 122 97v-37z" id="c19-6d"/><path d="M416 192h-293c11 -77 77 -140 160 -140c19 0 84 5 109 63c6 15 12 22 31 22c31 0 33 -22 33 -28c0 -26 -47 -115 -176 -115c-123 0 -224 98 -224 224c0 122 93 222 209 222c125 0 191 -94 191 -211c0 -37 -19 -37 -40 -37zM124 247h266c-4 50 -25 135 -125 135 c-63 0 -128 -50 -141 -135z" id="c20-65"/><path d="M530 0c-53 0 -106 -3 -158 -10l14 73c-36 -46 -90 -73 -148 -73c-60 0 -120 22 -149 73v211c0 47 -5 94 -14 140h-40v26c53 0 106 3 158 10c-9 -58 -14 -117 -14 -176v-189c0 -39 38 -64 79 -64c35 0 67 17 93 41c13 13 25 27 35 43v169c0 47 -5 94 -14 140h-40v26 c53 0 106 3 158 10c-9 -58 -14 -117 -14 -176v-108c0 -47 5 -94 14 -140h40v-26z" id="c16-75"/><path d="M161 248v-190h27c14 0 41 0 41 -29s-27 -29 -41 -29h-119c-14 0 -41 0 -41 29s27 29 41 29h27v495h-27c-14 0 -41 0 -41 29s27 29 41 29h216c114 0 186 -89 186 -182c0 -89 -70 -181 -186 -181h-124zM161 553v-247h106c94 0 139 67 139 124c0 53 -43 123 -139 123h-106z " id="c20-50"/><path d="M851 402h-22c-20 -44 -26 -92 -19 -140c20 -140 -57 -278 -185 -278c-23 0 -45 5 -66 16h-136v63c-39 -50 -99 -79 -162 -79c-65 0 -130 23 -162 79v199c0 47 -7 95 -20 140h-44v38c74 0 147 5 220 16c-13 -64 -20 -129 -20 -194v-177c0 -30 34 -45 67 -45 c28 0 54 12 76 29c18 15 34 34 45 55v138c0 47 -7 95 -20 140h-44v38c74 0 147 5 220 16c-13 -64 -20 -129 -20 -194v-199c0 -29 34 -41 66 -41c103 0 151 121 133 240c-7 51 -28 99 -60 140h-44v38h197v-38z" id="c18-77"/><path d="M506 525h-26c0 81 -61 149 -140 149h-107c-9 -46 -14 -93 -14 -140v-158h164c28 0 52 23 52 52v21h26v-172h-26v21c0 29 -24 52 -52 52h-164v-184c0 -47 5 -94 14 -140h60v-26h-258v26h60c9 46 14 93 14 140v368c0 47 -5 94 -14 140h-60v26h471v-175z" id="c16-46"/><path d="M293 0h-258v26h60c9 46 14 93 14 140v368c0 47 -5 94 -14 140h-60v26h258v-26h-60c-9 -46 -14 -93 -14 -140v-368c0 -47 5 -94 14 -140h60v-26z" id="c16-49"/><path d="M589 209c0 -138 -138 -227 -286 -227c-92 0 -183 18 -268 53v140h38c0 -103 115 -155 230 -155c85 0 168 44 168 121c0 88 -105 115 -195 142c-114 34 -221 108 -221 221c0 125 117 214 248 214c74 0 146 -18 211 -53v-140h-38c0 89 -81 155 -173 155 c-68 0 -130 -44 -130 -108c0 -70 84 -91 157 -113c131 -40 259 -120 259 -250z" id="c18-53"/><path d="M491 220c0 -127 -102 -230 -228 -230s-228 103 -228 230s102 230 228 230s228 -103 228 -230zM391 220c0 112 -29 204 -128 204s-128 -92 -128 -204s29 -204 128 -204s128 92 128 204z" id="c16-6f"/><path d="M766 225c-52 -125 -161 -235 -281 -235c-51 0 -77 47 -65 100l6 26c-54 -74 -138 -126 -224 -126c-59 0 -101 43 -87 100l44 194c11 47 18 94 21 140h-70v25c64 0 129 3 194 10c-21 -58 -39 -116 -52 -175l-45 -194c-11 -47 40 -73 95 -49c21 8 39 22 56 38 c45 40 80 91 92 146l15 59c11 47 17 94 20 140h-70v25c64 0 129 3 195 10c-22 -58 -39 -116 -53 -175l-45 -194c-8 -36 20 -61 55 -49c24 8 47 22 68 38c38 32 69 73 89 116c38 80 40 163 7 229h-48v25h120c7 -72 -6 -150 -37 -224z" id="c19-77"/><path d="M379 330h-75c0 37 8 81 -25 81c-71 0 -100 -84 -100 -165v-80c0 -47 5 -94 14 -140h60v-26h-218v26h40c9 46 14 93 14 140v108c0 47 -5 94 -14 140h-40v26c53 0 106 3 158 10l-14 -73c12 36 62 73 100 73c55 0 100 -44 100 -98v-22z" id="c16-72"/><path d="M524 225c-30 -129 -157 -235 -284 -235c-128 0 -206 106 -176 235c29 128 156 234 284 234s205 -106 176 -234zM421 225c27 114 21 209 -79 209s-149 -95 -176 -209c-26 -115 -21 -210 79 -210c101 0 150 95 176 210zM499 641l-196 -138h-52c62 43 116 98 157 161h90z " id="c19-f3"/><path d="M439 553v-350c0 -121 -83 -215 -182 -215s-182 94 -182 215v350h-27c-14 0 -41 0 -41 29s27 29 41 29h119c14 0 41 0 41 -29s-27 -29 -41 -29h-27v-344c0 -108 64 -163 117 -163c52 0 117 54 117 163v344h-27c-14 0 -41 0 -41 29s27 29 41 29h119c14 0 41 0 41 -29 s-27 -29 -41 -29h-27z" id="c20-55"/><path d="M621 35c-70 -31 -147 -47 -223 -47c-204 0 -373 160 -373 362s169 362 373 362c76 0 153 -16 223 -47v-140h-26c0 96 -94 161 -197 161c-157 0 -251 -164 -251 -336s94 -336 251 -336c103 0 197 65 197 161h26v-140z" id="c16-43"/><path d="M160 26l-26 -26h-38l-26 26v38l26 26h38l26 -26v-38z" id="c16-2e"/><path d="M387 440c0 -62 -54 -101 -108 -137v-125c0 -47 7 -95 20 -140h44v-38h-264v38h44c13 45 20 93 20 140v37c-28 -18 -51 -37 -51 -68h-57c0 56 56 78 108 103v272c0 47 -7 95 -20 140h-44v38c73 0 147 5 220 16c-14 -64 -20 -129 -20 -194v-183c35 26 51 50 51 101h57z" id="c18-aa"/><path d="M233 0h-198v26h40c9 46 14 93 14 140v368c0 47 -5 94 -14 140h-40v26c53 0 106 3 158 10c-9 -58 -14 -117 -14 -176v-368c0 -47 5 -94 14 -140h40v-26z" id="c16-6c"/><path d="M379 330h-75c0 37 8 81 -25 81c-71 0 -100 -84 -100 -165v-80c0 -47 5 -94 14 -140h60v-26h-218v26h40c9 46 14 93 14 140v108c0 47 -5 94 -14 140h-40v26c53 0 106 3 158 10l-14 -73c12 36 62 73 100 73c55 0 100 -44 100 -98v-22z" id="c17-72"/><path d="M442 337h-83c6 29 15 62 -10 62c-34 0 -92 -91 -101 -130l-29 -129c-11 -47 -18 -94 -21 -140h-116c19 46 33 93 44 140l33 144c11 47 18 94 21 140h-70v25c61 0 122 3 184 10c-14 -38 -27 -77 -37 -115c35 66 86 115 151 115c50 0 47 -64 34 -122z" id="c19-72"/><path d="M290 570v-512h122c14 0 40 0 40 -29s-26 -29 -40 -29h-309c-14 0 -40 0 -40 29s26 29 40 29h122v495h-122c-14 0 -40 0 -40 29s26 29 40 29h147c34 0 40 -10 40 -41z" id="c20-6c"/><path d="M509 60c-60 -49 -135 -76 -213 -76c-140 0 -261 101 -261 236s121 236 261 236c60 0 120 -12 175 -36v-93h-91c0 49 -36 91 -84 91c-92 0 -109 -91 -109 -198s17 -198 109 -198c86 0 175 32 175 108h38v-70z" id="c18-63"/><path d="M301 440c0 -56 -45 -95 -88 -133v-141c0 -47 5 -94 14 -140h40v-26h-198v26h40c9 46 14 93 14 140v61c-23 -23 -43 -48 -43 -80h-45c0 50 47 77 88 108v279c0 47 -5 94 -14 140h-40v26c53 0 106 3 158 10c-9 -58 -14 -117 -14 -176v-200c32 32 43 55 43 106h45z" id="c16-aa"/><path d="M422 -95c-19 -86 -129 -121 -227 -121c-103 0 -199 40 -178 131l3 13h121v-25h-40c-13 -14 -19 -31 -17 -47c6 -46 65 -47 117 -47c67 0 141 35 155 96c14 60 -44 95 -111 95c-103 0 -168 39 -177 135c-5 50 9 104 21 157c22 94 119 167 214 167c21 0 40 -4 57 -10h121 v-33c-27 5 -55 9 -83 11c37 -30 54 -79 41 -135c-22 -94 -118 -167 -213 -167c-66 0 -115 42 -102 104c-33 -143 -9 -204 127 -204c98 0 191 -35 171 -120zM354 292c18 78 12 142 -57 142s-104 -64 -122 -142s-12 -142 56 -142c69 0 104 64 123 142z" id="c19-67"/><path d="M592 0h-264v38h44c13 45 20 93 20 140v177c0 28 -23 50 -50 50c-24 0 -45 -15 -63 -32c-18 -19 -33 -41 -44 -65v-130c0 -47 7 -95 20 -140h44v-38h-264v38h44c13 45 20 93 20 140v84c0 47 -7 95 -20 140h-44v38c74 0 147 5 220 16l-20 -79c32 49 87 79 146 79 c60 0 117 -28 147 -79v-199c0 -47 6 -95 20 -140h44v-38z" id="c18-6e"/><path d="M648 0h-225v26h40c-7 48 -19 95 -35 140l-33 93h-196l-33 -93c-16 -45 -28 -92 -35 -140h40v-26h-136v26h40c25 45 46 92 64 140l139 394c16 45 28 92 36 140h55c8 -48 20 -95 36 -140l139 -394c18 -48 39 -95 64 -140h40v-26zM385 285l-88 250l-88 -250h176z" id="c17-41"/><path d="M455 381c0 -128 -41 -256 -141 -334c-45 -35 -99 -57 -156 -57c-35 0 -70 7 -103 20l10 24c29 -12 61 -18 93 -18c127 0 190 143 190 286c-20 -42 -62 -68 -108 -68c-113 0 -205 92 -205 205c0 114 92 206 205 206c39 0 78 -12 110 -34c73 -51 105 -140 105 -230z M345 439c0 98 -20 180 -105 180s-105 -82 -105 -180c0 -97 20 -179 105 -179s105 82 105 179z" id="c16-39"/><path d="M508 662h-70c-13 -45 -20 -93 -20 -140v-397c0 -102 -87 -143 -200 -143s-201 41 -201 143h166v-52c0 -27 11 -53 35 -53c23 0 34 26 34 53v449c0 47 -7 95 -20 140h-70v38h346v-38z" id="c18-4a"/><path d="M349 613h-75c0 35 -16 71 -47 71c-35 0 -58 -34 -58 -71c0 -29 3 -58 5 -87c2 -28 5 -57 5 -86h81v-26h-81v-248c0 -47 5 -94 14 -140h67v-26h-225v26h40c9 46 14 93 14 140v248h-54v26h54v26c0 119 35 244 138 244c63 0 122 -39 122 -97z" id="c16-66"/><path d="M233 0h-198v26h40c9 46 14 93 14 140v108c0 47 -5 94 -14 140h-40v26c53 0 106 3 158 10c-9 -58 -14 -117 -14 -176v-108c0 -47 5 -94 14 -140h40v-26zM179 544l-45 -26l-45 26v52l45 26l45 -26v-52z" id="c16-69"/><path d="M414 284v-218c14 -6 34 -8 60 -8c14 0 40 0 40 -29s-24 -29 -48 -29c-38 0 -88 2 -108 35c-52 -36 -114 -41 -146 -41c-93 0 -156 60 -156 131c0 68 64 104 114 121c62 20 120 24 179 26c0 29 0 57 -36 85c-33 25 -67 25 -90 25c-12 0 -25 0 -37 -1c-21 -2 -22 -3 -22 -8 c-1 -42 -34 -44 -40 -44c-22 0 -41 15 -41 42c0 69 97 69 139 69c135 0 192 -80 192 -156zM349 132v86c-121 0 -228 -34 -228 -93c0 -41 43 -73 102 -73c3 0 50 0 85 17c41 19 41 40 41 63z" id="c20-61"/><path d="M775 216h-775v34h775v-34z" id="c16-7c"/><path d="M442 147c0 -100 -102 -163 -211 -163c-67 0 -134 12 -196 36v124h38c0 -75 76 -122 158 -122c54 0 111 19 111 67c0 54 -69 59 -126 70c-82 16 -155 71 -155 151c0 85 80 146 170 146c54 0 108 -12 157 -36v-93h-38c0 56 -58 91 -119 91c-42 0 -83 -20 -83 -58 c0 -41 53 -44 97 -52c98 -19 197 -68 197 -161z" id="c18-73"/><path d="M528 506c0 -109 -90 -195 -198 -195h-111v-145c0 -47 5 -94 14 -140h60v-26h-258v26h60c9 46 14 93 14 140v368c0 47 -5 94 -14 140h-60v26h295c108 0 198 -86 198 -194zM428 506c0 104 -68 168 -172 168h-23c-9 -46 -14 -93 -14 -140v-197h37c104 0 172 64 172 169z" id="c16-50"/><path d="M435 60c-46 -45 -108 -70 -172 -70c-126 0 -228 103 -228 230s102 230 228 230c50 0 100 -10 146 -30v-93h-60c0 51 -36 97 -86 97c-99 0 -128 -92 -128 -204s29 -204 128 -204c75 0 146 44 146 114h26v-70z" id="c16-63"/><path d="M499 0h-90c-47 0 -82 41 -92 90c-3 14 -4 30 -7 44c-9 48 -40 90 -86 90h-45v-58c0 -47 5 -94 14 -140h40v-26h-198v26h40c9 46 14 93 14 140v368c0 47 -5 94 -14 140h-40v26c53 0 106 3 158 10c-9 -58 -14 -117 -14 -176v-284c49 0 82 42 111 82c18 25 36 51 36 82h-40 v26h178v-26h-20c-54 0 -85 -29 -117 -73c-24 -33 -48 -69 -78 -92c73 -4 129 -28 149 -98c16 -55 20 -125 75 -125h26v-26z" id="c17-6b"/><path d="M473 -150c-27 -7 -54 -10 -81 -10c-50 0 -99 24 -99 69c0 48 45 74 93 93c-21 4 -39 15 -49 32c-28 -28 -66 -44 -106 -44c-100 0 -196 51 -196 140c0 90 96 140 196 140c34 0 68 -9 98 -26v90c0 50 -40 90 -90 90c-51 0 -89 -47 -89 -100h-90c0 81 89 126 179 126 c93 0 180 -56 180 -142v-238c0 -26 26 -44 54 -44v-26h-26c-20 0 -39 -8 -54 -21c-17 -13 -28 -29 -28 -51c0 -34 28 -62 63 -62c15 0 31 3 45 10v-26zM329 63v155c-30 17 -63 26 -97 26c-57 0 -97 -54 -97 -114s40 -114 97 -114c38 0 73 17 97 47z" id="c16-a1"/><path d="M348 88c-36 -59 -101 -98 -164 -98c-60 0 -88 17 -76 73l109 472c11 47 18 94 21 140h-70v25c64 0 129 3 194 10c-21 -58 -39 -116 -52 -175l-109 -472c-5 -20 6 -35 25 -35c50 0 92 48 122 97v-37z" id="c19-6c"/><path d="M299 0h-264v38h44c13 45 20 93 20 140v84c0 47 -7 95 -20 140h-44v38c74 0 147 5 220 16c-13 -64 -20 -129 -20 -194v-84c0 -47 7 -95 20 -140h44v-38zM235 558l-40 -40h-56l-40 40v56l40 40h56l40 -40v-56z" id="c18-69"/><path d="M490 450c-9 -58 -14 -117 -14 -176v-186c0 -175 -125 -328 -294 -328c-75 0 -147 40 -147 108c0 69 63 110 131 139c-32 11 -60 31 -77 61v206c0 47 -5 94 -14 140h-40v26c53 0 106 3 158 10c-9 -58 -14 -117 -14 -176v-184c0 -39 38 -64 79 -64c35 0 67 17 93 41 c13 13 25 27 35 43v164c0 47 -5 94 -14 140h-40v26c53 0 106 3 158 10zM386 68c-36 -46 -90 -73 -148 -73c-15 0 -30 1 -45 4c-58 -17 -98 -70 -98 -131c0 -46 40 -82 87 -82c44 0 87 12 125 34c80 47 79 153 79 248z" id="c16-79"/><path d="M348 88c-36 -59 -101 -98 -164 -98c-60 0 -88 17 -76 73l54 233c-24 -13 -44 -35 -50 -61h-46c11 45 53 75 103 89l48 211c11 47 18 94 21 140h-70v25c64 0 129 3 194 10c-21 -58 -39 -116 -52 -175l-46 -198c48 13 86 67 99 122h46c-16 -70 -79 -125 -150 -143l-58 -253 c-5 -20 6 -35 25 -35c50 0 92 48 122 97v-37z" id="c19-aa"/><path d="M572 88c-36 -59 -101 -98 -164 -98c-57 0 -86 16 -77 65c-28 -39 -63 -65 -106 -65c-119 0 -194 94 -166 212c28 123 158 257 274 257c46 0 80 -27 90 -66c2 18 4 37 5 56h98c-19 -46 -34 -93 -44 -140l-57 -246c-5 -20 6 -35 25 -35c50 0 92 48 122 97v-37zM359 182 l38 162c11 48 -14 90 -61 90c-81 0 -157 -155 -175 -232c-29 -125 -15 -187 68 -187c70 0 112 86 130 167z" id="c19-61"/><path d="M328 10c-35 -17 -74 -26 -113 -26c-75 0 -136 22 -136 88v330h-44v38h44v41c40 0 68 39 68 82h68v-123h113v-38h-113v-290c0 -37 18 -74 51 -74c15 0 30 4 43 10h19v-38z" id="c18-74"/><path d="M493 0h-198v26h40c9 46 14 93 14 140v108c0 47 -5 94 -14 140h-156v-248c0 -47 5 -94 14 -140h67v-26h-225v26h40c9 46 14 93 14 140v248h-54v26h54v26c0 48 6 96 19 137c22 70 96 107 171 107c72 0 137 -46 160 -114v-52l-45 -26l-45 26v26c0 56 -21 114 -70 114 c-55 0 -110 -23 -110 -71c0 -29 3 -58 5 -87c2 -28 5 -57 5 -86h116c53 0 106 3 158 10c-9 -58 -14 -117 -14 -176v-108c0 -47 5 -94 14 -140h40v-26z" id="c16-0c"/><path d="M173 553v-495h241v65c0 18 0 40 33 40c32 0 32 -23 32 -40v-82c0 -32 -7 -41 -40 -41h-364c-14 0 -41 0 -41 29s27 29 41 29h33v495h-33c-14 0 -41 0 -41 29s27 29 41 29h150c14 0 40 0 40 -29s-26 -29 -40 -29h-52z" id="c20-4c"/><path d="M436 674h-60c-9 -46 -14 -93 -14 -140v-409c0 -91 -71 -137 -169 -137s-170 46 -170 137h110v-55c0 -32 27 -56 60 -56c32 0 59 24 59 56v464c0 47 -4 94 -14 140h-60v26h258v-26z" id="c16-4a"/><path d="M165 636c0 -70 -27 -137 -77 -186l-18 18c35 40 56 90 62 142h-30l-27 26v38l27 26h37l26 -26v-38zM333 636c0 -70 -27 -137 -77 -186l-18 18c35 40 56 90 62 142h-30l-27 26v38l27 26h37l26 -26v-38z" id="c16-22"/><path d="M600 497c0 -108 -71 -204 -173 -204h-136v-115c0 -47 7 -95 20 -140h70v-38h-346v38h70c13 45 20 93 20 140v344c0 47 -7 95 -20 140h-70v38h392c102 0 173 -96 173 -203zM448 497c0 91 -25 165 -105 165h-32c-13 -45 -20 -93 -20 -140v-191h52c80 0 105 74 105 166z" id="c18-50"/><path d="M387 137c0 -88 -87 -147 -181 -147c-58 0 -116 10 -171 30v124h26c0 -74 68 -128 145 -128c58 0 114 30 114 83c0 55 -67 72 -125 85c-74 17 -143 63 -143 134c0 77 73 132 154 132c50 0 99 -10 145 -30v-93h-26c0 58 -57 97 -119 97c-49 0 -95 -27 -95 -72 c0 -47 57 -59 106 -70c85 -20 170 -64 170 -145z" id="c16-73"/><path d="M170 364c-49 25 -82 74 -82 132c0 83 69 149 153 149c83 0 152 -66 152 -149c0 -58 -33 -107 -82 -132c74 -28 127 -98 127 -181c0 -107 -89 -193 -197 -193c-109 0 -198 86 -198 193c0 83 53 153 127 181zM313 496c0 67 -14 123 -72 123c-59 0 -73 -56 -73 -123 s14 -123 73 -123c58 0 72 56 72 123zM338 183c0 91 -18 168 -97 168c-80 0 -98 -77 -98 -168s18 -167 98 -167c79 0 97 76 97 167z" id="c16-38"/><path d="M604 88c-36 -59 -101 -98 -164 -98c-60 0 -88 17 -76 73l20 87c11 47 -33 75 -86 75h-60l-19 -85c-11 -47 -18 -94 -21 -140h-116c19 46 33 93 44 140l91 395c11 47 18 94 21 140h-70v25c64 0 129 3 194 10c-21 -58 -39 -116 -52 -175l-45 -196c48 70 122 120 201 120 c55 0 89 -45 76 -100c-16 -67 -83 -101 -160 -115c62 -10 108 -36 95 -94l-20 -87c-5 -20 6 -35 25 -35c50 0 92 48 122 97v-37zM450 359c9 41 -31 67 -76 49c-19 -7 -35 -22 -50 -38c-34 -36 -63 -77 -78 -120h58c64 0 131 47 146 109z" id="c19-6b"/></defs><g id="page0001" transform="scale(1.250000)"><g transform="scale(0.0248800048828,-0.0248800048828)"><g transform="translate(0,-5781.15890726)"><use x="7937.05549586" xlink:href="#c17-41"/><use x="8620.05549586" xlink:href="#c17-72"/><use x="9024.05549586" xlink:href="#c17-74"/><use x="9314.05549586" xlink:href="#c17-79"/><use x="9839.05549586" xlink:href="#c17-6b"/><use x="10373.0554959" xlink:href="#c17-75"/><use x="10938.0554959" xlink:href="#c17-aa"/><use x="11607.3894425" xlink:href="#c17-7a"/><use x="12375.7233891" xlink:href="#c17-57"/><use x="13450.7233891" xlink:href="#c17-69"/><use x="13718.7233891" xlink:href="#c17-6b"/><use x="14252.7233891" xlink:href="#c17-69"/><use x="14520.7233891" xlink:href="#c17-70"/><use x="15103.7239534" xlink:href="#c17-65"/><use x="15593.7239534" xlink:href="#c17-64"/><use x="16146.7239534" xlink:href="#c17-69"/><use x="16414.7239534" xlink:href="#c17-69"/></g></g><g transform="scale(0.012,-0.012)"><g transform="translate(0,-14277.9384867)"><use x="10741.2347412" xlink:href="#c18-41"/><use x="11531.2347412" xlink:href="#c18-6e"/><use x="12128.2334188" xlink:href="#c18-74"/><use x="12491.2334188" xlink:href="#c18-79"/><use x="13097.2334188" xlink:href="#c18-6b"/><use x="13706.2334188" xlink:href="#c18-77"/><use x="14592.2334188" xlink:href="#c18-61"/><use x="16061.0950114" xlink:href="#c18-50"/><use x="16696.0950114" xlink:href="#c18-f3"/><use x="17288.0950114" xlink:href="#c18-aa"/><use x="17710.0950114" xlink:href="#c18-74"/><use x="18073.0950114" xlink:href="#c18-61"/><use x="18628.0950114" xlink:href="#c18-77"/><use x="19514.0950114" xlink:href="#c18-73"/><use x="19975.0950114" xlink:href="#c18-6b"/><use x="20584.0950114" xlink:href="#c18-69"/><use x="20918.0950114" xlink:href="#c18-65"/><use x="21472.0950114" xlink:href="#c18-67"/><use x="22042.0950114" xlink:href="#c18-6f"/><use x="23547.956604" xlink:href="#c16-7c"/><use x="25236.8194682" xlink:href="#c16-64"/><use x="25789.8194682" xlink:href="#c16-77"/><use x="26574.8194682" xlink:href="#c16-75"/><use x="27139.8194682" xlink:href="#c16-65"/><use x="27629.8194682" xlink:href="#c16-6c"/><use x="27897.8194682" xlink:href="#c16-65"/><use x="28387.8194682" xlink:href="#c16-6d"/><use x="29219.8194682" xlink:href="#c16-65"/><use x="29709.8194682" xlink:href="#c16-6e"/><use x="30229.8181458" xlink:href="#c16-74"/><use x="30519.8181458" xlink:href="#c16-6f"/><use x="31015.8168233" xlink:href="#c16-77"/><use x="31800.8168233" xlink:href="#c16-61"/><use x="33212.6784159" xlink:href="#c16-61"/><use x="33710.6784159" xlink:href="#c16-6e"/><use x="34230.6770935" xlink:href="#c16-74"/><use x="34520.6770935" xlink:href="#c16-79"/><use x="35045.6770935" xlink:href="#c16-6b"/><use x="35579.6770935" xlink:href="#c16-77"/><use x="36364.6770935" xlink:href="#c16-61"/><use x="37776.5386861" xlink:href="#c16-7a"/><use x="38211.5386861" xlink:href="#c16-61"/><use x="38709.5386861" xlink:href="#c16-70"/><use x="39262.5386861" xlink:href="#c16-72"/><use x="39666.5386861" xlink:href="#c16-6f"/><use x="40192.5386861" xlink:href="#c16-6a"/><use x="40420.5386861" xlink:href="#c16-65"/><use x="40910.5386861" xlink:href="#c16-6b"/><use x="41444.5386861" xlink:href="#c16-2d"/></g><g transform="translate(0,-15486.2718201)"><use x="9272.5" xlink:href="#c16-74"/><use x="9562.5" xlink:href="#c16-6f"/><use x="10058.4986776" xlink:href="#c16-77"/><use x="10843.4986776" xlink:href="#c16-61"/><use x="11341.4986776" xlink:href="#c16-6e"/><use x="11891.4986776" xlink:href="#c16-61"/><use x="12919.7263387" xlink:href="#c16-77"/><use x="14234.9539998" xlink:href="#c16-6c"/><use x="14502.9539998" xlink:href="#c16-61"/><use x="15000.9539998" xlink:href="#c16-74"/><use x="15290.9539998" xlink:href="#c16-61"/><use x="15788.9539998" xlink:href="#c16-63"/><use x="16258.9539998" xlink:href="#c16-68"/><use x="17354.1829325" xlink:href="#c16-31"/><use x="17834.1829325" xlink:href="#c16-39"/><use x="18314.1829325" xlink:href="#c16-32"/><use x="18794.1829325" xlink:href="#c16-33"/><use x="19274.1829325" xlink:href="#c16-2d"/><use x="19602.1829325" xlink:href="#c16-31"/><use x="20082.1829325" xlink:href="#c16-39"/><use x="20562.1829325" xlink:href="#c16-32"/><use x="21042.1829325" xlink:href="#c16-38"/><use x="22052.4105937" xlink:href="#c16-70"/><use x="22605.4105937" xlink:href="#c16-72"/><use x="23009.4105937" xlink:href="#c16-7a"/><use x="23444.4105937" xlink:href="#c16-65"/><use x="23934.4105937" xlink:href="#c16-7a"/><use x="24899.6382548" xlink:href="#c16-70"/><use x="25482.6383057" xlink:href="#c16-6f"/><use x="26008.6383057" xlink:href="#c16-6c"/><use x="26276.6383057" xlink:href="#c16-73"/><use x="26688.6383057" xlink:href="#c16-6b"/><use x="27222.6383057" xlink:href="#c16-69"/><use x="27490.6383057" xlink:href="#c16-65"/><use x="27980.6383057" xlink:href="#c16-67"/><use x="28480.6383057" xlink:href="#c16-6f"/><use x="29536.8659668" xlink:href="#c16-67"/><use x="30036.8659668" xlink:href="#c16-72"/><use x="30440.8659668" xlink:href="#c16-61"/><use x="30938.8659668" xlink:href="#c16-0c"/><use x="31466.8659668" xlink:href="#c16-6b"/><use x="31970.8646444" xlink:href="#c16-61"/><use x="32999.0935771" xlink:href="#c16-69"/><use x="33797.3212382" xlink:href="#c16-74"/><use x="34087.3212382" xlink:href="#c16-79"/><use x="34612.3212382" xlink:href="#c16-70"/><use x="35195.3212891" xlink:href="#c16-6f"/><use x="35751.3213399" xlink:href="#c16-67"/><use x="36251.3213399" xlink:href="#c16-72"/><use x="36655.3213399" xlink:href="#c16-61"/><use x="37153.3213399" xlink:href="#c16-66"/><use x="37448.3213399" xlink:href="#c16-61"/><use x="38476.5490011" xlink:href="#c19-41"/><use x="39145.5476786" xlink:href="#c19-64"/><use x="39720.5476786" xlink:href="#c19-61"/><use x="40295.5476786" xlink:href="#c19-6d"/><use x="41197.5476786" xlink:href="#c19-61"/></g><g transform="translate(0,-16694.6051534)"><use x="9272.5" xlink:href="#c19-50"/><use x="9845.5" xlink:href="#c19-f3"/><use x="10375.5" xlink:href="#c19-aa"/><use x="10726.5" xlink:href="#c19-74"/><use x="11116.5" xlink:href="#c19-61"/><use x="11691.5" xlink:href="#c19-77"/><use x="12483.5" xlink:href="#c19-73"/><use x="12861.5" xlink:href="#c19-6b"/><use x="13468.5" xlink:href="#c19-69"/><use x="13819.5" xlink:href="#c19-65"/><use x="14329.5" xlink:href="#c19-67"/><use x="14772.5" xlink:href="#c19-6f"/><use x="15302.5" xlink:href="#c16-2e"/><use x="16407.4198914" xlink:href="#c16-4a"/><use x="16848.4185689" xlink:href="#c16-65"/><use x="17338.4185689" xlink:href="#c16-73"/><use x="17750.4185689" xlink:href="#c16-74"/><use x="18517.244283" xlink:href="#c16-70"/><use x="19070.244283" xlink:href="#c16-69"/><use x="19338.244283" xlink:href="#c16-65"/><use x="19828.244283" xlink:href="#c16-72"/><use x="20262.2443339" xlink:href="#c16-77"/><use x="21047.2443339" xlink:href="#c16-73"/><use x="21459.2443339" xlink:href="#c16-7a"/><use x="21894.2443339" xlink:href="#c16-79"/><use x="22419.2443339" xlink:href="#c16-6d"/><use x="23728.0687764" xlink:href="#c16-70"/><use x="24311.0688273" xlink:href="#c16-6f"/><use x="24837.0688273" xlink:href="#c16-6c"/><use x="25105.0688273" xlink:href="#c16-73"/><use x="25517.0688273" xlink:href="#c16-6b"/><use x="26051.0688273" xlink:href="#c16-69"/><use x="26319.0688273" xlink:href="#c16-6d"/><use x="27627.8945414" xlink:href="#c16-6b"/><use x="28161.8945414" xlink:href="#c16-72"/><use x="28565.8945414" xlink:href="#c16-6f"/><use x="29091.8945414" xlink:href="#c16-6a"/><use x="29319.8945414" xlink:href="#c16-65"/><use x="29809.8945414" xlink:href="#c16-6d"/><use x="31118.718984" xlink:href="#c16-70"/><use x="31671.718984" xlink:href="#c16-69"/><use x="31939.718984" xlink:href="#c16-73"/><use x="32351.718984" xlink:href="#c16-6d"/><use x="33183.718984" xlink:href="#c16-61"/><use x="34158.5446981" xlink:href="#c16-7a"/><use x="34593.5446981" xlink:href="#c16-61"/><use x="35091.5446981" xlink:href="#c16-70"/><use x="35644.5446981" xlink:href="#c16-72"/><use x="36048.5446981" xlink:href="#c16-6f"/><use x="36574.5446981" xlink:href="#c16-6a"/><use x="36802.5446981" xlink:href="#c16-65"/><use x="37292.5446981" xlink:href="#c16-6b"/><use x="37826.5446981" xlink:href="#c16-74"/><use x="38116.5446981" xlink:href="#c16-6f"/><use x="38612.5433757" xlink:href="#c16-77"/><use x="39397.5433757" xlink:href="#c16-61"/><use x="39895.5433757" xlink:href="#c16-6e"/><use x="40415.5420532" xlink:href="#c16-79"/><use x="40940.5420532" xlink:href="#c16-6d"/></g><g transform="translate(0,-17902.9384867)"><use x="9272.5" xlink:href="#c16-6f"/><use x="9828.50005086" xlink:href="#c16-64"/><use x="10749.6463114" xlink:href="#c16-70"/><use x="11332.6463623" xlink:href="#c16-6f"/><use x="11888.6464132" xlink:href="#c16-64"/><use x="12441.6464132" xlink:href="#c16-73"/><use x="12853.6464132" xlink:href="#c16-74"/><use x="13143.6464132" xlink:href="#c16-61"/><use x="13641.6464132" xlink:href="#c16-77"/><use x="14426.6464132" xlink:href="#c16-2e"/><use x="15205.5292155" xlink:href="#c16-43"/><use x="15861.5292155" xlink:href="#c16-68"/><use x="16426.5292155" xlink:href="#c16-61"/><use x="16924.5292155" xlink:href="#c16-72"/><use x="17328.5292155" xlink:href="#c16-61"/><use x="17826.5292155" xlink:href="#c16-6b"/><use x="18360.5292155" xlink:href="#c16-74"/><use x="18650.5292155" xlink:href="#c16-65"/><use x="19140.5292155" xlink:href="#c16-72"/><use x="19574.5292664" xlink:href="#c16-79"/><use x="20099.5292664" xlink:href="#c16-7a"/><use x="20534.5292664" xlink:href="#c16-75"/><use x="21099.5292664" xlink:href="#c16-6a"/><use x="21327.5292664" xlink:href="#c16-65"/><use x="22185.6755269" xlink:href="#c16-73"/><use x="22597.6755269" xlink:href="#c16-69"/><use x="22865.6755269" xlink:href="#c16-a6"/><use x="23733.820516" xlink:href="#c16-72"/><use x="24137.820516" xlink:href="#c16-65"/><use x="24627.820516" xlink:href="#c16-67"/><use x="25127.820516" xlink:href="#c16-75"/><use x="25692.820516" xlink:href="#c16-6c"/><use x="25960.820516" xlink:href="#c16-61"/><use x="26458.820516" xlink:href="#c16-72"/><use x="26862.820516" xlink:href="#c16-6e"/><use x="27382.8191935" xlink:href="#c16-79"/><use x="27907.8191935" xlink:href="#c16-6d"/><use x="29107.9654541" xlink:href="#c16-72"/><use x="29541.965505" xlink:href="#c16-79"/><use x="30066.965505" xlink:href="#c16-74"/><use x="30356.965505" xlink:href="#c16-6d"/><use x="31188.965505" xlink:href="#c16-65"/><use x="31678.965505" xlink:href="#c16-6d"/><use x="32879.1117655" xlink:href="#c16-64"/><use x="33432.1117655" xlink:href="#c16-6c"/><use x="33700.1117655" xlink:href="#c16-61"/><use x="34566.2580261" xlink:href="#c16-73"/><use x="34978.2580261" xlink:href="#c16-6b"/><use x="35512.2580261" xlink:href="#c16-aa"/><use x="35848.2580261" xlink:href="#c16-61"/><use x="36346.2580261" xlink:href="#c16-64"/><use x="36899.2580261" xlink:href="#c16-75"/><use x="37832.4042867" xlink:href="#c16-77"/><use x="38985.5505473" xlink:href="#c16-6a"/><use x="39213.5505473" xlink:href="#c16-a6"/><use x="39713.5505473" xlink:href="#c16-7a"/><use x="40148.5505473" xlink:href="#c16-79"/><use x="40673.5505473" xlink:href="#c16-6b"/><use x="41207.5505473" xlink:href="#c16-75"/></g><g transform="translate(0,-19111.2718201)"><use x="9272.5" xlink:href="#c16-70"/><use x="9855.50005086" xlink:href="#c16-6f"/><use x="10381.5000509" xlink:href="#c16-6c"/><use x="10649.5000509" xlink:href="#c16-73"/><use x="11061.5000509" xlink:href="#c16-6b"/><use x="11595.5000509" xlink:href="#c16-69"/><use x="11863.5000509" xlink:href="#c16-6d"/><use x="12695.5000509" xlink:href="#c16-2e"/><use x="13362.5461019" xlink:href="#c16-55"/><use x="14060.5461019" xlink:href="#c16-77"/><use x="14845.5461019" xlink:href="#c16-61"/><use x="15343.5461019" xlink:href="#c16-67"/><use x="15843.5461019" xlink:href="#c16-a6"/><use x="16654.684255" xlink:href="#c16-7a"/><use x="17089.684255" xlink:href="#c16-77"/><use x="17874.684255" xlink:href="#c16-72"/><use x="18278.684255" xlink:href="#c16-61"/><use x="18776.684255" xlink:href="#c16-63"/><use x="19246.684255" xlink:href="#c16-61"/><use x="19744.684255" xlink:href="#c16-6a"/><use x="19972.684255" xlink:href="#c16-a1"/><use x="20791.822408" xlink:href="#c16-63"/><use x="21261.822408" xlink:href="#c16-68"/><use x="21826.822408" xlink:href="#c16-61"/><use x="22324.822408" xlink:href="#c16-72"/><use x="22728.822408" xlink:href="#c16-61"/><use x="23226.822408" xlink:href="#c16-6b"/><use x="23760.822408" xlink:href="#c16-74"/><use x="24050.822408" xlink:href="#c16-65"/><use x="24540.822408" xlink:href="#c16-72"/><use x="24974.8224589" xlink:href="#c16-79"/><use x="25499.8224589" xlink:href="#c16-73"/><use x="25911.8224589" xlink:href="#c16-74"/><use x="26201.8224589" xlink:href="#c16-79"/><use x="26726.8224589" xlink:href="#c16-63"/><use x="27196.8224589" xlink:href="#c16-7a"/><use x="27631.8224589" xlink:href="#c16-6e"/><use x="28181.8224589" xlink:href="#c16-65"/><use x="28982.960612" xlink:href="#c16-67"/><use x="29482.960612" xlink:href="#c16-6c"/><use x="29750.960612" xlink:href="#c16-69"/><use x="30018.960612" xlink:href="#c16-66"/><use x="30343.9606628" xlink:href="#c16-79"/><use x="31180.0975444" xlink:href="#c16-6c"/><use x="31448.0975444" xlink:href="#c16-69"/><use x="31716.0975444" xlink:href="#c16-74"/><use x="32006.0975444" xlink:href="#c16-65"/><use x="32496.0975444" xlink:href="#c16-72"/><use x="33211.2356974" xlink:href="#c16-ff"/><use x="33549.2343241" xlink:href="#c16-77"/><use x="34334.2343241" xlink:href="#c16-22"/><use x="35043.3724772" xlink:href="#c16-6f"/><use x="35569.3724772" xlink:href="#c16-72"/><use x="35973.3724772" xlink:href="#c16-61"/><use x="36471.3724772" xlink:href="#c16-7a"/><use x="37217.5106303" xlink:href="#c16-ff"/><use x="37615.5106303" xlink:href="#c16-79"/><use x="38140.5106303" xlink:href="#c16-22"/><use x="38538.5106303" xlink:href="#c16-2e"/><use x="39205.5566813" xlink:href="#c16-4c"/><use x="39765.5566813" xlink:href="#c16-69"/><use x="40033.5566813" xlink:href="#c16-74"/><use x="40323.5566813" xlink:href="#c16-65"/><use x="40813.5566813" xlink:href="#c16-72"/><use x="41247.5567322" xlink:href="#c16-79"/></g><g transform="translate(0,-20319.6051534)"><use x="9272.5" xlink:href="#c16-74"/><use x="9562.5" xlink:href="#c16-65"/><use x="10422.3806763" xlink:href="#c16-63"/><use x="10892.3806763" xlink:href="#c16-7a"/><use x="11327.3806763" xlink:href="#c16-a6"/><use x="11827.3806763" xlink:href="#c16-73"/><use x="12239.3806763" xlink:href="#c16-74"/><use x="12529.3806763" xlink:href="#c16-6f"/><use x="13425.260081" xlink:href="#c16-77"/><use x="14240.2601318" xlink:href="#c16-79"/><use x="14765.2601318" xlink:href="#c16-73"/><use x="15177.2601318" xlink:href="#c16-74"/><use x="15467.2601318" xlink:href="#c16-a6"/><use x="15967.2601318" xlink:href="#c16-70"/><use x="16520.2601318" xlink:href="#c16-75"/><use x="17085.2601318" xlink:href="#c16-6a"/><use x="17313.2601318" xlink:href="#c16-a1"/><use x="18191.1408081" xlink:href="#c16-77"/><use x="19346.0202128" xlink:href="#c16-6a"/><use x="19574.0202128" xlink:href="#c16-a6"/><use x="20074.0202128" xlink:href="#c16-7a"/><use x="20509.0202128" xlink:href="#c16-79"/><use x="21034.0202128" xlink:href="#c16-6b"/><use x="21568.0202128" xlink:href="#c16-75"/><use x="22502.9008891" xlink:href="#c16-70"/><use x="23085.9009399" xlink:href="#c16-6f"/><use x="23611.9009399" xlink:href="#c16-6c"/><use x="23879.9009399" xlink:href="#c16-73"/><use x="24291.9009399" xlink:href="#c16-6b"/><use x="24825.9009399" xlink:href="#c16-69"/><use x="25093.9009399" xlink:href="#c16-6d"/><use x="25925.9009399" xlink:href="#c16-2c"/><use x="26534.9165446" xlink:href="#c16-64"/><use x="27087.9165446" xlink:href="#c16-6c"/><use x="27355.9165446" xlink:href="#c16-61"/><use x="27853.9165446" xlink:href="#c16-74"/><use x="28143.9165446" xlink:href="#c16-65"/><use x="28633.9165446" xlink:href="#c16-67"/><use x="29133.9165446" xlink:href="#c16-6f"/><use x="30029.7972209" xlink:href="#c16-50"/><use x="30592.7972209" xlink:href="#c16-f3"/><use x="31118.7972209" xlink:href="#c16-aa"/><use x="31454.7972209" xlink:href="#c16-74"/><use x="31744.7972209" xlink:href="#c16-61"/><use x="32242.7972209" xlink:href="#c16-77"/><use x="33027.7972209" xlink:href="#c16-73"/><use x="33439.7972209" xlink:href="#c16-6b"/><use x="33973.7972209" xlink:href="#c16-69"/><use x="34611.6766256" xlink:href="#c16-7a"/><use x="35046.6766256" xlink:href="#c16-61"/><use x="35544.6766256" xlink:href="#c16-70"/><use x="36097.6766256" xlink:href="#c16-72"/><use x="36501.6766256" xlink:href="#c16-6f"/><use x="37027.6766256" xlink:href="#c16-6a"/><use x="37255.6766256" xlink:href="#c16-65"/><use x="37745.6766256" xlink:href="#c16-6b"/><use x="38279.6766256" xlink:href="#c16-74"/><use x="38569.6766256" xlink:href="#c16-6f"/><use x="39065.6753031" xlink:href="#c16-77"/><use x="39850.6753031" xlink:href="#c16-61"/><use x="40348.6753031" xlink:href="#c16-aa"/><use x="41054.5559794" xlink:href="#c16-6a"/><use x="41282.5559794" xlink:href="#c16-65"/></g><g transform="translate(0,-21527.9384867)"><use x="9272.5" xlink:href="#c16-74"/><use x="9562.5" xlink:href="#c16-61"/><use x="10060.5" xlink:href="#c16-6b"/><use x="10594.5" xlink:href="#c16-2c"/><use x="11212.3237406" xlink:href="#c16-62"/><use x="11775.3237406" xlink:href="#c16-79"/><use x="12677.2501628" xlink:href="#c16-70"/><use x="13230.2501628" xlink:href="#c16-72"/><use x="13634.2501628" xlink:href="#c16-7a"/><use x="14069.2501628" xlink:href="#c16-65"/><use x="14559.2501628" xlink:href="#c16-77"/><use x="15344.2501628" xlink:href="#c16-61"/><use x="15842.2501628" xlink:href="#c16-bb"/><use x="16277.2501628" xlink:href="#c16-61"/><use x="16775.2501628" xlink:href="#c16-aa"/><use x="17141.2502136" xlink:href="#c16-79"/><use x="18043.1753642" xlink:href="#c16-77"/><use x="19205.1017863" xlink:href="#c16-6e"/><use x="19755.1017863" xlink:href="#c16-69"/><use x="20023.1017863" xlink:href="#c16-63"/><use x="20493.1017863" xlink:href="#c16-68"/><use x="21435.0269368" xlink:href="#c16-65"/><use x="21925.0269368" xlink:href="#c16-6c"/><use x="22193.0269368" xlink:href="#c16-65"/><use x="22683.0269368" xlink:href="#c16-6d"/><use x="23515.0269368" xlink:href="#c16-65"/><use x="24005.0269368" xlink:href="#c16-6e"/><use x="24525.0256144" xlink:href="#c16-74"/><use x="24815.0256144" xlink:href="#c16-79"/><use x="25716.950765" xlink:href="#c16-70"/><use x="26269.950765" xlink:href="#c16-69"/><use x="26537.950765" xlink:href="#c16-6f"/><use x="27063.950765" xlink:href="#c16-6e"/><use x="27613.950765" xlink:href="#c16-6f"/><use x="28109.9494425" xlink:href="#c16-77"/><use x="28894.9494425" xlink:href="#c16-65"/><use x="29384.9494425" xlink:href="#c16-2c"/><use x="30002.7744548" xlink:href="#c16-64"/><use x="30555.7744548" xlink:href="#c16-7a"/><use x="30990.7744548" xlink:href="#c16-69"/><use x="31258.7744548" xlink:href="#c16-a6"/><use x="31758.7744548" xlink:href="#c16-6b"/><use x="32292.7744548" xlink:href="#c16-69"/><use x="32937.6996053" xlink:href="#c16-63"/><use x="33407.6996053" xlink:href="#c16-7a"/><use x="33842.6996053" xlink:href="#c16-65"/><use x="34332.6996053" xlink:href="#c16-6d"/><use x="35134.6982829" xlink:href="#c16-75"/><use x="36076.624705" xlink:href="#c16-7a"/><use x="36511.624705" xlink:href="#c16-aa"/><use x="36847.624705" xlink:href="#c16-6f"/><use x="37373.624705" xlink:href="#c16-bb"/><use x="37808.624705" xlink:href="#c16-6f"/><use x="38334.624705" xlink:href="#c16-6e"/><use x="38854.6233826" xlink:href="#c16-79"/><use x="39756.5485331" xlink:href="#c16-74"/><use x="40046.5485331" xlink:href="#c16-65"/><use x="40536.5485331" xlink:href="#c16-6b"/><use x="41070.5485331" xlink:href="#c16-73"/><use x="41482.5485331" xlink:href="#c16-74"/></g><g transform="translate(0,-22736.2718201)"><use x="9272.5" xlink:href="#c16-70"/><use x="9855.50005086" xlink:href="#c16-6f"/><use x="10381.5000509" xlink:href="#c16-6c"/><use x="10649.5000509" xlink:href="#c16-73"/><use x="11061.5000509" xlink:href="#c16-6b"/><use x="11595.5000509" xlink:href="#c16-69"/><use x="12124.5995483" xlink:href="#c16-6e"/><use x="12674.5995483" xlink:href="#c16-61"/><use x="13172.5995483" xlink:href="#c16-62"/><use x="13735.5995483" xlink:href="#c16-69"/><use x="14003.5995483" xlink:href="#c16-65"/><use x="14493.5995483" xlink:href="#c16-72"/><use x="14897.5995483" xlink:href="#c16-61"/><use x="15656.6990458" xlink:href="#c16-6a"/><use x="15884.6990458" xlink:href="#c16-65"/><use x="16374.6990458" xlink:href="#c16-64"/><use x="16927.6990458" xlink:href="#c16-6e"/><use x="17477.6990458" xlink:href="#c16-6f"/><use x="18003.6990458" xlink:href="#c16-6c"/><use x="18271.6990458" xlink:href="#c16-69"/><use x="18539.6990458" xlink:href="#c16-74"/><use x="18829.6990458" xlink:href="#c16-6f"/><use x="19355.6990458" xlink:href="#c16-b1"/><use x="19767.6990458" xlink:href="#c16-63"/><use x="20237.6990458" xlink:href="#c16-69"/><use x="20505.6990458" xlink:href="#c16-2e"/><use x="21156.0659688" xlink:href="#c16-41"/><use x="21839.0659688" xlink:href="#c16-6e"/><use x="22359.0646464" xlink:href="#c16-74"/><use x="22649.0646464" xlink:href="#c16-79"/><use x="23174.0646464" xlink:href="#c16-6b"/><use x="23708.0646464" xlink:href="#c16-77"/><use x="24493.0646464" xlink:href="#c16-61"/><use x="25252.1641439" xlink:href="#c16-50"/><use x="25815.1641439" xlink:href="#c16-f3"/><use x="26341.1641439" xlink:href="#c16-aa"/><use x="26677.1641439" xlink:href="#c16-74"/><use x="26967.1641439" xlink:href="#c16-61"/><use x="27465.1641439" xlink:href="#c16-77"/><use x="28250.1641439" xlink:href="#c16-73"/><use x="28662.1641439" xlink:href="#c16-6b"/><use x="29196.1641439" xlink:href="#c16-69"/><use x="29464.1641439" xlink:href="#c16-65"/><use x="29954.1641439" xlink:href="#c16-67"/><use x="30454.1641439" xlink:href="#c16-6f"/><use x="31241.2636414" xlink:href="#c16-6a"/><use x="31469.2636414" xlink:href="#c16-65"/><use x="31959.2636414" xlink:href="#c16-73"/><use x="32371.2636414" xlink:href="#c16-74"/><use x="32922.3631388" xlink:href="#c16-6a"/><use x="33150.3631388" xlink:href="#c16-65"/><use x="33640.3631388" xlink:href="#c16-64"/><use x="34193.3631388" xlink:href="#c16-6e"/><use x="34713.3618164" xlink:href="#c16-79"/><use x="35238.3618164" xlink:href="#c16-6d"/><use x="36331.4613139" xlink:href="#c16-7a"/><use x="37027.5608114" xlink:href="#c16-6e"/><use x="37577.5608114" xlink:href="#c16-61"/><use x="38075.5608114" xlink:href="#c16-6a"/><use x="38303.5608114" xlink:href="#c16-62"/><use x="38896.5608622" xlink:href="#c16-61"/><use x="39394.5608622" xlink:href="#c16-72"/><use x="39798.5608622" xlink:href="#c16-64"/><use x="40351.5608622" xlink:href="#c16-7a"/><use x="40786.5608622" xlink:href="#c16-69"/><use x="41054.5608622" xlink:href="#c16-65"/><use x="41544.5608622" xlink:href="#c16-6a"/></g><g transform="translate(0,-23944.6051534)"><use x="9272.5" xlink:href="#c16-72"/><use x="9676.5" xlink:href="#c16-6f"/><use x="10202.5" xlink:href="#c16-7a"/><use x="10637.5" xlink:href="#c16-70"/><use x="11220.5000509" xlink:href="#c16-6f"/><use x="11746.5000509" xlink:href="#c16-7a"/><use x="12181.5000509" xlink:href="#c16-6e"/><use x="12731.5000509" xlink:href="#c16-61"/><use x="13229.5000509" xlink:href="#c16-77"/><use x="14014.5000509" xlink:href="#c16-61"/><use x="14512.5000509" xlink:href="#c16-6c"/><use x="14780.5000509" xlink:href="#c16-6e"/><use x="15300.4987284" xlink:href="#c16-79"/><use x="15825.4987284" xlink:href="#c16-63"/><use x="16295.4987284" xlink:href="#c16-68"/><use x="17160.1622721" xlink:href="#c16-77"/><use x="18244.8270874" xlink:href="#c16-50"/><use x="18807.8270874" xlink:href="#c16-6f"/><use x="19333.8270874" xlink:href="#c16-6c"/><use x="19601.8270874" xlink:href="#c16-73"/><use x="20013.8270874" xlink:href="#c16-63"/><use x="20483.8270874" xlink:href="#c16-65"/><use x="21273.4906311" xlink:href="#c16-6b"/><use x="21807.4906311" xlink:href="#c16-72"/><use x="22211.4906311" xlink:href="#c16-6f"/><use x="22737.4906311" xlink:href="#c16-6a"/><use x="22965.4906311" xlink:href="#c16-f3"/><use x="23461.4893087" xlink:href="#c16-77"/><use x="24546.1528524" xlink:href="#c16-70"/><use x="25099.1528524" xlink:href="#c16-69"/><use x="25367.1528524" xlink:href="#c16-73"/><use x="25779.1528524" xlink:href="#c16-6d"/><use x="26611.1528524" xlink:href="#c16-2c"/><use x="27147.5506083" xlink:href="#c16-62"/><use x="27710.5506083" xlink:href="#c16-79"/><use x="28265.5506592" xlink:href="#c16-77"/><use x="29050.5506592" xlink:href="#c16-61"/><use x="29848.2142029" xlink:href="#c16-6e"/><use x="30398.2142029" xlink:href="#c16-61"/><use x="30896.2142029" xlink:href="#c16-7a"/><use x="31331.2142029" xlink:href="#c16-79"/><use x="31886.2142537" xlink:href="#c16-77"/><use x="32671.2142537" xlink:href="#c16-61"/><use x="33169.2142537" xlink:href="#c16-6e"/><use x="33719.2142537" xlink:href="#c16-61"/><use x="34516.879069" xlink:href="#c19-70"/><use x="35083.8791199" xlink:href="#c19-6f"/><use x="35613.8791199" xlink:href="#c19-6c"/><use x="35964.8791199" xlink:href="#c19-73"/><use x="36342.8791199" xlink:href="#c19-6b"/><use x="36949.8791199" xlink:href="#c19-69"/><use x="37300.8791199" xlink:href="#c19-6d"/><use x="38502.5426636" xlink:href="#c19-6b"/><use x="39109.5426636" xlink:href="#c19-72"/><use x="39531.5426636" xlink:href="#c19-6f"/><use x="40061.5426636" xlink:href="#c19-6a"/><use x="40360.5426636" xlink:href="#c19-65"/><use x="40870.5426636" xlink:href="#c19-6d"/></g><g transform="translate(0,-25152.9384867)"><use x="9272.5" xlink:href="#c19-6e"/><use x="9909.5" xlink:href="#c19-61"/><use x="10484.5" xlink:href="#c19-72"/><use x="10906.5" xlink:href="#c19-6f"/><use x="11466.5000509" xlink:href="#c19-64"/><use x="12041.5000509" xlink:href="#c19-6f"/><use x="12541.4987284" xlink:href="#c19-77"/><use x="13363.4987793" xlink:href="#c19-79"/><use x="13853.4987793" xlink:href="#c19-6d"/><use x="14755.4987793" xlink:href="#c16-2e"/></g><g transform="translate(0,-26361.2718201)"><use x="10741.2347412" xlink:href="#c16-44"/><use x="11469.2347412" xlink:href="#c16-7a"/><use x="11904.2347412" xlink:href="#c16-69"/><use x="12172.2347412" xlink:href="#c16-b1"/><use x="12856.0115763" xlink:href="#c16-63"/><use x="13326.0115763" xlink:href="#c16-68"/><use x="13891.0115763" xlink:href="#c16-61"/><use x="14389.0115763" xlink:href="#c16-72"/><use x="14793.0115763" xlink:href="#c16-61"/><use x="15291.0115763" xlink:href="#c16-6b"/><use x="15825.0115763" xlink:href="#c16-74"/><use x="16115.0115763" xlink:href="#c16-65"/><use x="16605.0115763" xlink:href="#c16-72"/><use x="17280.789683" xlink:href="#c16-70"/><use x="17833.789683" xlink:href="#c16-69"/><use x="18101.789683" xlink:href="#c16-73"/><use x="18513.789683" xlink:href="#c16-6d"/><use x="19345.789683" xlink:href="#c16-61"/><use x="20115.5665181" xlink:href="#c16-6a"/><use x="20343.5665181" xlink:href="#c16-65"/><use x="20833.5665181" xlink:href="#c16-73"/><use x="21245.5665181" xlink:href="#c16-74"/><use x="21807.3446248" xlink:href="#c16-6a"/><use x="22035.3446248" xlink:href="#c16-75"/><use x="22600.3446248" xlink:href="#c16-bb"/><use x="23307.12146" xlink:href="#c16-64"/><use x="23860.12146" xlink:href="#c16-6f"/><use x="24386.12146" xlink:href="#c16-b1"/><use x="24798.12146" xlink:href="#c16-a2"/><use x="25539.8995667" xlink:href="#c16-61"/><use x="26037.8995667" xlink:href="#c16-72"/><use x="26441.8995667" xlink:href="#c16-63"/><use x="26911.8995667" xlink:href="#c16-68"/><use x="27476.8995667" xlink:href="#c16-61"/><use x="27974.8995667" xlink:href="#c16-69"/><use x="28242.8995667" xlink:href="#c16-63"/><use x="28712.8995667" xlink:href="#c16-7a"/><use x="29147.8995667" xlink:href="#c16-6e"/><use x="29667.8982442" xlink:href="#c16-79"/><use x="30464.6750793" xlink:href="#c16-69"/><use x="31004.453186" xlink:href="#c16-6e"/><use x="31554.453186" xlink:href="#c16-69"/><use x="31822.453186" xlink:href="#c16-65"/><use x="32584.2300212" xlink:href="#c16-6e"/><use x="33134.2300212" xlink:href="#c16-61"/><use x="33632.2300212" xlink:href="#c16-64"/><use x="34185.2300212" xlink:href="#c16-61"/><use x="34683.2300212" xlink:href="#c16-6a"/><use x="34911.2300212" xlink:href="#c16-65"/><use x="35673.0081278" xlink:href="#c16-73"/><use x="36085.0081278" xlink:href="#c16-69"/><use x="36353.0081278" xlink:href="#c16-a6"/><use x="37124.784963" xlink:href="#c16-64"/><use x="37677.784963" xlink:href="#c16-6f"/><use x="38475.5630697" xlink:href="#c16-74"/><use x="38765.5630697" xlink:href="#c16-65"/><use x="39255.5630697" xlink:href="#c16-6b"/><use x="39789.5630697" xlink:href="#c16-73"/><use x="40201.5630697" xlink:href="#c16-74"/><use x="40491.5630697" xlink:href="#c16-f3"/><use x="40987.5617472" xlink:href="#c16-77"/></g><g transform="translate(0,-27569.6051534)"><use x="9272.5" xlink:href="#c16-7a"/><use x="9707.5" xlink:href="#c16-77"/><use x="10522.5000509" xlink:href="#c16-79"/><use x="11047.5000509" xlink:href="#c16-6b"/><use x="11581.5000509" xlink:href="#c16-aa"/><use x="11947.5001017" xlink:href="#c16-79"/><use x="12472.5001017" xlink:href="#c16-63"/><use x="12942.5001017" xlink:href="#c16-68"/><use x="13507.5001017" xlink:href="#c16-2c"/><use x="14088.5005697" xlink:href="#c16-61"/><use x="14933.9673564" xlink:href="#c16-6a"/><use x="15161.9673564" xlink:href="#c16-65"/><use x="15651.9673564" xlink:href="#c16-b1"/><use x="16063.9673564" xlink:href="#c16-6c"/><use x="16331.9673564" xlink:href="#c16-69"/><use x="16947.4354146" xlink:href="#c16-6a"/><use x="17175.4354146" xlink:href="#c16-75"/><use x="17740.4354146" xlink:href="#c16-bb"/><use x="18522.9022013" xlink:href="#c16-74"/><use x="18812.9022013" xlink:href="#c16-6f"/><use x="19686.368988" xlink:href="#c16-72"/><use x="20090.368988" xlink:href="#c16-61"/><use x="20588.368988" xlink:href="#c16-63"/><use x="21058.368988" xlink:href="#c16-7a"/><use x="21493.368988" xlink:href="#c16-65"/><use x="21983.368988" xlink:href="#c16-6a"/><use x="22558.8357747" xlink:href="#c16-77"/><use x="23691.303833" xlink:href="#c16-75"/><use x="24256.303833" xlink:href="#c16-6b"/><use x="24790.303833" xlink:href="#c16-aa"/><use x="25126.303833" xlink:href="#c16-61"/><use x="25624.303833" xlink:href="#c16-64"/><use x="26177.303833" xlink:href="#c16-7a"/><use x="26612.303833" xlink:href="#c16-69"/><use x="26880.303833" xlink:href="#c16-65"/><use x="27717.7706197" xlink:href="#c16-77"/><use x="28502.7706197" xlink:href="#c16-a1"/><use x="29010.7706197" xlink:href="#c16-73"/><use x="29422.7706197" xlink:href="#c16-6b"/><use x="29926.7692973" xlink:href="#c16-6f"/><use x="30452.7692973" xlink:href="#c16-aa"/><use x="30788.7692973" xlink:href="#c16-61"/><use x="31286.7692973" xlink:href="#c16-6d"/><use x="32118.7692973" xlink:href="#c16-6f"/><use x="32614.7679749" xlink:href="#c16-77"/><use x="33429.7680257" xlink:href="#c16-79"/><use x="33954.7680257" xlink:href="#c16-6d"/><use x="34786.7680257" xlink:href="#c16-2e"/><use x="35503.613678" xlink:href="#c16-4a"/><use x="35944.6123556" xlink:href="#c16-75"/><use x="36509.6123556" xlink:href="#c16-bb"/><use x="37292.0791423" xlink:href="#c16-77"/><use x="38424.545929" xlink:href="#c16-63"/><use x="38894.545929" xlink:href="#c16-7a"/><use x="39329.545929" xlink:href="#c16-61"/><use x="39827.545929" xlink:href="#c16-73"/><use x="40239.545929" xlink:href="#c16-61"/><use x="40737.545929" xlink:href="#c16-63"/><use x="41207.545929" xlink:href="#c16-68"/></g><g transform="translate(0,-28777.9384867)"><use x="9272.5" xlink:href="#c16-74"/><use x="9562.5" xlink:href="#c16-72"/><use x="9966.5" xlink:href="#c16-61"/><use x="10464.5" xlink:href="#c16-64"/><use x="11017.5" xlink:href="#c16-79"/><use x="11542.5" xlink:href="#c16-63"/><use x="12012.5" xlink:href="#c16-79"/><use x="12537.5" xlink:href="#c16-6a"/><use x="12765.5" xlink:href="#c16-6e"/><use x="13315.5" xlink:href="#c16-65"/><use x="13805.5" xlink:href="#c16-67"/><use x="14305.5" xlink:href="#c16-6f"/><use x="15169.2583822" xlink:href="#c16-7a"/><use x="15604.2583822" xlink:href="#c16-65"/><use x="16094.2583822" xlink:href="#c16-63"/><use x="16564.2583822" xlink:href="#c16-65"/><use x="17054.2583822" xlink:href="#c16-72"/><use x="17458.2583822" xlink:href="#c16-73"/><use x="17870.2583822" xlink:href="#c16-74"/><use x="18160.2583822" xlink:href="#c16-77"/><use x="18945.2583822" xlink:href="#c16-61"/><use x="19781.0167643" xlink:href="#c16-73"/><use x="20193.0167643" xlink:href="#c16-74"/><use x="20483.0167643" xlink:href="#c16-6f"/><use x="21009.0167643" xlink:href="#c16-73"/><use x="21421.0167643" xlink:href="#c16-6f"/><use x="21917.0154419" xlink:href="#c16-77"/><use x="22702.0154419" xlink:href="#c16-61"/><use x="23200.0154419" xlink:href="#c16-6e"/><use x="23750.0154419" xlink:href="#c16-69"/><use x="24018.0154419" xlink:href="#c16-65"/><use x="24845.7738241" xlink:href="#c16-74"/><use x="25135.7738241" xlink:href="#c16-65"/><use x="25625.7738241" xlink:href="#c16-6a"/><use x="26191.5322062" xlink:href="#c16-63"/><use x="26661.5322062" xlink:href="#c16-7a"/><use x="27096.5322062" xlink:href="#c16-63"/><use x="27566.5322062" xlink:href="#c16-69"/><use x="27834.5322062" xlink:href="#c16-6f"/><use x="28360.5322062" xlink:href="#c16-6e"/><use x="28910.5322062" xlink:href="#c16-6b"/><use x="29444.5322062" xlink:href="#c16-69"/><use x="30050.2905884" xlink:href="#c16-7a"/><use x="30485.2905884" xlink:href="#c16-6f"/><use x="31011.2905884" xlink:href="#c16-73"/><use x="31423.2905884" xlink:href="#c16-74"/><use x="31713.2905884" xlink:href="#c16-61"/><use x="32211.2905884" xlink:href="#c16-aa"/><use x="32547.2905884" xlink:href="#c16-6f"/><use x="33411.0489705" xlink:href="#c16-6f"/><use x="33967.0490214" xlink:href="#c16-67"/><use x="34467.0490214" xlink:href="#c16-72"/><use x="34871.0490214" xlink:href="#c16-61"/><use x="35369.0490214" xlink:href="#c16-6e"/><use x="35919.0490214" xlink:href="#c16-69"/><use x="36187.0490214" xlink:href="#c16-63"/><use x="36657.0490214" xlink:href="#c16-7a"/><use x="37092.0490214" xlink:href="#c16-6f"/><use x="37618.0490214" xlink:href="#c16-6e"/><use x="38168.0490214" xlink:href="#c16-65"/><use x="38995.8074036" xlink:href="#c16-64"/><use x="39548.8074036" xlink:href="#c16-6f"/><use x="40412.5657857" xlink:href="#c16-61"/><use x="40910.5657857" xlink:href="#c16-6b"/><use x="41444.5657857" xlink:href="#c16-2d"/></g><g transform="translate(0,-29986.2718201)"><use x="9272.5" xlink:href="#c16-63"/><use x="9742.5" xlink:href="#c16-79"/><use x="10267.5" xlink:href="#c16-64"/><use x="10820.5" xlink:href="#c16-65"/><use x="11310.5" xlink:href="#c16-6e"/><use x="11860.5" xlink:href="#c16-73"/><use x="12272.5" xlink:href="#c16-f3"/><use x="12768.4986776" xlink:href="#c16-77"/><use x="14023.1909078" xlink:href="#c16-6f"/><use x="14549.1909078" xlink:href="#c16-72"/><use x="14953.1909078" xlink:href="#c16-61"/><use x="15451.1909078" xlink:href="#c16-7a"/><use x="16355.8844096" xlink:href="#c16-6a"/><use x="16583.8844096" xlink:href="#c16-61"/><use x="17081.8844096" xlink:href="#c16-6b"/><use x="17585.8830872" xlink:href="#c16-6f"/><use x="18581.5753174" xlink:href="#c16-63"/><use x="19051.5753174" xlink:href="#c16-7a"/><use x="19486.5753174" xlink:href="#c16-63"/><use x="19956.5753174" xlink:href="#c16-69"/><use x="20224.5753174" xlink:href="#c16-6f"/><use x="20750.5753174" xlink:href="#c16-6e"/><use x="21300.5753174" xlink:href="#c16-6b"/><use x="21804.573995" xlink:href="#c16-61"/><use x="22772.2662252" xlink:href="#c16-74"/><use x="23062.2662252" xlink:href="#c16-79"/><use x="23587.2662252" xlink:href="#c16-74"/><use x="23877.2662252" xlink:href="#c16-75"/><use x="24442.2662252" xlink:href="#c16-aa"/><use x="24778.2662252" xlink:href="#c16-6f"/><use x="25274.2649028" xlink:href="#c16-77"/><use x="26059.2649028" xlink:href="#c16-61"/><use x="26557.2649028" xlink:href="#c16-2e"/><use x="27640.7868856" xlink:href="#c16-4e"/><use x="28395.7868856" xlink:href="#c16-69"/><use x="28663.7868856" xlink:href="#c16-65"/><use x="29153.7868856" xlink:href="#c16-6d"/><use x="29985.7868856" xlink:href="#c16-6e"/><use x="30535.7868856" xlink:href="#c16-69"/><use x="30803.7868856" xlink:href="#c16-65"/><use x="31293.7868856" xlink:href="#c16-6a"/><use x="31991.4791158" xlink:href="#c16-6a"/><use x="32219.4791158" xlink:href="#c16-65"/><use x="32709.4791158" xlink:href="#c16-64"/><use x="33262.4791158" xlink:href="#c16-6e"/><use x="33812.4791158" xlink:href="#c16-61"/><use x="34310.4791158" xlink:href="#c16-6b"/><use x="35314.171346" xlink:href="#c16-6b"/><use x="35848.171346" xlink:href="#c16-72"/><use x="36252.171346" xlink:href="#c16-f3"/><use x="36778.171346" xlink:href="#c16-6a"/><use x="37475.8648478" xlink:href="#c16-74"/><use x="37765.8648478" xlink:href="#c16-65"/><use x="38255.8648478" xlink:href="#c16-6e"/><use x="39275.557078" xlink:href="#c16-7a"/><use x="39710.557078" xlink:href="#c16-6f"/><use x="40236.557078" xlink:href="#c16-73"/><use x="40648.557078" xlink:href="#c16-74"/><use x="40938.557078" xlink:href="#c16-61"/><use x="41436.557078" xlink:href="#c16-aa"/></g><g transform="translate(0,-31194.6051534)"><use x="9272.5" xlink:href="#c16-75"/><use x="9837.5" xlink:href="#c16-bb"/><use x="10272.5" xlink:href="#c16-79"/><use x="10797.5" xlink:href="#c16-74"/><use x="11087.5" xlink:href="#c16-79"/><use x="11998.5791524" xlink:href="#c16-77"/><use x="13169.6583049" xlink:href="#c16-77"/><use x="13984.6583557" xlink:href="#c16-79"/><use x="14509.6583557" xlink:href="#c16-72"/><use x="14913.6583557" xlink:href="#c16-61"/><use x="15411.6583557" xlink:href="#c16-7a"/><use x="15846.6583557" xlink:href="#c16-69"/><use x="16114.6583557" xlink:href="#c16-65"/><use x="16990.7375081" xlink:href="#c16-68"/><use x="17555.7375081" xlink:href="#c16-6f"/><use x="18081.7375081" xlink:href="#c16-aa"/><use x="18417.7375081" xlink:href="#c16-64"/><use x="18970.7375081" xlink:href="#c16-75"/><use x="19921.8166606" xlink:href="#c16-64"/><use x="20474.8166606" xlink:href="#c16-6c"/><use x="20742.8166606" xlink:href="#c16-61"/><use x="21626.895813" xlink:href="#c16-6a"/><use x="21854.895813" xlink:href="#c16-65"/><use x="22344.895813" xlink:href="#c16-67"/><use x="22844.895813" xlink:href="#c16-6f"/><use x="23756.9749654" xlink:href="#c16-74"/><use x="24046.9749654" xlink:href="#c16-77"/><use x="24831.9749654" xlink:href="#c16-f3"/><use x="25357.9749654" xlink:href="#c16-72"/><use x="25761.9749654" xlink:href="#c16-63"/><use x="26231.9749654" xlink:href="#c16-79"/><use x="26756.9749654" xlink:href="#c16-2c"/><use x="27386.2415263" xlink:href="#c16-6a"/><use x="27614.2415263" xlink:href="#c16-61"/><use x="28112.2415263" xlink:href="#c16-6b"/><use x="28616.2402039" xlink:href="#c16-6f"/><use x="29528.3193563" xlink:href="#c16-6a"/><use x="29756.3193563" xlink:href="#c16-65"/><use x="30246.3193563" xlink:href="#c16-64"/><use x="30799.3193563" xlink:href="#c16-65"/><use x="31289.3193563" xlink:href="#c16-6e"/><use x="32225.3985087" xlink:href="#c16-7a"/><use x="33046.4776611" xlink:href="#c16-70"/><use x="33629.477712" xlink:href="#c16-6f"/><use x="34185.4777629" xlink:href="#c16-64"/><use x="34738.4777629" xlink:href="#c16-73"/><use x="35150.4777629" xlink:href="#c16-74"/><use x="35440.4777629" xlink:href="#c16-61"/><use x="35938.4777629" xlink:href="#c16-77"/><use x="36723.4777629" xlink:href="#c16-6f"/><use x="37219.4764404" xlink:href="#c16-77"/><use x="38034.4764913" xlink:href="#c16-79"/><use x="38559.4764913" xlink:href="#c16-63"/><use x="39029.4764913" xlink:href="#c16-68"/><use x="39980.5556437" xlink:href="#c16-6b"/><use x="40514.5556437" xlink:href="#c16-72"/><use x="40918.5556437" xlink:href="#c16-6f"/><use x="41444.5556437" xlink:href="#c16-2d"/></g><g transform="translate(0,-32402.9384867)"><use x="9272.5" xlink:href="#c16-6a"/><use x="9500.5" xlink:href="#c16-f3"/><use x="9996.49867757" xlink:href="#c16-77"/><use x="11157.5591634" xlink:href="#c16-70"/><use x="11710.5591634" xlink:href="#c16-69"/><use x="11978.5591634" xlink:href="#c16-73"/><use x="12390.5591634" xlink:href="#c16-6d"/><use x="13222.5591634" xlink:href="#c16-61"/><use x="14096.6196493" xlink:href="#c16-77"/><use x="15257.6801351" xlink:href="#c16-7a"/><use x="15692.6801351" xlink:href="#c16-6e"/><use x="16242.6801351" xlink:href="#c16-61"/><use x="16740.6801351" xlink:href="#c16-6d"/><use x="17572.6801351" xlink:href="#c16-69"/><use x="17840.6801351" xlink:href="#c16-65"/><use x="18330.6801351" xlink:href="#c16-6e"/><use x="18880.6801351" xlink:href="#c16-6e"/><use x="19430.6801351" xlink:href="#c16-65"/><use x="19920.6801351" xlink:href="#c16-6a"/><use x="20524.7406209" xlink:href="#c16-6b"/><use x="21058.7406209" xlink:href="#c16-73"/><use x="21470.7406209" xlink:href="#c16-69"/><use x="21738.7406209" xlink:href="#c16-a1"/><use x="22246.7406209" xlink:href="#c16-bb"/><use x="22681.7406209" xlink:href="#c16-63"/><use x="23151.7406209" xlink:href="#c16-65"/><use x="24017.8023783" xlink:href="#c16-52"/><use x="24672.8023783" xlink:href="#c16-6f"/><use x="25198.8023783" xlink:href="#c16-62"/><use x="25791.8024292" xlink:href="#c16-65"/><use x="26281.8024292" xlink:href="#c16-72"/><use x="26685.8024292" xlink:href="#c16-74"/><use x="26975.8024292" xlink:href="#c16-61"/><use x="27849.862915" xlink:href="#c16-43"/><use x="28505.862915" xlink:href="#c16-68"/><use x="29070.862915" xlink:href="#c16-77"/><use x="29855.862915" xlink:href="#c16-61"/><use x="30353.862915" xlink:href="#c16-aa"/><use x="30689.862915" xlink:href="#c16-6f"/><use x="31185.8615926" xlink:href="#c16-77"/><use x="31970.8615926" xlink:href="#c16-73"/><use x="32382.8615926" xlink:href="#c16-6b"/><use x="32916.8615926" xlink:href="#c16-69"/><use x="33184.8615926" xlink:href="#c16-65"/><use x="33674.8615926" xlink:href="#c16-67"/><use x="34174.8615926" xlink:href="#c16-6f"/><use x="35076.9220785" xlink:href="#c16-70"/><use x="35629.9220785" xlink:href="#c16-74"/><use x="35919.9220785" xlink:href="#c16-2e"/><use x="36722.5475566" xlink:href="#c16-ff"/><use x="37000.5473531" xlink:href="#c16-54"/><use x="37680.5473531" xlink:href="#c16-79"/><use x="38205.5473531" xlink:href="#c16-70"/><use x="38788.547404" xlink:href="#c16-6f"/><use x="39344.5474548" xlink:href="#c16-67"/><use x="39844.5474548" xlink:href="#c16-72"/><use x="40248.5474548" xlink:href="#c16-61"/><use x="40746.5474548" xlink:href="#c16-0c"/><use x="41274.5474548" xlink:href="#c16-61"/></g><g transform="translate(0,-33611.2718201)"><use x="9272.5" xlink:href="#c16-74"/><use x="9562.5" xlink:href="#c16-79"/><use x="10087.5" xlink:href="#c16-70"/><use x="10670.5000509" xlink:href="#c16-6f"/><use x="11166.4987284" xlink:href="#c16-77"/><use x="11951.4987284" xlink:href="#c16-65"/><use x="12441.4987284" xlink:href="#c16-6a"/><use x="13002.8320618" xlink:href="#c16-6b"/><use x="13536.8320618" xlink:href="#c16-73"/><use x="13948.8320618" xlink:href="#c16-69"/><use x="14216.8320618" xlink:href="#c16-a1"/><use x="14724.8320618" xlink:href="#c16-bb"/><use x="15159.8320618" xlink:href="#c16-6b"/><use x="15693.8320618" xlink:href="#c16-69"/><use x="15961.8320618" xlink:href="#c16-22"/><use x="16693.1653951" xlink:href="#c16-28"/><use x="16978.1653951" xlink:href="#c16-49"/><use x="17639.4987284" xlink:href="#c16-77"/><use x="18454.4987793" xlink:href="#c16-79"/><use x="18979.4987793" xlink:href="#c16-64"/><use x="19532.4987793" xlink:href="#c16-2e"/><use x="20206.9427999" xlink:href="#c16-32"/><use x="20686.9427999" xlink:href="#c16-30"/><use x="21166.9427999" xlink:href="#c16-30"/><use x="21646.9427999" xlink:href="#c16-32"/><use x="22460.2761332" xlink:href="#c16-72"/><use x="22864.2761332" xlink:href="#c16-2e"/><use x="23094.2761332" xlink:href="#c16-29"/><use x="23379.2761332" xlink:href="#c16-2e"/></g><g transform="translate(0,-34819.6051534)"><use x="10741.2347412" xlink:href="#c18-4a"/><use x="11254.2334188" xlink:href="#c18-61"/><use x="11809.2334188" xlink:href="#c18-6e"/><use x="12406.2320964" xlink:href="#c18-75"/><use x="13046.2320964" xlink:href="#c18-73"/><use x="13507.2320964" xlink:href="#c18-7a"/><use x="14269.9026998" xlink:href="#c18-4d"/><use x="15179.9026998" xlink:href="#c18-2e"/><use x="15719.5745748" xlink:href="#c18-4e"/><use x="16553.5745748" xlink:href="#c18-6f"/><use x="17115.5732524" xlink:href="#c18-77"/><use x="18001.5732524" xlink:href="#c18-61"/><use x="18556.5732524" xlink:href="#c18-63"/><use x="19100.5732524" xlink:href="#c18-6b"/><use x="19709.5732524" xlink:href="#c18-69"/><use x="20043.5732524" xlink:href="#c16-2c"/><use x="20551.1764018" xlink:href="#c18-42"/><use x="21236.1764018" xlink:href="#c18-6f"/><use x="21858.1764526" xlink:href="#c18-67"/><use x="22428.1764526" xlink:href="#c18-75"/><use x="23068.1764526" xlink:href="#c18-73"/><use x="23529.1764526" xlink:href="#c18-aa"/><use x="23951.1764526" xlink:href="#c18-61"/><use x="24506.1764526" xlink:href="#c18-77"/><use x="25655.8483276" xlink:href="#c18-4a"/><use x="26168.8470052" xlink:href="#c18-61"/><use x="26723.8470052" xlink:href="#c18-63"/><use x="27267.8470052" xlink:href="#c18-6b"/><use x="27846.8456828" xlink:href="#c18-6f"/><use x="28408.8443604" xlink:href="#c18-77"/><use x="29294.8443604" xlink:href="#c18-73"/><use x="29755.8443604" xlink:href="#c18-6b"/><use x="30364.8443604" xlink:href="#c18-69"/><use x="30962.5149638" xlink:href="#c16-69"/><use x="31494.1855672" xlink:href="#c18-50"/><use x="32129.1855672" xlink:href="#c18-69"/><use x="32463.1855672" xlink:href="#c18-6f"/><use x="33055.1855672" xlink:href="#c18-74"/><use x="33418.1855672" xlink:href="#c18-72"/><use x="34165.8574422" xlink:href="#c18-53"/><use x="34771.8574422" xlink:href="#c18-74"/><use x="35134.8574422" xlink:href="#c18-72"/><use x="35618.8574422" xlink:href="#c18-7a"/><use x="36117.8574422" xlink:href="#c18-65"/><use x="36671.8574422" xlink:href="#c18-6c"/><use x="37005.8574422" xlink:href="#c18-63"/><use x="37549.8574422" xlink:href="#c18-7a"/><use x="38048.8574422" xlink:href="#c18-79"/><use x="38654.8574422" xlink:href="#c18-6b"/><use x="39527.5280457" xlink:href="#c16-70"/><use x="40080.5280457" xlink:href="#c16-72"/><use x="40484.5280457" xlink:href="#c16-7a"/><use x="40919.5280457" xlink:href="#c16-79"/><use x="41444.5280457" xlink:href="#c16-2d"/></g><g transform="translate(0,-36027.9384867)"><use x="9272.5" xlink:href="#c16-67"/><use x="9772.5" xlink:href="#c16-6f"/><use x="10298.5" xlink:href="#c16-74"/><use x="10588.5" xlink:href="#c16-6f"/><use x="11084.4986776" xlink:href="#c16-77"/><use x="11869.4986776" xlink:href="#c16-61"/><use x="12367.4986776" xlink:href="#c16-6c"/><use x="12635.4986776" xlink:href="#c16-69"/><use x="13402.6454569" xlink:href="#c16-65"/><use x="13892.6454569" xlink:href="#c16-6c"/><use x="14160.6454569" xlink:href="#c16-65"/><use x="14650.6454569" xlink:href="#c16-6b"/><use x="15184.6454569" xlink:href="#c16-74"/><use x="15474.6454569" xlink:href="#c16-72"/><use x="15878.6454569" xlink:href="#c16-6f"/><use x="16404.6454569" xlink:href="#c16-6e"/><use x="16954.6454569" xlink:href="#c16-69"/><use x="17222.6454569" xlink:href="#c16-63"/><use x="17692.6454569" xlink:href="#c16-7a"/><use x="18127.6454569" xlink:href="#c16-6e"/><use x="18677.6454569" xlink:href="#c16-a1"/><use x="19684.7935079" xlink:href="#c16-77"/><use x="20469.7935079" xlink:href="#c16-65"/><use x="20959.7935079" xlink:href="#c16-72"/><use x="21363.7935079" xlink:href="#c16-73"/><use x="21775.7935079" xlink:href="#c16-6a"/><use x="22003.7935079" xlink:href="#c16-a6"/><use x="23002.9402873" xlink:href="#c16-74"/><use x="23292.9402873" xlink:href="#c16-65"/><use x="23782.9402873" xlink:href="#c16-67"/><use x="24282.9402873" xlink:href="#c16-6f"/><use x="25308.0870667" xlink:href="#c16-6b"/><use x="25842.0870667" xlink:href="#c16-72"/><use x="26246.0870667" xlink:href="#c16-6f"/><use x="26772.0870667" xlink:href="#c16-6a"/><use x="27000.0870667" xlink:href="#c16-75"/><use x="28064.233846" xlink:href="#c16-70"/><use x="28617.233846" xlink:href="#c16-69"/><use x="28885.233846" xlink:href="#c16-73"/><use x="29297.233846" xlink:href="#c16-6d"/><use x="30129.233846" xlink:href="#c16-61"/><use x="30627.233846" xlink:href="#c16-2e"/><use x="31799.1194763" xlink:href="#c16-46"/><use x="32310.1181539" xlink:href="#c16-6f"/><use x="32836.1181539" xlink:href="#c16-6e"/><use x="33356.1168315" xlink:href="#c16-74"/><use x="34145.2636108" xlink:href="#c16-74"/><use x="34435.2636108" xlink:href="#c16-65"/><use x="34925.2636108" xlink:href="#c16-6e"/><use x="35974.4116618" xlink:href="#c16-64"/><use x="36527.4116618" xlink:href="#c16-6f"/><use x="37053.4116618" xlink:href="#c16-73"/><use x="37465.4116618" xlink:href="#c16-74"/><use x="37755.4116618" xlink:href="#c16-a6"/><use x="38255.4116618" xlink:href="#c16-70"/><use x="38808.4116618" xlink:href="#c16-6e"/><use x="39328.4103394" xlink:href="#c16-79"/><use x="40352.5571187" xlink:href="#c16-6a"/><use x="40580.5571187" xlink:href="#c16-65"/><use x="41070.5571187" xlink:href="#c16-73"/><use x="41482.5571187" xlink:href="#c16-74"/></g><g transform="translate(0,-37236.2718201)"><use x="9272.5" xlink:href="#c16-62"/><use x="9865.50005086" xlink:href="#c16-65"/><use x="10355.5000509" xlink:href="#c16-7a"/><use x="10790.5000509" xlink:href="#c16-70"/><use x="11343.5000509" xlink:href="#c16-aa"/><use x="11679.5000509" xlink:href="#c16-61"/><use x="12177.5000509" xlink:href="#c16-74"/><use x="12467.5000509" xlink:href="#c16-6e"/><use x="13017.5000509" xlink:href="#c16-69"/><use x="13285.5000509" xlink:href="#c16-65"/><use x="14108.8333842" xlink:href="#c16-6e"/><use x="14658.8333842" xlink:href="#c16-61"/><use x="15490.1667175" xlink:href="#c16-77"/><use x="16275.1667175" xlink:href="#c16-61"/><use x="16773.1667175" xlink:href="#c16-72"/><use x="17177.1667175" xlink:href="#c16-75"/><use x="17742.1667175" xlink:href="#c16-6e"/><use x="18292.1667175" xlink:href="#c16-6b"/><use x="18796.1653951" xlink:href="#c16-61"/><use x="19294.1653951" xlink:href="#c16-63"/><use x="19764.1653951" xlink:href="#c16-68"/><use x="20662.4987284" xlink:href="#c16-6c"/><use x="20930.4987284" xlink:href="#c16-69"/><use x="21198.4987284" xlink:href="#c16-63"/><use x="21668.4987284" xlink:href="#c16-65"/><use x="22158.4987284" xlink:href="#c16-6e"/><use x="22708.4987284" xlink:href="#c16-63"/><use x="23178.4987284" xlink:href="#c16-6a"/><use x="23406.4987284" xlink:href="#c16-69"/><use x="24007.8320618" xlink:href="#c20-47"/><use x="24521.8320618" xlink:href="#c20-4e"/><use x="25035.8320618" xlink:href="#c20-55"/><use x="26064.4156494" xlink:href="#c20-47"/><use x="26578.4156494" xlink:href="#c20-65"/><use x="27092.4156494" xlink:href="#c20-6e"/><use x="27606.4156494" xlink:href="#c20-65"/><use x="28120.4156494" xlink:href="#c20-72"/><use x="28634.4156494" xlink:href="#c20-61"/><use x="29148.4156494" xlink:href="#c20-6c"/><use x="30176.9992371" xlink:href="#c20-50"/><use x="30690.9992371" xlink:href="#c20-75"/><use x="31204.9992371" xlink:href="#c20-62"/><use x="31718.9992371" xlink:href="#c20-6c"/><use x="32232.9992371" xlink:href="#c20-69"/><use x="32746.9992371" xlink:href="#c20-63"/><use x="33775.5828247" xlink:href="#c20-4c"/><use x="34289.5828247" xlink:href="#c20-69"/><use x="34803.5828247" xlink:href="#c20-63"/><use x="35317.5828247" xlink:href="#c20-65"/><use x="35831.5828247" xlink:href="#c20-6e"/><use x="36345.5828247" xlink:href="#c20-73"/><use x="36859.5828247" xlink:href="#c20-65"/><use x="37373.5828247" xlink:href="#c16-2e"/></g><g transform="translate(0,-58730.8333333)"><use x="25282.5008647" xlink:href="#c16-31"/></g></g></g></svg>