<?xml version="1.0" ?><!DOCTYPE svg  PUBLIC '-//W3C//DTD SVG 1.1//EN'  'http://www.w3.org/Graphics/SVG/1.1/DTD/svg11.dtd'><svg height="297mm" width="210mm" xmlns="http://www.w3.org/2000/svg" xmlns:xlink="http://www.w3.org/1999/xlink"><defs><path d="M280 265l134 -195c28 -41 59 -41 86 -41v-29c-43 2 -45 2 -88 2c-27 0 -76 0 -101 -2v29c21 0 35 5 35 23c0 14 -7 25 -22 46l-96 138l-64 -56v-106c0 -45 12 -45 76 -45v-29c-28 2 -76 2 -106 2s-78 0 -106 -2v29c65 0 76 0 76 45v524c0 49 -8 56 -76 56v29l139 11v-482 l143 126c1 0 21 18 21 38c0 16 -12 25 -29 26v29c23 -2 74 -2 100 -2c30 0 56 0 76 2v-29c-21 -1 -65 -2 -134 -62c-8 -8 -71 -62 -71 -65c0 -1 7 -9 7 -10z" id="c14-6b"/><path d="M414 -93h-314c-14 0 -45 0 -45 33c0 32 32 32 45 32h314c14 0 45 0 45 -33c0 -32 -32 -32 -45 -32z" id="c28-5f"/><path d="M245 -165v-29c-26 2 -80 2 -109 2c-28 0 -82 0 -108 -2v29c65 0 76 0 76 45v470c0 44 -6 51 -76 51v29l139 11v-67c3 4 50 67 138 67c109 0 203 -98 203 -225c0 -129 -101 -226 -216 -226c-64 0 -105 39 -123 64v-174c0 -45 12 -45 76 -45zM169 319v-206 c0 -28 15 -48 38 -71c20 -19 49 -32 80 -32c77 0 145 87 145 206c0 112 -60 203 -135 203c-38 0 -87 -19 -117 -64c-11 -16 -11 -17 -11 -36z" id="c14-70"/><path d="M208 417l110 -28c39 -10 84 -21 121 -66c27 -33 50 -78 50 -139c0 -110 -81 -205 -193 -205c-86 0 -149 34 -185 74c-8 -15 -29 -52 -33 -60c-7 -12 -8 -14 -14 -14c-10 0 -10 5 -10 23v202c0 18 0 23 11 23c2 0 10 0 11 -8c1 -33 5 -105 63 -157c49 -43 111 -54 156 -54 c83 0 136 71 136 146c0 56 -31 110 -78 133c-14 6 -69 20 -104 28c-71 18 -106 27 -141 66c-37 40 -54 84 -54 132c0 102 81 191 192 191c44 0 110 -12 158 -74l33 61c7 13 11 13 14 13c10 0 10 -5 10 -23v-202c0 -18 0 -23 -11 -23c-10 0 -10 4 -12 16 c-6 43 -28 205 -192 205c-78 0 -134 -63 -134 -133c0 -64 45 -114 96 -127z" id="c14-53"/><path d="M405 334l-173 -426c-26 -63 -67 -112 -123 -112c-53 0 -90 37 -90 75c0 29 21 39 38 39c18 0 37 -13 37 -37c0 -35 -35 -39 -35 -39s19 -18 50 -18c45 0 72 38 89 68c4 8 4 10 48 116l-149 366c-13 31 -21 36 -79 36v29c57 -2 59 -2 97 -2c28 0 77 0 103 2v-29 c-20 0 -55 0 -55 -26c0 -1 0 -7 6 -21l111 -272l102 252c4 10 6 15 6 24c0 18 -9 41 -46 43v29c56 -2 58 -2 81 -2c32 0 46 0 75 2v-29c-19 0 -66 -1 -93 -68z" id="c14-79"/><path d="M440 168l-26 -168h-365v24l202 226c57 64 106 138 106 223c0 92 -52 163 -137 163c-65 0 -119 -46 -138 -114c3 1 5 1 14 1c28 0 47 -19 47 -47c0 -32 -26 -47 -47 -47c-3 0 -47 0 -47 51c0 86 68 185 184 185s207 -77 207 -192c0 -99 -56 -151 -208 -291 c-26 -24 -87 -88 -114 -111h185c30 0 87 0 94 9c10 16 18 71 21 88h22z" id="c14-32"/><path d="M119 181c-10 -14 -16 -31 -16 -48c0 -21 9 -40 19 -50c18 -19 25 -19 86 -19c86 0 136 0 187 -26c60 -31 67 -90 67 -115c0 -75 -99 -128 -218 -128c-123 0 -217 57 -217 126c0 52 46 88 92 101c-8 5 -43 30 -43 88c0 39 18 68 30 83c-10 9 -45 46 -45 103 c0 77 67 145 157 145c38 0 73 -13 103 -36c14 15 53 47 105 47c35 0 49 -28 49 -46c0 -22 -18 -27 -26 -27c-16 0 -26 12 -26 26c0 11 5 21 15 25c-4 2 -9 2 -13 2c-5 0 -52 0 -91 -40c32 -32 40 -70 40 -97c0 -77 -67 -145 -157 -145c-11 0 -51 0 -98 31zM218 171 c21 0 51 10 70 39c17 27 17 68 17 86c0 23 0 124 -88 124c-21 0 -51 -10 -70 -39c-17 -27 -17 -68 -17 -86c0 -23 0 -124 88 -124zM245 -184c92 0 168 47 168 106c0 87 -113 87 -196 87c-70 0 -79 0 -101 -14c-38 -26 -40 -65 -40 -73c0 -57 73 -106 169 -106z" id="c14-67"/><path d="M391 384l214 -320c23 -35 47 -35 106 -35v-29c-24 2 -95 2 -123 2c-29 0 -107 0 -131 -2v29c39 1 57 18 57 30c0 4 -1 5 -7 14l-162 242l-147 -215c-6 -9 -11 -16 -11 -27c0 -17 13 -42 55 -44v-29c-23 2 -88 2 -115 2c-51 0 -62 0 -105 -2v29c90 1 122 41 139 66 l168 245l-187 277c-21 32 -31 37 -106 37v29c24 -2 94 -2 122 -2c29 0 108 0 132 2v-29c-36 0 -57 -16 -57 -30c0 -5 4 -12 7 -16l135 -200l120 176c6 9 10 15 10 26c0 17 -13 41 -54 44v29c23 -2 87 -2 114 -2c51 0 62 0 105 2v-29c-95 -1 -124 -45 -141 -69z" id="c14-58"/><path d="M571 681l26 -223h-22c-14 141 -43 194 -187 194h-125c-44 0 -46 -7 -46 -40v-257h88c94 0 104 33 104 117h22v-263h-22c0 84 -10 117 -104 117h-88v-249c0 -36 2 -48 89 -48h30v-29c-29 2 -117 2 -152 2c-30 0 -119 0 -143 -2v29h20c72 0 75 10 75 47v529 c0 37 -3 47 -75 47h-20v29h530z" id="c14-46"/><path d="M172 694v-620c0 -45 12 -45 76 -45v-29c-28 2 -78 2 -108 2s-79 0 -107 -2v29c65 0 76 0 76 45v524c0 49 -8 56 -76 56v29z" id="c14-6c"/><path d="M304 430l141 11v-356c0 -49 8 -56 76 -56v-29l-139 -10v90s-16 -38 -45 -61c-34 -29 -66 -29 -83 -29c-51 0 -92 12 -116 38c-30 33 -30 69 -30 131v150c0 89 0 92 -76 92v29l141 11v-331c0 -53 5 -100 87 -100c75 0 120 71 120 156v179c0 49 -8 56 -76 56v29z" id="c14-75"/><path d="M184 49c0 -28 -22 -49 -49 -49c-23 0 -48 19 -48 49c0 25 20 48 49 48c25 0 48 -21 48 -48z" id="c14-2e"/><path d="M362 370c-23 39 -78 54 -116 54c-50 0 -135 -41 -135 -207c0 -152 81 -205 142 -205c54 0 108 30 130 101c3 12 4 15 13 15c3 0 10 0 10 -9s-30 -129 -162 -129c-113 0 -209 98 -209 226c0 126 93 230 210 230c81 0 151 -48 151 -115c0 -29 -19 -43 -42 -43 c-24 0 -41 17 -41 41c0 41 37 41 49 41z" id="c14-63"/><path d="M653 678l18 -223h-22c-14 158 -23 194 -181 194c-19 0 -48 0 -56 -2c-16 -4 -18 -13 -18 -38v-532c0 -34 0 -48 98 -48h36v-29c-32 2 -136 2 -175 2s-142 0 -174 -2v29h36c98 0 98 14 98 48v532c0 23 -1 35 -21 38c-8 2 -36 2 -54 2c-158 0 -167 -36 -181 -194h-22 l18 223h600z" id="c14-54"/><path d="M43 683h349c131 0 218 -83 218 -169c0 -75 -69 -139 -164 -157c119 -13 192 -93 192 -174c0 -96 -90 -183 -219 -183h-376v29h20c72 0 75 10 75 47v531c0 37 -3 47 -75 47h-20v29zM214 365h145c111 0 163 83 163 149c0 54 -36 140 -136 140h-126c-44 0 -46 -7 -46 -40 v-249zM260 29h128c98 0 159 74 159 155c0 77 -50 161 -146 161h-187v-276c0 -33 2 -40 46 -40z" id="c14-42"/><path d="M445 243v-184c1 -30 26 -30 76 -30v-29c-26 2 -80 2 -109 2c-28 0 -82 0 -108 -2v29c65 0 76 0 76 45v235c0 61 -14 112 -76 112s-131 -56 -131 -161v-186c0 -45 12 -45 76 -45v-29c-26 2 -80 2 -109 2c-28 0 -82 0 -108 -2v29c65 0 76 0 76 45v524c0 49 -8 56 -76 56v29 l139 11v-349h1c14 31 54 96 140 96c34 0 81 -6 110 -45c23 -32 23 -60 23 -153z" id="c14-68"/><path d="M418 570v-512h41c14 0 40 0 40 -29s-26 -29 -40 -29h-66c-40 0 -40 13 -40 55c-19 -22 -62 -61 -127 -61c-103 0 -189 98 -189 221c0 126 92 222 198 222c61 0 102 -34 118 -50v166h-41c-14 0 -40 0 -40 29s26 29 40 29h66c34 0 40 -10 40 -41zM353 190v78 c0 52 -47 111 -112 111c-71 0 -139 -68 -139 -164c0 -90 58 -163 130 -163c75 0 121 82 121 138z" id="c28-64"/><path d="M184 359l30 3c27 1 61 4 91 48c29 43 32 99 32 118c0 98 -65 113 -98 113c-5 0 -99 0 -137 -68c3 1 5 1 11 1c22 0 46 -14 46 -46c0 -30 -24 -45 -45 -45c-15 0 -46 8 -46 48c0 73 74 134 174 134c97 0 179 -58 179 -137c0 -78 -56 -151 -143 -176 c96 -17 170 -89 170 -181c0 -101 -88 -192 -207 -192c-111 0 -200 73 -200 162c0 38 26 52 50 52c28 0 49 -20 49 -49c0 -36 -29 -54 -61 -49c29 -66 111 -89 159 -89c49 0 117 35 117 166c0 96 -38 166 -123 166h-46c-18 0 -23 0 -23 10c0 9 4 10 21 11z" id="c14-33"/><path d="M300 683l139 11v-609c0 -49 8 -56 76 -56v-29l-141 -10v69c-14 -19 -58 -69 -134 -69c-110 0 -205 98 -205 225c0 128 100 226 216 226c61 0 104 -35 125 -64v221c0 49 -8 56 -76 56v29zM374 117v206c0 18 0 20 -12 37c-10 16 -45 61 -107 61c-50 0 -90 -31 -110 -62 c-22 -33 -34 -73 -34 -145c0 -194 108 -204 134 -204c50 0 91 29 115 64c14 22 14 25 14 43z" id="c14-64"/><path d="M717 243v-184c1 -30 26 -30 76 -30v-29c-26 2 -80 2 -109 2c-28 0 -82 0 -108 -2v29c65 0 76 0 76 45v235c0 61 -14 112 -76 112s-131 -56 -131 -161v-186c0 -45 12 -45 76 -45v-29c-26 2 -80 2 -109 2c-28 0 -82 0 -108 -2v29c65 0 76 0 76 45v235c0 61 -14 112 -76 112 s-131 -56 -131 -161v-186c0 -45 12 -45 76 -45v-29c-26 2 -80 2 -109 2c-28 0 -82 0 -108 -2v29c65 0 76 0 76 45v271c0 49 -8 56 -76 56v29l136 11v-103h1c8 20 46 103 143 103c63 0 117 -22 131 -99c16 39 58 99 141 99c34 0 81 -6 110 -45c23 -32 23 -60 23 -153z" id="c14-6d"/><path d="M247 373v-315h95c14 0 40 0 40 -29s-26 -29 -40 -29h-255c-14 0 -40 0 -40 29s26 29 40 29h95v315h-100c-14 0 -40 0 -40 29s27 29 41 29h99v54c0 89 80 132 156 132c15 0 91 0 91 -57c0 -28 -23 -40 -39 -40c-33 0 -41 37 -41 39c-32 0 -102 0 -102 -78v-50h121 c14 0 40 0 40 -29s-26 -29 -40 -29h-121z" id="c28-66"/><path d="M381 403l-276 -381h121c119 0 136 48 145 162h22l-16 -184h-326c-22 0 -24 0 -24 18l286 393h-116c-109 0 -128 -37 -134 -139h-22l11 159h314c17 0 24 0 24 -11c0 -4 0 -6 -9 -17z" id="c14-7a"/><path d="M216 373v-247c0 -24 0 -74 78 -74c23 0 80 10 81 70c0 21 0 43 32 43c33 0 33 -22 33 -42c0 -102 -99 -129 -153 -129c-72 0 -136 34 -136 127v252h-86c-14 0 -40 0 -40 29s27 29 41 29h85v82c0 18 0 41 33 41c32 0 32 -23 32 -41v-82h162c14 0 40 0 40 -29 s-26 -29 -40 -29h-162z" id="c28-74"/><path d="M652 681v-237c0 -20 0 -23 -14 -23c-12 0 -12 3 -14 15c-20 150 -112 239 -217 239c-72 0 -260 -44 -260 -333c0 -292 191 -334 261 -334c97 0 213 70 222 229c0 7 1 12 11 12c11 0 11 -6 11 -17c0 -110 -93 -253 -257 -253c-181 0 -341 156 -341 363 c0 204 158 362 341 362c72 0 140 -35 185 -91l49 79c6 10 7 12 13 12c10 0 10 -5 10 -23z" id="c14-43"/><path d="M174 616c0 -22 -18 -48 -49 -48c-24 0 -48 19 -48 49c0 27 22 48 48 48c28 0 49 -23 49 -49zM36 430l136 11v-368c0 -39 4 -44 69 -44v-29c-34 2 -92 2 -103 2c-29 0 -77 0 -105 -2v29c65 0 76 0 76 45v272c0 49 -9 55 -73 55v29z" id="c14-69"/><path d="M408 336l-130 -327c-7 -17 -13 -19 -20 -19c-12 0 -14 5 -19 19l-143 358c-12 31 -22 35 -78 35v29c61 -2 63 -2 96 -2c27 0 79 0 104 2v-29c-18 0 -56 0 -56 -26c0 -5 1 -5 6 -19l112 -282l102 258c5 12 7 17 7 26c0 11 -5 41 -47 43v29c46 -2 61 -2 82 -2 c31 0 45 0 74 2v-29c-64 -1 -81 -44 -90 -66z" id="c14-76"/><path d="M416 192h-293c11 -77 77 -140 160 -140c19 0 84 5 109 63c6 15 12 22 31 22c31 0 33 -22 33 -28c0 -26 -47 -115 -176 -115c-123 0 -224 98 -224 224c0 122 93 222 209 222c125 0 191 -94 191 -211c0 -37 -19 -37 -40 -37zM124 247h266c-4 50 -25 135 -125 135 c-63 0 -128 -50 -141 -135z" id="c28-65"/><path d="M448 320c0 -58 -2 -156 -38 -231c-29 -58 -79 -110 -166 -110c-52 0 -121 24 -160 100c-36 71 -43 144 -43 241c0 108 10 170 38 233c37 83 108 112 166 112c49 0 121 -22 162 -105c36 -76 41 -157 41 -240zM244 -1c35 0 98 19 117 129c11 61 11 137 11 204 c0 68 0 147 -13 204c-19 86 -77 109 -115 109c-43 0 -94 -31 -111 -98c-16 -59 -16 -133 -16 -215c0 -70 0 -146 11 -206c19 -109 84 -127 116 -127z" id="c14-30"/><path d="M383 232h-277v-19c0 -173 101 -201 143 -201s109 23 135 107c2 5 4 10 12 10c6 0 11 -4 11 -10c0 -21 -45 -129 -164 -129c-111 0 -213 97 -213 229c0 124 88 227 202 227c121 0 175 -94 175 -195c0 -19 -2 -19 -24 -19zM107 251h238c-1 34 -7 175 -114 175 c-28 0 -116 -18 -124 -175z" id="c14-65"/><path d="M42 683h350c166 0 301 -155 301 -348c0 -185 -134 -335 -301 -335h-350v29h20c72 0 75 10 75 47v531c0 37 -3 47 -75 47h-20v29zM262 29h105c84 0 144 41 177 83c57 74 58 168 58 224c0 40 0 141 -45 212c-41 66 -107 106 -190 106h-105c-44 0 -46 -7 -46 -40v-545 c0 -33 2 -40 46 -40z" id="c14-44"/><path d="M167 233v-157c0 -36 2 -47 75 -47h20v-29c-23 2 -94 2 -121 2c-30 0 -85 0 -113 -2v29c65 0 76 0 76 45v271c0 49 -8 56 -76 56v29l134 11v-111h1c6 19 35 111 120 111c43 0 70 -28 70 -58c0 -27 -20 -40 -40 -40c-16 0 -39 11 -39 40c0 27 16 33 24 37c-4 1 -6 1 -14 1 c-77 0 -117 -91 -117 -188z" id="c14-72"/><path d="M302 567c0 -25 -20 -45 -45 -45s-45 20 -45 45s20 45 45 45s45 -20 45 -45zM130 431h132c34 0 40 -10 40 -41v-332h99c14 0 40 0 40 -29s-26 -29 -40 -29h-278c-14 0 -41 0 -41 29s27 29 41 29h114v315h-107c-14 0 -40 0 -40 29s26 29 40 29z" id="c28-69"/><path d="M230 664l218 -570l218 569c8 19 9 20 31 20h155v-29h-20c-72 0 -75 -10 -75 -47v-531c0 -37 3 -47 75 -47h20v-29c-23 2 -103 2 -132 2s-109 0 -132 -2v29h20c72 0 75 10 75 47v578h-1l-243 -634c-6 -15 -8 -20 -17 -20c-10 0 -13 8 -17 19l-241 630h-1v-546 c0 -27 0 -74 95 -74v-29c-26 2 -79 2 -107 2s-81 0 -107 -2v29c95 0 95 47 95 74v504c0 37 -3 47 -75 47h-20v29h155c23 0 24 0 31 -19z" id="c14-4d"/><path d="M195 -4c0 -115 -76 -189 -85 -189c-5 0 -10 5 -10 10c0 4 1 6 5 9c44 46 70 106 70 170c0 5 0 19 -2 19c-1 0 -2 0 -5 -3c-6 -5 -17 -12 -32 -12c-30 0 -49 22 -49 49c0 26 19 48 48 48c39 0 60 -39 60 -101z" id="c14-2c"/><path d="M386 267v-175c0 -15 0 -68 38 -68c14 0 38 8 38 65v56h22v-56c0 -80 -58 -94 -79 -94c-43 0 -74 36 -78 83c-19 -48 -64 -88 -130 -88c-61 0 -153 25 -153 104c0 77 76 161 277 164v40c0 90 -59 128 -105 128c-40 0 -88 -18 -111 -60c15 0 51 0 51 -41 c0 -24 -17 -41 -41 -41c-23 0 -42 14 -42 43c0 65 63 119 145 119c44 0 89 -14 124 -46c44 -39 44 -79 44 -133zM321 141v99c-36 -2 -206 -14 -206 -146c0 -48 41 -84 90 -84c43 0 116 33 116 131z" id="c14-61"/><path d="M128 573v-207c26 28 70 53 127 53c105 0 185 -99 185 -218c0 -127 -99 -222 -212 -222c-111 0 -179 97 -179 182c0 39 26 48 44 48c25 0 44 -16 44 -44c0 -34 -27 -44 -44 -44c-5 0 -11 1 -16 3c18 -73 83 -118 149 -118c44 0 83 25 105 61c28 45 28 102 28 140 s-1 87 -18 126c-8 17 -34 66 -87 66c-50 0 -97 -24 -125 -65c-10 -12 -11 -13 -16 -13c-12 0 -12 6 -12 24v297c0 16 0 22 8 22c1 0 3 0 10 -3c19 -8 66 -28 132 -28c26 0 74 3 130 27c9 4 11 4 13 4c6 0 8 -5 8 -9c0 -14 -72 -97 -185 -97c-11 0 -46 1 -89 15z" id="c14-35"/><path d="M445 243v-184c1 -30 26 -30 76 -30v-29c-26 2 -80 2 -109 2c-28 0 -82 0 -108 -2v29c65 0 76 0 76 45v235c0 61 -14 112 -76 112s-131 -56 -131 -161v-186c0 -45 12 -45 76 -45v-29c-26 2 -80 2 -109 2c-28 0 -82 0 -108 -2v29c65 0 76 0 76 45v271c0 49 -8 56 -76 56v29 l136 11v-103h1c8 20 46 103 143 103c34 0 81 -6 110 -45c23 -32 23 -60 23 -153z" id="c14-6e"/><path d="M217 607v-531c0 -37 3 -47 78 -47h22v-29c-24 2 -111 2 -141 2s-116 0 -140 -2v29h22c75 0 78 10 78 47v531c0 37 -3 47 -78 47h-22v29c24 -2 111 -2 141 -2s116 0 140 2v-29h-22c-75 0 -78 -10 -78 -47z" id="c14-49"/><path d="M605 336l-115 -328c-4 -11 -7 -18 -18 -18c-9 0 -14 3 -19 19l-100 285l-100 -285c-5 -16 -10 -19 -19 -19c-11 0 -14 7 -18 18l-126 358c-11 32 -21 36 -72 36v29c63 -2 65 -2 93 -2c27 0 77 0 102 2v-29c-19 0 -58 0 -58 -27c0 -4 0 -6 5 -19l96 -272l85 244 c-7 20 -19 53 -24 59c-11 13 -24 15 -62 15v29c56 -2 58 -2 90 -2c29 0 70 0 98 2v-29c-21 0 -58 0 -58 -28c0 -3 0 -5 5 -17l100 -283l92 262c4 10 4 17 4 18c0 19 -12 46 -57 48v29c54 -2 56 -2 85 -2c31 0 49 0 74 2v-29c-17 -1 -61 -3 -83 -66z" id="c14-77"/><path d="M325 -243c0 -6 -5 -8 -9 -8c-11 0 -93 65 -152 185c-52 107 -66 226 -66 315c0 123 23 230 74 331c49 98 131 170 144 170c4 0 9 -2 9 -8c0 -3 0 -5 -10 -14c-116 -118 -163 -285 -163 -479c0 -204 56 -369 156 -470c17 -17 17 -19 17 -22z" id="c14-28"/><path d="M611 584l-223 -585c-7 -17 -8 -20 -22 -20s-16 5 -21 19l-234 616c-15 40 -31 40 -93 40v29c24 -2 92 -2 120 -2c29 0 105 0 129 2v-29c-25 0 -75 0 -75 -29c0 -2 0 -4 5 -15l197 -520l187 493c6 14 6 16 6 22c0 20 -15 48 -66 49v29c25 -2 75 -2 102 -2c39 0 41 0 92 2 v-29c-78 -1 -95 -45 -104 -70z" id="c14-56"/><path d="M438 402v-326c0 -36 2 -47 75 -47h20v-29c-23 2 -94 2 -121 2c-30 0 -85 0 -113 -2v29c65 0 76 0 76 45v328h-208v-328c0 -45 12 -45 76 -45v-29c-28 2 -78 2 -108 2s-79 0 -107 -2v29c65 0 76 0 76 45v328h-78v29h78v115c0 106 112 158 208 158c27 0 83 -5 109 -42 c25 24 63 42 103 42c50 0 85 -30 85 -66c0 -24 -16 -40 -40 -40c-23 0 -39 16 -39 39c0 29 25 38 29 39c-6 3 -20 8 -35 8c-44 0 -88 -50 -88 -136v-117h116v-29h-114zM165 431h210v117c0 11 0 24 4 39c-15 6 -24 20 -24 37c0 15 8 34 35 39c-29 21 -73 21 -80 21 c-60 0 -145 -38 -145 -140v-113z" id="c14-0b"/><path d="M638 256l-40 -256h-557v29h20c72 0 75 10 75 47v529c0 37 -3 47 -75 47h-20v29h544l26 -223h-22c-15 144 -46 194 -193 194h-133c-44 0 -46 -7 -46 -40v-244h91c96 0 107 31 107 117h22v-263h-22c0 86 -11 117 -107 117h-91v-270c0 -33 2 -40 46 -40h136 c169 0 193 71 217 227h22z" id="c14-45"/><path d="M328 423v-104c0 -18 0 -23 -11 -23c-3 0 -10 0 -11 8c-2 31 -8 124 -117 124c-90 0 -111 -46 -111 -77c0 -60 73 -74 103 -80c66 -12 93 -18 129 -49c9 -9 42 -41 42 -95c0 -79 -52 -137 -157 -137c-17 0 -71 0 -109 47c-15 -16 -15 -18 -20 -25c-17 -21 -18 -22 -23 -22 c-10 0 -10 5 -10 23v136c0 18 0 23 11 23c3 0 7 0 9 -4c1 -1 1 -2 5 -20c22 -100 70 -138 136 -138c88 0 113 48 113 91c0 28 -13 50 -31 65c-25 20 -38 23 -93 34c-46 9 -80 16 -112 44c-38 35 -38 70 -38 81c0 55 36 121 157 121c32 0 63 -6 94 -31c7 9 26 31 34 31 c10 0 10 -5 10 -23z" id="c14-73"/><path d="M280 236l131 -173c24 -32 42 -34 95 -34v-29c-60 2 -62 2 -95 2c-28 0 -77 0 -103 -2v29c27 1 35 17 35 25c0 6 0 8 -17 30l-82 107c-24 -31 -57 -72 -72 -93c-10 -13 -17 -21 -17 -37c0 -14 4 -29 28 -32v-29c-50 2 -52 2 -90 2c-43 0 -45 0 -83 -2v29 c43 1 87 12 131 66c10 13 88 111 88 114s-4 9 -6 11l-117 153c-21 27 -40 29 -91 29v29c61 -2 63 -2 96 -2c27 0 78 0 103 2v-29c-30 -1 -35 -19 -35 -25c0 -7 6 -16 9 -20l78 -103l64 81c6 8 15 19 15 36c0 23 -16 29 -29 31v29c50 -2 52 -2 90 -2c39 0 41 0 84 2v-29 c-32 0 -79 -7 -120 -53c-19 -21 -61 -75 -90 -113z" id="c14-78"/><path d="M271 189h-260v54h260v-54z" id="c14-2d"/><path d="M172 402v-326c0 -36 2 -47 75 -47h20v-29c-23 2 -94 2 -121 2c-30 0 -85 0 -113 -2v29c65 0 76 0 76 45v328h-78v29h78v117c0 102 79 156 149 156c48 0 84 -29 84 -66c0 -24 -16 -40 -40 -40c-23 0 -39 16 -39 39c0 29 25 38 29 39c-12 6 -27 8 -35 8 c-41 0 -87 -46 -87 -136v-117h115v-29h-113z" id="c14-66"/><path d="M318 434l121 8v-368c0 -45 12 -45 76 -45v-29c-28 2 -78 2 -108 2s-79 0 -107 -2v29c65 0 76 0 76 45v274c0 41 -6 54 -52 54h-157v-328c0 -45 12 -45 76 -45v-29c-28 2 -78 2 -108 2s-79 0 -107 -2v29c65 0 76 0 76 45v328h-78v29h78v115c0 108 118 158 209 158 c77 0 124 -45 124 -96c0 -31 -24 -43 -42 -43c-17 0 -41 13 -41 42c0 11 3 42 45 42c-30 34 -78 35 -88 35c-59 0 -146 -38 -146 -140v-113h117c14 0 16 0 18 1s12 2 18 2z" id="c14-0c"/><path d="M387 696l218 -626c14 -41 32 -41 97 -41v-29c-23 2 -95 2 -123 2s-107 0 -130 -2v29c25 0 76 0 76 30c0 3 0 5 -5 17l-55 157h-252l-46 -133c-5 -13 -5 -15 -5 -21c0 -28 25 -49 67 -50v-29c-26 2 -74 2 -102 2c-33 0 -35 0 -96 -2v29c64 1 92 27 106 68l209 598 c5 16 7 19 21 19s16 -6 20 -18zM339 595l-116 -333h232z" id="c14-41"/><path d="M184 383c0 -28 -22 -49 -49 -49c-23 0 -48 19 -48 49c0 25 20 48 49 48c25 0 48 -21 48 -48zM184 49c0 -28 -22 -49 -49 -49c-23 0 -48 19 -48 49c0 25 20 48 49 48c25 0 48 -21 48 -48z" id="c14-3a"/><path d="M459 214c0 -126 -97 -224 -215 -224c-114 0 -214 96 -214 224c0 126 95 232 215 232c116 0 214 -103 214 -232zM245 12c38 0 84 19 112 67c26 47 26 109 26 144c0 37 0 100 -31 146c-27 39 -69 57 -108 57c-35 0 -79 -16 -107 -59c-31 -45 -31 -106 -31 -144 c0 -42 1 -101 28 -146c29 -49 74 -65 111 -65z" id="c14-6f"/><path d="M418 293v-235h41c14 0 40 0 40 -29s-26 -29 -40 -29h-147c-14 0 -40 0 -40 29s26 29 40 29h41v231c0 57 -12 90 -70 90c-54 0 -122 -43 -122 -140v-181h41c14 0 40 0 40 -29s-26 -29 -40 -29h-147c-14 0 -40 0 -40 29s26 29 40 29h41v315h-41c-14 0 -40 0 -40 29 s26 29 40 29h66c40 0 40 -14 40 -51c17 19 61 57 129 57c82 0 128 -46 128 -144z" id="c28-6e"/><path d="M168 402v-280c0 -17 0 -110 68 -110c39 0 68 42 68 114v55h22v-57c0 -72 -33 -134 -96 -134c-53 0 -127 23 -127 134v278h-85v20c91 3 127 99 128 193h22v-184h141v-29h-141z" id="c14-74"/><path d="M282 249c0 -120 -23 -228 -74 -330c-49 -98 -131 -170 -144 -170c-4 0 -9 2 -9 8c0 3 0 5 10 14c116 118 163 285 163 479c0 204 -56 369 -156 470c-17 17 -17 19 -17 22c0 6 5 8 9 8c11 0 93 -65 152 -185c56 -116 66 -240 66 -316z" id="c14-29"/><path d="M167 694v-320c34 42 81 67 136 67c111 0 205 -98 205 -225c0 -129 -101 -226 -216 -226c-64 0 -107 38 -130 75c-4 -7 -32 -57 -36 -65h-22v598c0 49 -8 56 -76 56v29zM169 320v-206c0 -17 0 -21 13 -42c17 -27 52 -62 106 -62c50 0 90 31 110 62c24 36 34 78 34 145 c0 192 -105 204 -135 204c-49 0 -93 -29 -117 -65c-11 -16 -11 -18 -11 -36z" id="c14-62"/><path d="M123 348v-27c10 28 43 105 132 105c100 0 193 -89 193 -222c0 -130 -93 -225 -202 -225c-85 0 -205 62 -205 337c0 220 132 349 258 349c87 0 125 -51 125 -103c0 -29 -17 -44 -42 -44c-26 0 -41 19 -41 41c0 41 38 41 50 41c-19 30 -55 41 -91 41 c-54 0 -177 -40 -177 -293zM246 6c40 0 76 17 101 65c19 38 19 83 19 134c0 43 0 93 -16 130c-15 34 -44 71 -99 71c-90 0 -126 -99 -126 -178c0 -70 10 -119 19 -145c9 -21 39 -77 102 -77z" id="c14-36"/></defs><g id="page0001" transform="scale(1.250000)"><g transform="scale(0.012,-0.012)"><g transform="translate(0,-11522.5)"><use x="9272.5" xlink:href="#c14-77"/><use x="9979.5" xlink:href="#c14-68"/><use x="10522.5" xlink:href="#c14-69"/><use x="10793.5" xlink:href="#c14-63"/><use x="11201.3012085" xlink:href="#c14-68"/><use x="12045.9293213" xlink:href="#c14-6d"/><use x="12833.7305298" xlink:href="#c14-75"/><use x="13376.7305298" xlink:href="#c14-73"/><use x="13762.7305298" xlink:href="#c14-74"/><use x="14444.3586426" xlink:href="#c14-62"/><use x="15014.5574341" xlink:href="#c14-65"/><use x="15751.1868184" xlink:href="#c14-74"/><use x="16131.1868184" xlink:href="#c14-68"/><use x="16674.1868184" xlink:href="#c14-65"/><use x="17410.8149312" xlink:href="#c14-0c"/><use x="17953.8149312" xlink:href="#c14-72"/><use x="18333.8149312" xlink:href="#c14-73"/><use x="18719.8149312" xlink:href="#c14-74"/><use x="19401.443044" xlink:href="#c14-6f"/><use x="19890.443044" xlink:href="#c14-70"/><use x="20460.6418355" xlink:href="#c14-63"/><use x="20895.6418355" xlink:href="#c14-6f"/><use x="21411.840627" xlink:href="#c14-64"/><use x="21954.840627" xlink:href="#c14-65"/><use x="22691.4687398" xlink:href="#c14-69"/><use x="22962.4687398" xlink:href="#c14-6e"/><use x="23807.0968526" xlink:href="#c14-74"/><use x="24187.0968526" xlink:href="#c14-68"/><use x="24730.0968526" xlink:href="#c14-65"/><use x="25466.7249654" xlink:href="#c14-44"/><use x="26186.5261739" xlink:href="#c14-56"/><use x="26920.5261739" xlink:href="#c14-49"/><use x="27575.130127" xlink:href="#c14-0c"/><use x="28118.130127" xlink:href="#c14-6c"/><use x="28389.130127" xlink:href="#c14-65"/><use x="28824.130127" xlink:href="#c14-29"/><use x="29204.130127" xlink:href="#c14-2c"/><use x="29781.7097168" xlink:href="#c14-74"/><use x="30161.7097168" xlink:href="#c14-61"/><use x="30650.7097168" xlink:href="#c14-6b"/><use x="31139.5109253" xlink:href="#c14-65"/><use x="31574.5109253" xlink:href="#c14-73"/><use x="32262.1390381" xlink:href="#c14-61"/><use x="32751.1390381" xlink:href="#c14-74"/><use x="33432.7684224" xlink:href="#c14-6c"/><use x="33703.7684224" xlink:href="#c14-65"/><use x="34138.7684224" xlink:href="#c14-61"/><use x="34627.7684224" xlink:href="#c14-73"/><use x="35013.7684224" xlink:href="#c14-74"/><use x="35695.3965352" xlink:href="#c14-66"/><use x="35994.3965352" xlink:href="#c14-6f"/><use x="36483.3965352" xlink:href="#c14-75"/><use x="37026.3965352" xlink:href="#c14-72"/><use x="37406.3965352" xlink:href="#c14-74"/><use x="37786.3965352" xlink:href="#c14-65"/><use x="38221.3965352" xlink:href="#c14-65"/><use x="38656.3965352" xlink:href="#c14-6e"/><use x="39501.024648" xlink:href="#c14-62"/><use x="40016.8258565" xlink:href="#c14-79"/><use x="40532.8258565" xlink:href="#c14-74"/><use x="40912.8258565" xlink:href="#c14-65"/><use x="41347.8258565" xlink:href="#c14-73"/></g><g transform="translate(0,-12730.8333333)"><use x="9272.5" xlink:href="#c14-6f"/><use x="9761.5" xlink:href="#c14-66"/><use x="10386.885498" xlink:href="#c14-70"/><use x="10929.885498" xlink:href="#c14-61"/><use x="11418.885498" xlink:href="#c14-72"/><use x="11798.885498" xlink:href="#c14-61"/><use x="12287.885498" xlink:href="#c14-6d"/><use x="13102.885498" xlink:href="#c14-65"/><use x="13537.885498" xlink:href="#c14-74"/><use x="13917.885498" xlink:href="#c14-65"/><use x="14352.885498" xlink:href="#c14-72"/><use x="14732.885498" xlink:href="#c14-73"/><use x="15118.885498" xlink:href="#c14-2c"/><use x="15716.2709961" xlink:href="#c14-70"/><use x="16259.2709961" xlink:href="#c14-6c"/><use x="16530.2709961" xlink:href="#c14-75"/><use x="17073.2709961" xlink:href="#c14-73"/><use x="17785.6564941" xlink:href="#c14-61"/><use x="18274.6564941" xlink:href="#c14-6e"/><use x="19144.0419922" xlink:href="#c14-6f"/><use x="19633.0419922" xlink:href="#c14-70"/><use x="20176.0419922" xlink:href="#c14-74"/><use x="20556.0419922" xlink:href="#c14-69"/><use x="20827.0419922" xlink:href="#c14-6f"/><use x="21316.0419922" xlink:href="#c14-6e"/><use x="21859.0419922" xlink:href="#c14-61"/><use x="22348.0419922" xlink:href="#c14-6c"/><use x="22945.4274902" xlink:href="#c14-63"/><use x="23380.4274902" xlink:href="#c14-6f"/><use x="23869.4274902" xlink:href="#c14-6d"/><use x="24684.4274902" xlink:href="#c14-6d"/><use x="25499.4274902" xlink:href="#c14-65"/><use x="25934.4274902" xlink:href="#c14-6e"/><use x="26450.2286987" xlink:href="#c14-74"/><use x="27156.6141968" xlink:href="#c14-6f"/><use x="27645.6141968" xlink:href="#c14-66"/><use x="28270.9996948" xlink:href="#c14-75"/><use x="28813.9996948" xlink:href="#c14-70"/><use x="29683.3851929" xlink:href="#c14-74"/><use x="30063.3851929" xlink:href="#c14-6f"/><use x="30878.7706909" xlink:href="#c14-32"/><use x="31367.7706909" xlink:href="#c14-35"/><use x="31856.7706909" xlink:href="#c14-35"/><use x="32672.156189" xlink:href="#c14-62"/><use x="33187.9573975" xlink:href="#c14-79"/><use x="33703.9573975" xlink:href="#c14-74"/><use x="34083.9573975" xlink:href="#c14-65"/><use x="34518.9573975" xlink:href="#c14-73"/><use x="34904.9573975" xlink:href="#c14-2e"/></g><g transform="translate(0,-13939.1666667)"><use x="10741.2347412" xlink:href="#c14-49"/><use x="11094.2347412" xlink:href="#c14-6e"/><use x="11964.0907186" xlink:href="#c14-61"/><use x="12779.946696" xlink:href="#c14-62"/><use x="13322.946696" xlink:href="#c14-72"/><use x="13702.946696" xlink:href="#c14-6f"/><use x="14191.946696" xlink:href="#c14-61"/><use x="14680.946696" xlink:href="#c14-64"/><use x="15223.946696" xlink:href="#c14-65"/><use x="15658.946696" xlink:href="#c14-72"/><use x="16365.8014018" xlink:href="#c14-73"/><use x="16751.8014018" xlink:href="#c14-65"/><use x="17186.8014018" xlink:href="#c14-6e"/><use x="17729.8014018" xlink:href="#c14-73"/><use x="18115.8014018" xlink:href="#c14-65"/><use x="18550.8014018" xlink:href="#c14-2c"/><use x="19148.7756348" xlink:href="#c14-61"/><use x="19964.6316121" xlink:href="#c14-44"/><use x="20684.4328206" xlink:href="#c14-56"/><use x="21418.4328206" xlink:href="#c14-49"/><use x="22098.2875264" xlink:href="#c14-0c"/><use x="22641.2875264" xlink:href="#c14-6c"/><use x="22912.2875264" xlink:href="#c14-65"/><use x="23674.1435038" xlink:href="#c14-63"/><use x="24109.1435038" xlink:href="#c14-6f"/><use x="24598.1435038" xlink:href="#c14-6e"/><use x="25141.1435038" xlink:href="#c14-73"/><use x="25527.1435038" xlink:href="#c14-69"/><use x="25798.1435038" xlink:href="#c14-73"/><use x="26184.1435038" xlink:href="#c14-74"/><use x="26564.1435038" xlink:href="#c14-73"/><use x="27276.9994812" xlink:href="#c14-6f"/><use x="27765.9994812" xlink:href="#c14-66"/><use x="28391.854187" xlink:href="#c14-61"/><use x="29207.7101644" xlink:href="#c14-70"/><use x="29750.7101644" xlink:href="#c14-72"/><use x="30130.7101644" xlink:href="#c14-65"/><use x="30565.7101644" xlink:href="#c14-61"/><use x="31054.7101644" xlink:href="#c14-6d"/><use x="31842.5113729" xlink:href="#c14-62"/><use x="32385.5113729" xlink:href="#c14-6c"/><use x="32656.5113729" xlink:href="#c14-65"/><use x="33091.5113729" xlink:href="#c14-2c"/><use x="33689.4856059" xlink:href="#c14-6f"/><use x="34178.4856059" xlink:href="#c14-6e"/><use x="34721.4856059" xlink:href="#c14-65"/><use x="35483.3403117" xlink:href="#c14-6f"/><use x="35972.3403117" xlink:href="#c14-72"/><use x="36679.1962891" xlink:href="#c14-6d"/><use x="37494.1962891" xlink:href="#c14-6f"/><use x="37983.1962891" xlink:href="#c14-72"/><use x="38363.1962891" xlink:href="#c14-65"/><use x="39125.0522664" xlink:href="#c14-70"/><use x="39668.0522664" xlink:href="#c14-61"/><use x="40157.0522664" xlink:href="#c14-67"/><use x="40646.0522664" xlink:href="#c14-65"/><use x="41081.0522664" xlink:href="#c14-73"/><use x="41467.0522664" xlink:href="#c14-2c"/></g><g transform="translate(0,-15147.5)"><use x="9272.5" xlink:href="#c14-61"/><use x="9761.5" xlink:href="#c14-6e"/><use x="10304.5" xlink:href="#c14-64"/><use x="11266.9564819" xlink:href="#c14-61"/><use x="12175.4116923" xlink:href="#c14-70"/><use x="12745.6104838" xlink:href="#c14-6f"/><use x="13234.6104838" xlink:href="#c14-73"/><use x="13620.6104838" xlink:href="#c14-74"/><use x="14000.6104838" xlink:href="#c14-61"/><use x="14489.6104838" xlink:href="#c14-6d"/><use x="15277.4116923" xlink:href="#c14-62"/><use x="15820.4116923" xlink:href="#c14-6c"/><use x="16091.4116923" xlink:href="#c14-65"/><use x="16526.4116923" xlink:href="#c14-2e"/><use x="17511.8040365" xlink:href="#c14-53"/><use x="18054.8040365" xlink:href="#c14-69"/><use x="18325.8040365" xlink:href="#c14-78"/><use x="19261.2592468" xlink:href="#c14-73"/><use x="19647.2592468" xlink:href="#c14-74"/><use x="20027.2592468" xlink:href="#c14-61"/><use x="20516.2592468" xlink:href="#c14-74"/><use x="20896.2592468" xlink:href="#c14-65"/><use x="21750.7157288" xlink:href="#c14-76"/><use x="22212.3181458" xlink:href="#c14-61"/><use x="22701.3181458" xlink:href="#c14-72"/><use x="23081.3181458" xlink:href="#c14-69"/><use x="23352.3181458" xlink:href="#c14-61"/><use x="23841.3181458" xlink:href="#c14-62"/><use x="24384.3181458" xlink:href="#c14-6c"/><use x="24655.3181458" xlink:href="#c14-65"/><use x="25090.3181458" xlink:href="#c14-73"/><use x="25895.7746277" xlink:href="#c14-61"/><use x="26384.7746277" xlink:href="#c14-72"/><use x="26764.7746277" xlink:href="#c14-65"/><use x="27619.2298381" xlink:href="#c14-6d"/><use x="28434.2298381" xlink:href="#c14-61"/><use x="28923.2298381" xlink:href="#c14-69"/><use x="29194.2298381" xlink:href="#c14-6e"/><use x="29710.0310465" xlink:href="#c14-74"/><use x="30090.0310465" xlink:href="#c14-61"/><use x="30579.0310465" xlink:href="#c14-69"/><use x="30850.0310465" xlink:href="#c14-6e"/><use x="31393.0310465" xlink:href="#c14-65"/><use x="31828.0310465" xlink:href="#c14-64"/><use x="32790.4875285" xlink:href="#c14-61"/><use x="33279.4875285" xlink:href="#c14-73"/><use x="34084.9427389" xlink:href="#c14-61"/><use x="34993.3992208" xlink:href="#c14-74"/><use x="35373.3992208" xlink:href="#c14-75"/><use x="35916.3992208" xlink:href="#c14-70"/><use x="36459.3992208" xlink:href="#c14-6c"/><use x="36730.3992208" xlink:href="#c14-65"/><use x="37584.8544312" xlink:href="#c14-6f"/><use x="38073.8544312" xlink:href="#c14-66"/><use x="38792.3109131" xlink:href="#c14-73"/><use x="39178.3109131" xlink:href="#c14-69"/><use x="39449.3109131" xlink:href="#c14-67"/><use x="39938.3109131" xlink:href="#c14-6e"/><use x="40481.3109131" xlink:href="#c14-65"/><use x="40916.3109131" xlink:href="#c14-64"/><use x="41459.3109131" xlink:href="#c14-2c"/></g><g transform="translate(0,-16355.8333333)"><use x="9272.5" xlink:href="#c14-33"/><use x="9761.5" xlink:href="#c14-32"/><use x="10250.5" xlink:href="#c14-2d"/><use x="10576.5" xlink:href="#c14-62"/><use x="11119.5" xlink:href="#c14-69"/><use x="11390.5" xlink:href="#c14-74"/><use x="12065.6469421" xlink:href="#c14-69"/><use x="12336.6469421" xlink:href="#c14-6e"/><use x="12852.4481506" xlink:href="#c14-74"/><use x="13232.4481506" xlink:href="#c14-65"/><use x="13667.4481506" xlink:href="#c14-67"/><use x="14156.4481506" xlink:href="#c14-65"/><use x="14591.4481506" xlink:href="#c14-72"/><use x="14971.4481506" xlink:href="#c14-73"/><use x="15357.4481506" xlink:href="#c14-3a"/><use x="16048.008901" xlink:href="#c14-28"/><use x="16428.008901" xlink:href="#c14-68"/><use x="16971.008901" xlink:href="#c14-2c"/><use x="17242.008901" xlink:href="#c14-76"/><use x="17758.008901" xlink:href="#c14-2c"/><use x="18029.008901" xlink:href="#c14-77"/><use x="18736.008901" xlink:href="#c14-2c"/><use x="19007.008901" xlink:href="#c14-78"/><use x="19523.008901" xlink:href="#c14-2c"/><use x="19794.008901" xlink:href="#c14-79"/><use x="20228.4125264" xlink:href="#c14-2c"/><use x="20499.4125264" xlink:href="#c14-7a"/><use x="20934.4125264" xlink:href="#c14-29"/><use x="21314.4125264" xlink:href="#c14-2e"/><use x="22010.1803385" xlink:href="#c14-68"/><use x="22848.3272807" xlink:href="#c14-61"/><use x="23337.3272807" xlink:href="#c14-6e"/><use x="23880.3272807" xlink:href="#c14-64"/><use x="24718.4742228" xlink:href="#c14-76"/><use x="25529.6198934" xlink:href="#c14-61"/><use x="26018.6198934" xlink:href="#c14-72"/><use x="26398.6198934" xlink:href="#c14-65"/><use x="27128.7668355" xlink:href="#c14-74"/><use x="27508.7668355" xlink:href="#c14-68"/><use x="28051.7668355" xlink:href="#c14-65"/><use x="28781.9137777" xlink:href="#c14-63"/><use x="29216.9137777" xlink:href="#c14-75"/><use x="29759.9137777" xlink:href="#c14-72"/><use x="30139.9137777" xlink:href="#c14-72"/><use x="30519.9137777" xlink:href="#c14-65"/><use x="30954.9137777" xlink:href="#c14-6e"/><use x="31470.7149862" xlink:href="#c14-74"/><use x="32145.8619283" xlink:href="#c14-68"/><use x="32688.8619283" xlink:href="#c14-6f"/><use x="33177.8619283" xlink:href="#c14-72"/><use x="33557.8619283" xlink:href="#c14-69"/><use x="33828.8619283" xlink:href="#c14-7a"/><use x="34263.8619283" xlink:href="#c14-6f"/><use x="34752.8619283" xlink:href="#c14-6e"/><use x="35268.6631368" xlink:href="#c14-74"/><use x="35648.6631368" xlink:href="#c14-61"/><use x="36137.6631368" xlink:href="#c14-6c"/><use x="36703.8088074" xlink:href="#c14-61"/><use x="37192.8088074" xlink:href="#c14-6e"/><use x="37735.8088074" xlink:href="#c14-64"/><use x="38573.9557495" xlink:href="#c14-76"/><use x="39062.756958" xlink:href="#c14-65"/><use x="39497.756958" xlink:href="#c14-72"/><use x="39877.756958" xlink:href="#c14-74"/><use x="40257.756958" xlink:href="#c14-69"/><use x="40528.756958" xlink:href="#c14-63"/><use x="40963.756958" xlink:href="#c14-61"/><use x="41452.756958" xlink:href="#c14-6c"/></g><g transform="translate(0,-17564.1666667)"><use x="9272.5" xlink:href="#c14-6f"/><use x="9761.5" xlink:href="#c14-0b"/><use x="10332.5" xlink:href="#c14-73"/><use x="10718.5" xlink:href="#c14-65"/><use x="11153.5" xlink:href="#c14-74"/><use x="11533.5" xlink:href="#c14-73"/><use x="12202.3356425" xlink:href="#c14-66"/><use x="12501.3356425" xlink:href="#c14-72"/><use x="12881.3356425" xlink:href="#c14-6f"/><use x="13370.3356425" xlink:href="#c14-6d"/><use x="14468.1700134" xlink:href="#c14-74"/><use x="14848.1700134" xlink:href="#c14-68"/><use x="15391.1700134" xlink:href="#c14-65"/><use x="16109.0056559" xlink:href="#c14-75"/><use x="16652.0056559" xlink:href="#c14-70"/><use x="17195.0056559" xlink:href="#c14-70"/><use x="17765.2044474" xlink:href="#c14-65"/><use x="18200.2044474" xlink:href="#c14-72"/><use x="18580.2044474" xlink:href="#c14-2d"/><use x="18906.2044474" xlink:href="#c14-6c"/><use x="19177.2044474" xlink:href="#c14-65"/><use x="19612.2044474" xlink:href="#c14-66"/><use x="19911.2044474" xlink:href="#c14-74"/><use x="20574.0400899" xlink:href="#c14-63"/><use x="21009.0400899" xlink:href="#c14-6f"/><use x="21498.0400899" xlink:href="#c14-72"/><use x="21878.0400899" xlink:href="#c14-6e"/><use x="22421.0400899" xlink:href="#c14-65"/><use x="22856.0400899" xlink:href="#c14-72"/><use x="23518.8744609" xlink:href="#c14-28"/><use x="23898.8744609" xlink:href="#c14-69"/><use x="24169.8744609" xlink:href="#c14-6e"/><use x="24712.8744609" xlink:href="#c14-63"/><use x="25147.8744609" xlink:href="#c14-72"/><use x="25527.8744609" xlink:href="#c14-65"/><use x="25962.8744609" xlink:href="#c14-61"/><use x="26451.8744609" xlink:href="#c14-73"/><use x="26837.8744609" xlink:href="#c14-69"/><use x="27108.8744609" xlink:href="#c14-6e"/><use x="27651.8744609" xlink:href="#c14-67"/><use x="28423.7101034" xlink:href="#c14-76"/><use x="29222.5457458" xlink:href="#c14-6d"/><use x="30037.5457458" xlink:href="#c14-6f"/><use x="30499.3469543" xlink:href="#c14-76"/><use x="30988.1481628" xlink:href="#c14-65"/><use x="31423.1481628" xlink:href="#c14-73"/><use x="32091.9825338" xlink:href="#c14-64"/><use x="32634.9825338" xlink:href="#c14-6f"/><use x="33096.7837423" xlink:href="#c14-77"/><use x="33803.7837423" xlink:href="#c14-6e"/><use x="34629.6193848" xlink:href="#c14-74"/><use x="35009.6193848" xlink:href="#c14-68"/><use x="35552.6193848" xlink:href="#c14-65"/><use x="36270.4550273" xlink:href="#c14-70"/><use x="36813.4550273" xlink:href="#c14-61"/><use x="37302.4550273" xlink:href="#c14-67"/><use x="37791.4550273" xlink:href="#c14-65"/><use x="38226.4550273" xlink:href="#c14-29"/><use x="38606.4550273" xlink:href="#c14-2c"/><use x="39168.9996236" xlink:href="#c14-77"/><use x="40158.8352661" xlink:href="#c14-61"/><use x="40647.8352661" xlink:href="#c14-6e"/><use x="41190.8352661" xlink:href="#c14-64"/></g><g transform="translate(0,-18772.5)"><use x="9272.5" xlink:href="#c14-78"/><use x="10114.885498" xlink:href="#c14-68"/><use x="10657.885498" xlink:href="#c14-6f"/><use x="11146.885498" xlink:href="#c14-6c"/><use x="11417.885498" xlink:href="#c14-64"/><use x="12287.2709961" xlink:href="#c14-68"/><use x="12830.2709961" xlink:href="#c14-6f"/><use x="13319.2709961" xlink:href="#c14-72"/><use x="13699.2709961" xlink:href="#c14-69"/><use x="13970.2709961" xlink:href="#c14-7a"/><use x="14405.2709961" xlink:href="#c14-6f"/><use x="14894.2709961" xlink:href="#c14-6e"/><use x="15410.0722046" xlink:href="#c14-74"/><use x="15790.0722046" xlink:href="#c14-61"/><use x="16279.0722046" xlink:href="#c14-6c"/><use x="16876.4577026" xlink:href="#c14-73"/><use x="17262.4577026" xlink:href="#c14-70"/><use x="17805.4577026" xlink:href="#c14-61"/><use x="18294.4577026" xlink:href="#c14-63"/><use x="18729.4577026" xlink:href="#c14-65"/><use x="19490.8432007" xlink:href="#c14-76"/><use x="19952.4456177" xlink:href="#c14-61"/><use x="20441.4456177" xlink:href="#c14-6c"/><use x="20712.4456177" xlink:href="#c14-75"/><use x="21255.4456177" xlink:href="#c14-65"/><use x="21690.4456177" xlink:href="#c14-73"/><use x="22076.4456177" xlink:href="#c14-2c"/><use x="22673.8311157" xlink:href="#c14-79"/><use x="23516.2166138" xlink:href="#c14-61"/><use x="24005.2166138" xlink:href="#c14-6e"/><use x="24548.2166138" xlink:href="#c14-64"/><use x="25417.6021118" xlink:href="#c14-7a"/><use x="25852.6021118" xlink:href="#c14-2c"/><use x="26449.9876099" xlink:href="#c14-76"/><use x="26938.7888184" xlink:href="#c14-65"/><use x="27373.7888184" xlink:href="#c14-72"/><use x="27753.7888184" xlink:href="#c14-74"/><use x="28133.7888184" xlink:href="#c14-69"/><use x="28404.7888184" xlink:href="#c14-63"/><use x="28839.7888184" xlink:href="#c14-61"/><use x="29328.7888184" xlink:href="#c14-6c"/><use x="29599.7888184" xlink:href="#c14-2e"/></g><g transform="translate(0,-19980.8333333)"><use x="10741.2347412" xlink:href="#c14-54"/><use x="11448.2347412" xlink:href="#c14-68"/><use x="11991.2347412" xlink:href="#c14-65"/><use x="12426.2347412" xlink:href="#c14-73"/><use x="12812.2347412" xlink:href="#c14-65"/><use x="13520.1648865" xlink:href="#c14-76"/><use x="13981.7673035" xlink:href="#c14-61"/><use x="14470.7673035" xlink:href="#c14-72"/><use x="14850.7673035" xlink:href="#c14-69"/><use x="15121.7673035" xlink:href="#c14-61"/><use x="15610.7673035" xlink:href="#c14-62"/><use x="16153.7673035" xlink:href="#c14-6c"/><use x="16424.7673035" xlink:href="#c14-65"/><use x="16859.7673035" xlink:href="#c14-73"/><use x="17518.6961772" xlink:href="#c14-63"/><use x="17953.6961772" xlink:href="#c14-61"/><use x="18442.6961772" xlink:href="#c14-6e"/><use x="19258.6263224" xlink:href="#c14-62"/><use x="19828.8251139" xlink:href="#c14-65"/><use x="20536.7539876" xlink:href="#c14-70"/><use x="21079.7539876" xlink:href="#c14-75"/><use x="21622.7539876" xlink:href="#c14-73"/><use x="22008.7539876" xlink:href="#c14-68"/><use x="22551.7539876" xlink:href="#c14-65"/><use x="22986.7539876" xlink:href="#c14-64"/><use x="23802.6841329" xlink:href="#c14-6f"/><use x="24291.6841329" xlink:href="#c14-72"/><use x="24944.6130066" xlink:href="#c14-70"/><use x="25514.8117981" xlink:href="#c14-6f"/><use x="26003.8117981" xlink:href="#c14-70"/><use x="26546.8117981" xlink:href="#c14-70"/><use x="27117.0105896" xlink:href="#c14-65"/><use x="27552.0105896" xlink:href="#c14-64"/><use x="28367.9407349" xlink:href="#c14-66"/><use x="28666.9407349" xlink:href="#c14-72"/><use x="29046.9407349" xlink:href="#c14-6f"/><use x="29535.9407349" xlink:href="#c14-6d"/><use x="30623.8708801" xlink:href="#c14-74"/><use x="31003.8708801" xlink:href="#c14-68"/><use x="31546.8708801" xlink:href="#c14-65"/><use x="32254.7997538" xlink:href="#c14-73"/><use x="32640.7997538" xlink:href="#c14-74"/><use x="33020.7997538" xlink:href="#c14-61"/><use x="33509.7997538" xlink:href="#c14-63"/><use x="33917.6009623" xlink:href="#c14-6b"/><use x="34433.6009623" xlink:href="#c14-2e"/><use x="35121.9631755" xlink:href="#c14-49"/><use x="35474.9631755" xlink:href="#c14-6e"/><use x="36290.8933207" xlink:href="#c14-61"/><use x="36779.8933207" xlink:href="#c14-64"/><use x="37322.8933207" xlink:href="#c14-64"/><use x="37865.8933207" xlink:href="#c14-69"/><use x="38136.8933207" xlink:href="#c14-74"/><use x="38516.8933207" xlink:href="#c14-69"/><use x="38787.8933207" xlink:href="#c14-6f"/><use x="39276.8933207" xlink:href="#c14-6e"/><use x="39819.8933207" xlink:href="#c14-2c"/><use x="40374.5135193" xlink:href="#c14-74"/><use x="40754.5135193" xlink:href="#c14-68"/><use x="41297.5135193" xlink:href="#c14-65"/></g><g transform="translate(0,-21189.1666667)"><use x="9272.5" xlink:href="#c14-63"/><use x="9707.5" xlink:href="#c14-75"/><use x="10250.5" xlink:href="#c14-72"/><use x="10630.5" xlink:href="#c14-72"/><use x="11010.5" xlink:href="#c14-65"/><use x="11445.5" xlink:href="#c14-6e"/><use x="11961.3012085" xlink:href="#c14-74"/><use x="12642.1523946" xlink:href="#c14-66"/><use x="12941.1523946" xlink:href="#c14-6f"/><use x="13430.1523946" xlink:href="#c14-6e"/><use x="13945.9536031" xlink:href="#c14-74"/><use x="14626.8060608" xlink:href="#c14-66"/><use x="15226.6572469" xlink:href="#c14-69"/><use x="15497.6572469" xlink:href="#c14-73"/><use x="16184.5097046" xlink:href="#c14-68"/><use x="16727.5097046" xlink:href="#c14-65"/><use x="17162.5097046" xlink:href="#c14-6c"/><use x="17433.5097046" xlink:href="#c14-64"/><use x="18277.3608907" xlink:href="#c14-61"/><use x="18766.3608907" xlink:href="#c14-73"/><use x="19453.2133484" xlink:href="#c14-61"/><use x="19942.2133484" xlink:href="#c14-6e"/><use x="20786.0645345" xlink:href="#c14-69"/><use x="21057.0645345" xlink:href="#c14-6e"/><use x="21572.865743" xlink:href="#c14-74"/><use x="21952.865743" xlink:href="#c14-65"/><use x="22387.865743" xlink:href="#c14-67"/><use x="22876.865743" xlink:href="#c14-65"/><use x="23311.865743" xlink:href="#c14-72"/><use x="23992.7182007" xlink:href="#c14-76"/><use x="24454.3206177" xlink:href="#c14-61"/><use x="24943.3206177" xlink:href="#c14-6c"/><use x="25214.3206177" xlink:href="#c14-75"/><use x="25757.3206177" xlink:href="#c14-65"/><use x="26192.3206177" xlink:href="#c14-2c"/><use x="26769.2784119" xlink:href="#c14-62"/><use x="27312.2784119" xlink:href="#c14-75"/><use x="27855.2784119" xlink:href="#c14-74"/><use x="28536.1308695" xlink:href="#c14-69"/><use x="28807.1308695" xlink:href="#c14-73"/><use x="29493.9820557" xlink:href="#c14-6e"/><use x="30036.9820557" xlink:href="#c14-6f"/><use x="30525.9820557" xlink:href="#c14-74"/><use x="31206.8345133" xlink:href="#c14-70"/><use x="31749.8345133" xlink:href="#c14-75"/><use x="32292.8345133" xlink:href="#c14-73"/><use x="32678.8345133" xlink:href="#c14-68"/><use x="33221.8345133" xlink:href="#c14-65"/><use x="33656.8345133" xlink:href="#c14-64"/><use x="34500.6856995" xlink:href="#c14-61"/><use x="34989.6856995" xlink:href="#c14-6e"/><use x="35532.6856995" xlink:href="#c14-64"/><use x="36376.5381571" xlink:href="#c14-70"/><use x="36946.7369486" xlink:href="#c14-6f"/><use x="37435.7369486" xlink:href="#c14-70"/><use x="37978.7369486" xlink:href="#c14-70"/><use x="38548.9357402" xlink:href="#c14-65"/><use x="38983.9357402" xlink:href="#c14-64"/><use x="39827.7869263" xlink:href="#c14-77"/><use x="40534.7869263" xlink:href="#c14-69"/><use x="40805.7869263" xlink:href="#c14-74"/><use x="41185.7869263" xlink:href="#c14-68"/></g><g transform="translate(0,-22397.5)"><use x="9272.5" xlink:href="#c14-74"/><use x="9652.5" xlink:href="#c14-68"/><use x="10195.5" xlink:href="#c14-65"/><use x="10893.9226481" xlink:href="#c14-72"/><use x="11273.9226481" xlink:href="#c14-65"/><use x="11708.9226481" xlink:href="#c14-73"/><use x="12094.9226481" xlink:href="#c14-74"/><use x="12738.3452962" xlink:href="#c14-6f"/><use x="13227.3452962" xlink:href="#c14-66"/><use x="13789.7679443" xlink:href="#c14-74"/><use x="14169.7679443" xlink:href="#c14-68"/><use x="14712.7679443" xlink:href="#c14-65"/><use x="15411.1893209" xlink:href="#c14-73"/><use x="15797.1893209" xlink:href="#c14-74"/><use x="16177.1893209" xlink:href="#c14-61"/><use x="16666.1893209" xlink:href="#c14-74"/><use x="17046.1893209" xlink:href="#c14-65"/><use x="17744.611969" xlink:href="#c14-76"/><use x="18206.214386" xlink:href="#c14-61"/><use x="18695.214386" xlink:href="#c14-72"/><use x="19075.214386" xlink:href="#c14-69"/><use x="19346.214386" xlink:href="#c14-61"/><use x="19835.214386" xlink:href="#c14-62"/><use x="20378.214386" xlink:href="#c14-6c"/><use x="20649.214386" xlink:href="#c14-65"/><use x="21084.214386" xlink:href="#c14-73"/><use x="21733.6370341" xlink:href="#c14-77"/><use x="22440.6370341" xlink:href="#c14-68"/><use x="22983.6370341" xlink:href="#c14-65"/><use x="23418.6370341" xlink:href="#c14-6e"/><use x="24225.0596822" xlink:href="#c14-74"/><use x="24605.0596822" xlink:href="#c14-68"/><use x="25148.0596822" xlink:href="#c14-65"/><use x="25846.4823303" xlink:href="#c14-6f"/><use x="26335.4823303" xlink:href="#c14-70"/><use x="26905.6811218" xlink:href="#c14-63"/><use x="27340.6811218" xlink:href="#c14-6f"/><use x="27856.8799133" xlink:href="#c14-64"/><use x="28399.8799133" xlink:href="#c14-65"/><use x="28834.8799133" xlink:href="#c14-73"/><use x="29484.3025614" xlink:href="#c14-70"/><use x="30027.3025614" xlink:href="#c14-75"/><use x="30570.3025614" xlink:href="#c14-73"/><use x="30956.3025614" xlink:href="#c14-68"/><use x="31762.723938" xlink:href="#c14-6f"/><use x="32251.723938" xlink:href="#c14-72"/><use x="32895.1465861" xlink:href="#c14-70"/><use x="33465.3453776" xlink:href="#c14-6f"/><use x="33954.3453776" xlink:href="#c14-70"/><use x="34760.7680257" xlink:href="#c14-61"/><use x="35249.7680257" xlink:href="#c14-72"/><use x="35629.7680257" xlink:href="#c14-65"/><use x="36328.1906738" xlink:href="#c14-65"/><use x="36763.1906738" xlink:href="#c14-6e"/><use x="37306.1906738" xlink:href="#c14-63"/><use x="37741.1906738" xlink:href="#c14-6f"/><use x="38230.1906738" xlink:href="#c14-75"/><use x="38773.1906738" xlink:href="#c14-6e"/><use x="39288.9918823" xlink:href="#c14-74"/><use x="39668.9918823" xlink:href="#c14-65"/><use x="40103.9918823" xlink:href="#c14-72"/><use x="40483.9918823" xlink:href="#c14-65"/><use x="40918.9918823" xlink:href="#c14-64"/><use x="41461.9918823" xlink:href="#c14-2e"/></g><g transform="translate(0,-23605.8333333)"><use x="9272.5" xlink:href="#c14-46"/><use x="9829.90362549" xlink:href="#c14-6f"/><use x="10318.9036255" xlink:href="#c14-6e"/><use x="10834.704834" xlink:href="#c14-74"/><use x="11493.0098877" xlink:href="#c14-73"/><use x="11879.0098877" xlink:href="#c14-70"/><use x="12422.0098877" xlink:href="#c14-61"/><use x="12911.0098877" xlink:href="#c14-63"/><use x="13346.0098877" xlink:href="#c14-69"/><use x="13617.0098877" xlink:href="#c14-6e"/><use x="14160.0098877" xlink:href="#c14-67"/><use x="14927.3149414" xlink:href="#c14-69"/><use x="15198.3149414" xlink:href="#c14-6e"/><use x="15741.3149414" xlink:href="#c14-66"/><use x="16040.3149414" xlink:href="#c14-6f"/><use x="16529.3149414" xlink:href="#c14-72"/><use x="16909.3149414" xlink:href="#c14-6d"/><use x="17724.3149414" xlink:href="#c14-61"/><use x="18213.3149414" xlink:href="#c14-74"/><use x="18593.3149414" xlink:href="#c14-69"/><use x="18864.3149414" xlink:href="#c14-6f"/><use x="19353.3149414" xlink:href="#c14-6e"/><use x="20174.6199951" xlink:href="#c14-69"/><use x="20445.6199951" xlink:href="#c14-73"/><use x="21109.9237773" xlink:href="#c14-6c"/><use x="21380.9237773" xlink:href="#c14-6f"/><use x="21869.9237773" xlink:href="#c14-61"/><use x="22358.9237773" xlink:href="#c14-64"/><use x="22901.9237773" xlink:href="#c14-65"/><use x="23336.9237773" xlink:href="#c14-64"/><use x="24158.228831" xlink:href="#c14-66"/><use x="24457.228831" xlink:href="#c14-72"/><use x="24837.228831" xlink:href="#c14-6f"/><use x="25326.228831" xlink:href="#c14-6d"/><use x="26419.5338847" xlink:href="#c14-54"/><use x="27126.5338847" xlink:href="#c14-46"/><use x="27765.5338847" xlink:href="#c14-4d"/><use x="28940.7906189" xlink:href="#c14-0c"/><use x="29483.7906189" xlink:href="#c14-6c"/><use x="29754.7906189" xlink:href="#c14-65"/><use x="30189.7906189" xlink:href="#c14-73"/><use x="30575.7906189" xlink:href="#c14-2e"/><use x="31265.9444682" xlink:href="#c14-54"/><use x="31972.9444682" xlink:href="#c14-68"/><use x="32515.9444682" xlink:href="#c14-65"/><use x="33229.2495219" xlink:href="#c14-66"/><use x="33528.2495219" xlink:href="#c14-6f"/><use x="34017.2495219" xlink:href="#c14-6e"/><use x="34533.0507304" xlink:href="#c14-74"/><use x="34913.0507304" xlink:href="#c14-73"/><use x="35577.3557841" xlink:href="#c14-74"/><use x="35957.3557841" xlink:href="#c14-68"/><use x="36500.3557841" xlink:href="#c14-65"/><use x="36935.3557841" xlink:href="#c14-6d"/><use x="37750.3557841" xlink:href="#c14-73"/><use x="38136.3557841" xlink:href="#c14-65"/><use x="38571.3557841" xlink:href="#c14-6c"/><use x="38842.3557841" xlink:href="#c14-76"/><use x="39331.1569926" xlink:href="#c14-65"/><use x="39766.1569926" xlink:href="#c14-73"/><use x="40430.4620463" xlink:href="#c14-61"/><use x="40919.4620463" xlink:href="#c14-72"/><use x="41299.4620463" xlink:href="#c14-65"/></g><g transform="translate(0,-24814.1666667)"><use x="9272.5" xlink:href="#c14-6e"/><use x="9815.5" xlink:href="#c14-6f"/><use x="10304.5" xlink:href="#c14-74"/><use x="10999.0675659" xlink:href="#c14-65"/><use x="11434.0675659" xlink:href="#c14-6d"/><use x="12221.8687744" xlink:href="#c14-62"/><use x="12792.0675659" xlink:href="#c14-65"/><use x="13227.0675659" xlink:href="#c14-64"/><use x="13770.0675659" xlink:href="#c14-64"/><use x="14313.0675659" xlink:href="#c14-65"/><use x="14748.0675659" xlink:href="#c14-64"/><use x="15605.6351318" xlink:href="#c14-69"/><use x="15876.6351318" xlink:href="#c14-6e"/><use x="16734.2026978" xlink:href="#c14-74"/><use x="17114.2026978" xlink:href="#c14-68"/><use x="17657.2026978" xlink:href="#c14-65"/><use x="18406.7702637" xlink:href="#c14-44"/><use x="19126.5714722" xlink:href="#c14-56"/><use x="19860.5714722" xlink:href="#c14-49"/><use x="20528.127594" xlink:href="#c14-0c"/><use x="21071.127594" xlink:href="#c14-6c"/><use x="21342.127594" xlink:href="#c14-65"/><use x="21777.127594" xlink:href="#c14-2c"/><use x="22365.0577291" xlink:href="#c14-6f"/><use x="22854.0577291" xlink:href="#c14-6e"/><use x="23397.0577291" xlink:href="#c14-6c"/><use x="23668.0577291" xlink:href="#c14-79"/><use x="24498.625295" xlink:href="#c14-72"/><use x="24878.625295" xlink:href="#c14-65"/><use x="25313.625295" xlink:href="#c14-66"/><use x="25612.625295" xlink:href="#c14-65"/><use x="26047.625295" xlink:href="#c14-72"/><use x="26427.625295" xlink:href="#c14-65"/><use x="26862.625295" xlink:href="#c14-6e"/><use x="27405.625295" xlink:href="#c14-63"/><use x="27840.625295" xlink:href="#c14-65"/><use x="28275.625295" xlink:href="#c14-64"/><use x="29133.1928609" xlink:href="#c14-62"/><use x="29648.9940694" xlink:href="#c14-79"/><use x="30479.5616353" xlink:href="#c14-61"/><use x="30968.5616353" xlink:href="#c14-6e"/><use x="31826.1292013" xlink:href="#c14-69"/><use x="32097.1292013" xlink:href="#c14-6e"/><use x="32612.9304097" xlink:href="#c14-74"/><use x="32992.9304097" xlink:href="#c14-65"/><use x="33427.9304097" xlink:href="#c14-67"/><use x="33916.9304097" xlink:href="#c14-65"/><use x="34351.9304097" xlink:href="#c14-72"/><use x="35046.4979757" xlink:href="#c14-76"/><use x="35508.1003927" xlink:href="#c14-61"/><use x="35997.1003927" xlink:href="#c14-6c"/><use x="36268.1003927" xlink:href="#c14-75"/><use x="36811.1003927" xlink:href="#c14-65"/><use x="37560.6679586" xlink:href="#c14-64"/><use x="38103.6679586" xlink:href="#c14-65"/><use x="38538.6679586" xlink:href="#c14-0c"/><use x="39081.6679586" xlink:href="#c14-6e"/><use x="39624.6679586" xlink:href="#c14-65"/><use x="40059.6679586" xlink:href="#c14-64"/><use x="40917.2355245" xlink:href="#c14-69"/><use x="41188.2355245" xlink:href="#c14-6e"/></g><g transform="translate(0,-26022.5)"><use x="9272.5" xlink:href="#c14-74"/><use x="9652.5" xlink:href="#c14-68"/><use x="10195.5" xlink:href="#c14-65"/><use x="10980.4921163" xlink:href="#c14-72"/><use x="11360.4921163" xlink:href="#c14-65"/><use x="11795.4921163" xlink:href="#c14-6c"/><use x="12066.4921163" xlink:href="#c14-65"/><use x="12501.4921163" xlink:href="#c14-76"/><use x="12963.0945333" xlink:href="#c14-61"/><use x="13452.0945333" xlink:href="#c14-6e"/><use x="13967.8957418" xlink:href="#c14-74"/><use x="14697.8891296" xlink:href="#c28-66"/><use x="15211.8891296" xlink:href="#c28-6e"/><use x="15725.8891296" xlink:href="#c28-74"/><use x="16239.8891296" xlink:href="#c28-5f"/><use x="16753.8891296" xlink:href="#c28-64"/><use x="17267.8891296" xlink:href="#c28-65"/><use x="17781.8891296" xlink:href="#c28-66"/><use x="18295.8891296" xlink:href="#c28-69"/><use x="19159.8812459" xlink:href="#c14-6f"/><use x="19648.8812459" xlink:href="#c14-70"/><use x="20191.8812459" xlink:href="#c14-2e"/><use x="20968.8830363" xlink:href="#c14-28"/><use x="21348.8830363" xlink:href="#c14-54"/><use x="22055.8830363" xlink:href="#c14-68"/><use x="22598.8830363" xlink:href="#c14-69"/><use x="22869.8830363" xlink:href="#c14-73"/><use x="23605.8751526" xlink:href="#c14-69"/><use x="23876.8751526" xlink:href="#c14-73"/><use x="24612.8672689" xlink:href="#c14-64"/><use x="25155.8672689" xlink:href="#c14-6f"/><use x="25644.8672689" xlink:href="#c14-6e"/><use x="26187.8672689" xlink:href="#c14-65"/><use x="26972.8606567" xlink:href="#c14-65"/><use x="27407.8606567" xlink:href="#c14-78"/><use x="27923.8606567" xlink:href="#c14-61"/><use x="28412.8606567" xlink:href="#c14-63"/><use x="28847.8606567" xlink:href="#c14-74"/><use x="29227.8606567" xlink:href="#c14-6c"/><use x="29498.8606567" xlink:href="#c14-79"/><use x="30364.852773" xlink:href="#c14-74"/><use x="30717.6539815" xlink:href="#c14-77"/><use x="31424.6539815" xlink:href="#c14-69"/><use x="31695.6539815" xlink:href="#c14-63"/><use x="32130.6539815" xlink:href="#c14-65"/><use x="32915.6460978" xlink:href="#c14-66"/><use x="33214.6460978" xlink:href="#c14-6f"/><use x="33703.6460978" xlink:href="#c14-72"/><use x="34433.6382141" xlink:href="#c14-65"/><use x="34868.6382141" xlink:href="#c14-61"/><use x="35357.6382141" xlink:href="#c14-63"/><use x="35765.4394226" xlink:href="#c14-68"/><use x="36658.4328105" xlink:href="#c14-6c"/><use x="36929.4328105" xlink:href="#c14-6f"/><use x="37418.4328105" xlink:href="#c14-61"/><use x="37907.4328105" xlink:href="#c14-64"/><use x="38450.4328105" xlink:href="#c14-65"/><use x="38885.4328105" xlink:href="#c14-64"/><use x="39778.4249268" xlink:href="#c14-66"/><use x="40077.4249268" xlink:href="#c14-6f"/><use x="40566.4249268" xlink:href="#c14-6e"/><use x="41082.2261353" xlink:href="#c14-74"/><use x="41462.2261353" xlink:href="#c14-3a"/></g><g transform="translate(0,-27230.8333333)"><use x="9272.5" xlink:href="#c14-6f"/><use x="9761.5" xlink:href="#c14-6e"/><use x="10304.5" xlink:href="#c14-63"/><use x="10739.5" xlink:href="#c14-65"/><use x="11443.2886556" xlink:href="#c14-62"/><use x="12013.4874471" xlink:href="#c14-65"/><use x="12448.4874471" xlink:href="#c14-66"/><use x="12747.4874471" xlink:href="#c14-6f"/><use x="13236.4874471" xlink:href="#c14-72"/><use x="13616.4874471" xlink:href="#c14-65"/><use x="14320.2761027" xlink:href="#c14-69"/><use x="14591.2761027" xlink:href="#c14-74"/><use x="15240.0634867" xlink:href="#c14-69"/><use x="15511.0634867" xlink:href="#c14-73"/><use x="16165.8521423" xlink:href="#c14-72"/><use x="16545.8521423" xlink:href="#c14-65"/><use x="16980.8521423" xlink:href="#c14-66"/><use x="17279.8521423" xlink:href="#c14-65"/><use x="17714.8521423" xlink:href="#c14-72"/><use x="18094.8521423" xlink:href="#c14-65"/><use x="18529.8521423" xlink:href="#c14-6e"/><use x="19072.8521423" xlink:href="#c14-63"/><use x="19507.8521423" xlink:href="#c14-65"/><use x="19942.8521423" xlink:href="#c14-64"/><use x="20485.8521423" xlink:href="#c14-2c"/><use x="21037.1599121" xlink:href="#c14-61"/><use x="21526.1599121" xlink:href="#c14-6e"/><use x="22069.1599121" xlink:href="#c14-64"/><use x="22880.9485677" xlink:href="#c14-6f"/><use x="23369.9485677" xlink:href="#c14-6e"/><use x="23912.9485677" xlink:href="#c14-63"/><use x="24347.9485677" xlink:href="#c14-65"/><use x="25051.7372233" xlink:href="#c14-69"/><use x="25322.7372233" xlink:href="#c14-6e"/><use x="26134.5258789" xlink:href="#c14-74"/><use x="26514.5258789" xlink:href="#c14-68"/><use x="27057.5258789" xlink:href="#c14-65"/><use x="27761.3132629" xlink:href="#c14-70"/><use x="28331.5120544" xlink:href="#c14-6f"/><use x="28820.5120544" xlink:href="#c14-73"/><use x="29206.5120544" xlink:href="#c14-74"/><use x="29586.5120544" xlink:href="#c14-61"/><use x="30075.5120544" xlink:href="#c14-6d"/><use x="30863.3132629" xlink:href="#c14-62"/><use x="31406.3132629" xlink:href="#c14-6c"/><use x="31677.3132629" xlink:href="#c14-65"/><use x="32112.3132629" xlink:href="#c14-2e"/><use x="32383.3132629" xlink:href="#c14-29"/><use x="33179.2958272" xlink:href="#c14-66"/><use x="33747.0832113" xlink:href="#c14-63"/><use x="34182.0832113" xlink:href="#c14-6f"/><use x="34671.0832113" xlink:href="#c14-6e"/><use x="35186.8844198" xlink:href="#c14-74"/><use x="35566.8844198" xlink:href="#c14-61"/><use x="36055.8844198" xlink:href="#c14-69"/><use x="36326.8844198" xlink:href="#c14-6e"/><use x="36869.8844198" xlink:href="#c14-73"/><use x="37524.6730754" xlink:href="#c14-61"/><use x="38013.6730754" xlink:href="#c14-6e"/><use x="38825.461731" xlink:href="#c14-69"/><use x="39096.461731" xlink:href="#c14-6e"/><use x="39612.2629395" xlink:href="#c14-74"/><use x="39992.2629395" xlink:href="#c14-65"/><use x="40427.2629395" xlink:href="#c14-67"/><use x="40916.2629395" xlink:href="#c14-65"/><use x="41351.2629395" xlink:href="#c14-72"/></g><g transform="translate(0,-28439.1666667)"><use x="9272.5" xlink:href="#c14-76"/><use x="9734.10241699" xlink:href="#c14-61"/><use x="10223.102417" xlink:href="#c14-6c"/><use x="10494.102417" xlink:href="#c14-75"/><use x="11037.102417" xlink:href="#c14-65"/><use x="11739.5330404" xlink:href="#c14-6f"/><use x="12228.5330404" xlink:href="#c14-66"/><use x="12794.9623922" xlink:href="#c14-75"/><use x="13337.9623922" xlink:href="#c14-70"/><use x="14148.3930155" xlink:href="#c14-74"/><use x="14528.3930155" xlink:href="#c14-6f"/><use x="15284.8223674" xlink:href="#c14-66"/><use x="15583.8223674" xlink:href="#c14-6f"/><use x="16072.8223674" xlink:href="#c14-75"/><use x="16615.8223674" xlink:href="#c14-72"/><use x="17263.2529907" xlink:href="#c14-62"/><use x="17779.0541992" xlink:href="#c14-79"/><use x="18295.0541992" xlink:href="#c14-74"/><use x="18675.0541992" xlink:href="#c14-65"/><use x="19110.0541992" xlink:href="#c14-73"/><use x="19763.483551" xlink:href="#c14-69"/><use x="20034.483551" xlink:href="#c14-6e"/><use x="20844.9141744" xlink:href="#c14-6c"/><use x="21115.9141744" xlink:href="#c14-65"/><use x="21550.9141744" xlink:href="#c14-6e"/><use x="22093.9141744" xlink:href="#c14-67"/><use x="22582.9141744" xlink:href="#c14-74"/><use x="22962.9141744" xlink:href="#c14-68"/><use x="23505.9141744" xlink:href="#c14-2c"/><use x="24056.1347555" xlink:href="#c14-74"/><use x="24436.1347555" xlink:href="#c14-68"/><use x="24979.1347555" xlink:href="#c14-6f"/><use x="25468.1347555" xlink:href="#c14-75"/><use x="26011.1347555" xlink:href="#c14-67"/><use x="26500.1347555" xlink:href="#c14-68"/><use x="27310.5653788" xlink:href="#c14-69"/><use x="27581.5653788" xlink:href="#c14-6e"/><use x="28391.9947306" xlink:href="#c14-70"/><use x="28934.9947306" xlink:href="#c14-72"/><use x="29314.9947306" xlink:href="#c14-61"/><use x="29803.9947306" xlink:href="#c14-63"/><use x="30238.9947306" xlink:href="#c14-74"/><use x="30618.9947306" xlink:href="#c14-69"/><use x="30889.9947306" xlink:href="#c14-63"/><use x="31324.9947306" xlink:href="#c14-65"/><use x="31759.9947306" xlink:href="#c14-2c"/><use x="32310.2165833" xlink:href="#c14-54"/><use x="32935.6202087" xlink:href="#c14-65"/><use x="33370.6202087" xlink:href="#c14-58"/><use x="34371.9910685" xlink:href="#c14-6f"/><use x="34860.9910685" xlink:href="#c14-6e"/><use x="35403.9910685" xlink:href="#c14-6c"/><use x="35674.9910685" xlink:href="#c14-79"/><use x="36458.4204203" xlink:href="#c14-65"/><use x="36893.4204203" xlink:href="#c14-76"/><use x="37382.2216288" xlink:href="#c14-65"/><use x="37817.2216288" xlink:href="#c14-72"/><use x="38464.6522522" xlink:href="#c14-6f"/><use x="38953.6522522" xlink:href="#c14-75"/><use x="39496.6522522" xlink:href="#c14-74"/><use x="39876.6522522" xlink:href="#c14-70"/><use x="40419.6522522" xlink:href="#c14-75"/><use x="40962.6522522" xlink:href="#c14-74"/><use x="41342.6522522" xlink:href="#c14-73"/></g><g transform="translate(0,-29647.5)"><use x="9272.5" xlink:href="#c14-66"/><use x="9571.5" xlink:href="#c14-6f"/><use x="10060.5" xlink:href="#c14-6e"/><use x="10576.3012085" xlink:href="#c14-74"/><use x="11282.6867065" xlink:href="#c14-6e"/><use x="11798.487915" xlink:href="#c14-75"/><use x="12341.487915" xlink:href="#c14-6d"/><use x="13129.2891235" xlink:href="#c14-62"/><use x="13699.487915" xlink:href="#c14-65"/><use x="14134.487915" xlink:href="#c14-72"/><use x="14514.487915" xlink:href="#c14-73"/><use x="15226.8734131" xlink:href="#c14-69"/><use x="15497.8734131" xlink:href="#c14-6e"/><use x="16367.2589111" xlink:href="#c14-74"/><use x="16747.2589111" xlink:href="#c14-68"/><use x="17290.2589111" xlink:href="#c14-65"/><use x="18051.6444092" xlink:href="#c14-72"/><use x="18431.6444092" xlink:href="#c14-61"/><use x="18920.6444092" xlink:href="#c14-6e"/><use x="19463.6444092" xlink:href="#c14-67"/><use x="19952.6444092" xlink:href="#c14-65"/><use x="20714.0299072" xlink:href="#c14-30"/><use x="21529.4154053" xlink:href="#c14-74"/><use x="21909.4154053" xlink:href="#c14-68"/><use x="22452.4154053" xlink:href="#c14-72"/><use x="22832.4154053" xlink:href="#c14-6f"/><use x="23321.4154053" xlink:href="#c14-75"/><use x="23864.4154053" xlink:href="#c14-67"/><use x="24353.4154053" xlink:href="#c14-68"/><use x="25222.8009033" xlink:href="#c14-36"/><use x="25711.8009033" xlink:href="#c14-33"/><use x="26200.8009033" xlink:href="#c14-2e"/></g><g transform="translate(0,-30855.8333333)"><use x="10741.2347412" xlink:href="#c14-54"/><use x="11448.2347412" xlink:href="#c14-68"/><use x="11991.2347412" xlink:href="#c14-65"/><use x="12883.2710775" xlink:href="#c14-44"/><use x="13603.072286" xlink:href="#c14-56"/><use x="14337.072286" xlink:href="#c14-49"/><use x="15146.977651" xlink:href="#c14-66"/><use x="15445.977651" xlink:href="#c14-6f"/><use x="15934.977651" xlink:href="#c14-72"/><use x="16314.977651" xlink:href="#c14-6d"/><use x="17129.977651" xlink:href="#c14-61"/><use x="17618.977651" xlink:href="#c14-74"/><use x="18456.0139872" xlink:href="#c14-61"/><use x="18945.0139872" xlink:href="#c14-6c"/><use x="19216.0139872" xlink:href="#c14-73"/><use x="19602.0139872" xlink:href="#c14-6f"/><use x="20548.0503235" xlink:href="#c14-72"/><use x="20928.0503235" xlink:href="#c14-65"/><use x="21363.0503235" xlink:href="#c14-6c"/><use x="21634.0503235" xlink:href="#c14-69"/><use x="21905.0503235" xlink:href="#c14-65"/><use x="22340.0503235" xlink:href="#c14-73"/><use x="23183.0879313" xlink:href="#c14-6f"/><use x="23672.0879313" xlink:href="#c14-6e"/><use x="24672.1242676" xlink:href="#c14-74"/><use x="25052.1242676" xlink:href="#c14-68"/><use x="25595.1242676" xlink:href="#c14-65"/><use x="26487.1606038" xlink:href="#c14-63"/><use x="26894.9618123" xlink:href="#c14-68"/><use x="27437.9618123" xlink:href="#c14-61"/><use x="27926.9618123" xlink:href="#c14-72"/><use x="28306.9618123" xlink:href="#c14-61"/><use x="28795.9618123" xlink:href="#c14-63"/><use x="29230.9618123" xlink:href="#c14-74"/><use x="29610.9618123" xlink:href="#c14-65"/><use x="30045.9618123" xlink:href="#c14-72"/><use x="30882.9981486" xlink:href="#c14-65"/><use x="31317.9981486" xlink:href="#c14-6e"/><use x="31860.9981486" xlink:href="#c14-63"/><use x="32295.9981486" xlink:href="#c14-6f"/><use x="32812.1969401" xlink:href="#c14-64"/><use x="33355.1969401" xlink:href="#c14-69"/><use x="33626.1969401" xlink:href="#c14-6e"/><use x="34169.1969401" xlink:href="#c14-67"/><use x="34658.1969401" xlink:href="#c14-73"/><use x="35501.2332764" xlink:href="#c14-6f"/><use x="35990.2332764" xlink:href="#c14-66"/><use x="36746.2708842" xlink:href="#c14-74"/><use x="37126.2708842" xlink:href="#c14-68"/><use x="37669.2708842" xlink:href="#c14-65"/><use x="38561.3072205" xlink:href="#c14-66"/><use x="38860.3072205" xlink:href="#c14-6f"/><use x="39349.3072205" xlink:href="#c14-6e"/><use x="39865.108429" xlink:href="#c14-74"/><use x="40245.108429" xlink:href="#c14-73"/><use x="41088.1447652" xlink:href="#c14-69"/><use x="41359.1447652" xlink:href="#c14-74"/></g><g transform="translate(0,-32064.1666667)"><use x="9272.5" xlink:href="#c14-72"/><use x="9652.5" xlink:href="#c14-65"/><use x="10087.5" xlink:href="#c14-66"/><use x="10386.5" xlink:href="#c14-65"/><use x="10821.5" xlink:href="#c14-72"/><use x="11201.5" xlink:href="#c14-65"/><use x="11636.5" xlink:href="#c14-6e"/><use x="12179.5" xlink:href="#c14-63"/><use x="12614.5" xlink:href="#c14-65"/><use x="13049.5" xlink:href="#c14-73"/><use x="13435.5" xlink:href="#c14-2c"/><use x="13973.3914795" xlink:href="#c14-6e"/><use x="14516.3914795" xlink:href="#c14-6f"/><use x="15005.3914795" xlink:href="#c14-74"/><use x="15637.4107259" xlink:href="#c14-6f"/><use x="16126.4107259" xlink:href="#c14-6e"/><use x="16921.4287008" xlink:href="#c14-74"/><use x="17301.4287008" xlink:href="#c14-68"/><use x="17844.4287008" xlink:href="#c14-6f"/><use x="18333.4287008" xlink:href="#c14-73"/><use x="18719.4287008" xlink:href="#c14-65"/><use x="19406.4466756" xlink:href="#c14-6f"/><use x="19895.4466756" xlink:href="#c14-66"/><use x="20446.465922" xlink:href="#c14-74"/><use x="20826.465922" xlink:href="#c14-68"/><use x="21369.465922" xlink:href="#c14-65"/><use x="22056.4838969" xlink:href="#c14-73"/><use x="22442.4838969" xlink:href="#c14-79"/><use x="22958.4838969" xlink:href="#c14-73"/><use x="23344.4838969" xlink:href="#c14-74"/><use x="23724.4838969" xlink:href="#c14-65"/><use x="24159.4838969" xlink:href="#c14-6d"/><use x="25226.5018717" xlink:href="#c14-70"/><use x="25769.5018717" xlink:href="#c14-72"/><use x="26149.5018717" xlink:href="#c14-6f"/><use x="26665.7006632" xlink:href="#c14-63"/><use x="27100.7006632" xlink:href="#c14-65"/><use x="27535.7006632" xlink:href="#c14-73"/><use x="27921.7006632" xlink:href="#c14-73"/><use x="28307.7006632" xlink:href="#c14-69"/><use x="28578.7006632" xlink:href="#c14-6e"/><use x="29121.7006632" xlink:href="#c14-67"/><use x="29862.7199097" xlink:href="#c14-69"/><use x="30133.7199097" xlink:href="#c14-74"/><use x="30513.7199097" xlink:href="#c14-2e"/><use x="31195.1113993" xlink:href="#c14-54"/><use x="31902.1113993" xlink:href="#c14-68"/><use x="32445.1113993" xlink:href="#c14-69"/><use x="32716.1113993" xlink:href="#c14-73"/><use x="33354.1293742" xlink:href="#c14-6d"/><use x="34169.1293742" xlink:href="#c14-65"/><use x="34604.1293742" xlink:href="#c14-61"/><use x="35093.1293742" xlink:href="#c14-6e"/><use x="35636.1293742" xlink:href="#c14-73"/><use x="36022.1293742" xlink:href="#c14-2c"/><use x="36560.0221252" xlink:href="#c14-66"/><use x="36859.0221252" xlink:href="#c14-6f"/><use x="37348.0221252" xlink:href="#c14-72"/><use x="37980.0401001" xlink:href="#c14-69"/><use x="38251.0401001" xlink:href="#c14-6e"/><use x="38794.0401001" xlink:href="#c14-73"/><use x="39180.0401001" xlink:href="#c14-74"/><use x="39560.0401001" xlink:href="#c14-61"/><use x="40049.0401001" xlink:href="#c14-6e"/><use x="40592.0401001" xlink:href="#c14-63"/><use x="41027.0401001" xlink:href="#c14-65"/><use x="41462.0401001" xlink:href="#c14-2c"/></g><g transform="translate(0,-33272.5)"><use x="9272.5" xlink:href="#c14-74"/><use x="9652.5" xlink:href="#c14-68"/><use x="10195.5" xlink:href="#c14-61"/><use x="10684.5" xlink:href="#c14-74"/><use x="11358.6347758" xlink:href="#c14-61"/><use x="11847.6347758" xlink:href="#c14-6e"/><use x="12684.76828" xlink:href="#c14-45"/><use x="13350.76828" xlink:href="#c14-42"/><use x="14043.76828" xlink:href="#c14-43"/><use x="14750.76828" xlink:href="#c14-44"/><use x="15497.76828" xlink:href="#c14-49"/><use x="15850.76828" xlink:href="#c14-43"/><use x="16557.76828" xlink:href="#c14-2d"/><use x="16883.76828" xlink:href="#c14-62"/><use x="17426.76828" xlink:href="#c14-61"/><use x="17915.76828" xlink:href="#c14-73"/><use x="18301.76828" xlink:href="#c14-65"/><use x="18736.76828" xlink:href="#c14-64"/><use x="19573.9030558" xlink:href="#c14-73"/><use x="19959.9030558" xlink:href="#c14-79"/><use x="20475.9030558" xlink:href="#c14-73"/><use x="20861.9030558" xlink:href="#c14-74"/><use x="21241.9030558" xlink:href="#c14-65"/><use x="21676.9030558" xlink:href="#c14-6d"/><use x="22786.0378316" xlink:href="#c14-63"/><use x="23221.0378316" xlink:href="#c14-61"/><use x="23710.0378316" xlink:href="#c14-6e"/><use x="24547.1713359" xlink:href="#c14-70"/><use x="25090.1713359" xlink:href="#c14-72"/><use x="25470.1713359" xlink:href="#c14-6f"/><use x="25986.3701274" xlink:href="#c14-63"/><use x="26421.3701274" xlink:href="#c14-65"/><use x="26856.3701274" xlink:href="#c14-73"/><use x="27242.3701274" xlink:href="#c14-73"/><use x="27922.5049032" xlink:href="#c14-61"/><use x="28705.639679" xlink:href="#c14-44"/><use x="29425.4408875" xlink:href="#c14-56"/><use x="30159.4408875" xlink:href="#c14-49"/><use x="30806.5426025" xlink:href="#c14-0c"/><use x="31349.5426025" xlink:href="#c14-6c"/><use x="31620.5426025" xlink:href="#c14-65"/><use x="32349.6773783" xlink:href="#c14-74"/><use x="32729.6773783" xlink:href="#c14-68"/><use x="33272.6773783" xlink:href="#c14-61"/><use x="33761.6773783" xlink:href="#c14-74"/><use x="34435.8121541" xlink:href="#c14-77"/><use x="35115.6133626" xlink:href="#c14-61"/><use x="35604.6133626" xlink:href="#c14-73"/><use x="36284.7468669" xlink:href="#c14-67"/><use x="36773.7468669" xlink:href="#c14-65"/><use x="37208.7468669" xlink:href="#c14-6e"/><use x="37751.7468669" xlink:href="#c14-65"/><use x="38186.7468669" xlink:href="#c14-72"/><use x="38566.7468669" xlink:href="#c14-61"/><use x="39055.7468669" xlink:href="#c14-74"/><use x="39435.7468669" xlink:href="#c14-65"/><use x="39870.7468669" xlink:href="#c14-64"/><use x="40707.8816427" xlink:href="#c14-62"/><use x="41223.6828512" xlink:href="#c14-79"/></g><g transform="translate(0,-34480.8333333)"><use x="9272.5" xlink:href="#c14-61"/><use x="9761.5" xlink:href="#c14-6e"/><use x="10630.885498" xlink:href="#c14-41"/><use x="11364.885498" xlink:href="#c14-53"/><use x="11907.885498" xlink:href="#c14-43"/><use x="12614.885498" xlink:href="#c14-49"/><use x="12995.0842896" xlink:href="#c14-49"/><use x="13348.0842896" xlink:href="#c14-2d"/><use x="13674.0842896" xlink:href="#c14-62"/><use x="14217.0842896" xlink:href="#c14-61"/><use x="14706.0842896" xlink:href="#c14-73"/><use x="15092.0842896" xlink:href="#c14-65"/><use x="15527.0842896" xlink:href="#c14-64"/><use x="16396.4697876" xlink:href="#c14-73"/><use x="16782.4697876" xlink:href="#c14-79"/><use x="17298.4697876" xlink:href="#c14-73"/><use x="17684.4697876" xlink:href="#c14-74"/><use x="18064.4697876" xlink:href="#c14-65"/><use x="18499.4697876" xlink:href="#c14-6d"/><use x="19314.4697876" xlink:href="#c14-2c"/><use x="19911.8552856" xlink:href="#c14-73"/><use x="20297.8552856" xlink:href="#c14-6f"/><use x="21113.2407837" xlink:href="#c14-6c"/><use x="21384.2407837" xlink:href="#c14-6f"/><use x="21873.2407837" xlink:href="#c14-6e"/><use x="22416.2407837" xlink:href="#c14-67"/><use x="23231.6262817" xlink:href="#c14-61"/><use x="23720.6262817" xlink:href="#c14-73"/><use x="24433.0117798" xlink:href="#c14-69"/><use x="24704.0117798" xlink:href="#c14-74"/><use x="25410.3972778" xlink:href="#c14-68"/><use x="25953.3972778" xlink:href="#c14-61"/><use x="26442.3972778" xlink:href="#c14-73"/><use x="27154.7827759" xlink:href="#c14-74"/><use x="27534.7827759" xlink:href="#c14-68"/><use x="28077.7827759" xlink:href="#c14-65"/><use x="28839.1682739" xlink:href="#c14-73"/><use x="29225.1682739" xlink:href="#c14-61"/><use x="29714.1682739" xlink:href="#c14-6d"/><use x="30529.1682739" xlink:href="#c14-65"/><use x="31290.553772" xlink:href="#c14-66"/><use x="31589.553772" xlink:href="#c14-6f"/><use x="32078.553772" xlink:href="#c14-6e"/><use x="32594.3549805" xlink:href="#c14-74"/><use x="32974.3549805" xlink:href="#c14-73"/><use x="33686.7404785" xlink:href="#c14-69"/><use x="33957.7404785" xlink:href="#c14-6e"/><use x="34500.7404785" xlink:href="#c14-73"/><use x="34886.7404785" xlink:href="#c14-74"/><use x="35266.7404785" xlink:href="#c14-61"/><use x="35755.7404785" xlink:href="#c14-6c"/><use x="36026.7404785" xlink:href="#c14-6c"/><use x="36297.7404785" xlink:href="#c14-65"/><use x="36732.7404785" xlink:href="#c14-64"/><use x="37275.7404785" xlink:href="#c14-2e"/></g><g transform="translate(0,-58730.8333333)"><use x="25277.7108765" xlink:href="#c14-32"/></g></g></g></svg>