<?xml version="1.0" ?><!-- Created with Inkscape (http://www.inkscape.org/) --><svg height="600" id="svg2" inkscape:output_extension="org.inkscape.output.svg.inkscape" inkscape:version="0.45" sodipodi:docbase="/home/wojtek/pydvi2svg" sodipodi:docname="svgfrags-sample.svg" sodipodi:modified="true" sodipodi:version="0.32" version="1.0" width="600" xmlns="http://www.w3.org/2000/svg" xmlns:cc="http://web.resource.org/cc/" xmlns:dc="http://purl.org/dc/elements/1.1/" xmlns:inkscape="http://www.inkscape.org/namespaces/inkscape" xmlns:rdf="http://www.w3.org/1999/02/22-rdf-syntax-ns#" xmlns:sodipodi="http://sodipodi.sourceforge.net/DTD/sodipodi-0.dtd" xmlns:svg="http://www.w3.org/2000/svg" xmlns:xlink="http://www.w3.org/1999/xlink">
  <defs id="defs4"><g id="svgfrags-0"><g transform="scale(0.01,-0.01)"><g transform="translate(14927,-13527)"><use xlink:href="#637"/><use x="444" xlink:href="#657"/><use x="888" xlink:href="#6e7"/><use x="1415.221" xlink:href="#747"/><use x="1803.221" xlink:href="#657"/><use x="2247.221" xlink:href="#727"/></g></g></g><path d="M621 392c-23 16 -57 16 -60 16c-51 0 -84 -40 -97 -66c-8 -18 -35 -129 -52 -199c-8 -34 -8 -41 -8 -53c0 -56 41 -67 71 -67c44 0 121 30 150 120c3 9 5 15 22 15c4 0 21 0 21 -14c0 -36 -71 -155 -197 -155c-31 0 -95 8 -135 68c-24 -36 -69 -68 -124 -68 c-51 0 -119 21 -119 82c0 48 37 68 62 68c22 0 44 -13 44 -42c0 -4 0 -42 -45 -58c24 -16 53 -16 60 -16c43 0 89 34 104 91c34 133 52 202 52 227c0 53 -38 67 -71 67c-38 0 -120 -25 -150 -123c-4 -11 -12 -12 -21 -12c-5 0 -21 0 -21 14c0 37 71 155 196 155 c36 0 100 -11 133 -68c20 26 62 68 127 68c53 0 119 -23 119 -82c0 -44 -34 -68 -62 -68c-33 0 -45 24 -45 41c0 1 0 45 46 59z" id="788"/><path d="M438 712l-341 -942c-3 -10 -7 -20 -21 -20c-11 0 -20 9 -20 20c0 2 0 5 5 18l341 942c3 10 7 20 21 20c11 0 20 -9 20 -20c0 -2 0 -5 -5 -18z" id="2f7"/><path d="M768 336h-660c-15 0 -38 0 -38 25c0 24 24 24 37 24h662c13 0 37 0 37 -24c0 -25 -23 -25 -38 -25zM769 116h-662c-13 0 -37 0 -37 24c0 25 23 25 38 25h660c15 0 38 0 38 -25c0 -24 -24 -24 -37 -24z" id="3d6"/><path d="M296 274c-14 3 -111 26 -115 27c-83 24 -129 90 -129 157c0 85 75 164 186 164c45 0 99 -12 140 -47c8 30 13 47 37 47c30 0 30 -25 30 -41v-132c0 -20 0 -41 -35 -41c-20 0 -31 6 -34 28c-6 31 -21 125 -139 125c-71 0 -120 -48 -120 -99c0 -47 38 -82 80 -94l81 -18 c78 -18 105 -25 146 -65c12 -13 48 -55 48 -119c0 -89 -72 -177 -188 -177c-64 0 -125 16 -165 46c-9 -32 -15 -46 -37 -46c-30 0 -30 25 -30 41v132c0 20 0 41 35 41c32 0 33 -18 34 -35c1 -18 5 -60 47 -87c40 -27 89 -31 117 -31c79 0 122 59 122 111 c0 87 -83 107 -111 113z" id="5314"/><path d="M696 121h25c-2 -86 -65 -143 -141 -143c-48 0 -107 16 -176 76c-37 -33 -96 -76 -181 -76c-99 0 -181 63 -181 150c0 54 26 81 71 127l91 97c-35 89 -41 161 -41 203c0 106 74 161 136 161c71 0 87 -83 87 -129c0 -66 -68 -142 -122 -202c44 -115 153 -252 166 -267 c43 53 88 121 143 218c1 3 6 10 6 20c0 25 -25 44 -71 44v31c27 -2 111 -3 122 -3c6 0 60 1 97 3v-31c-89 -1 -110 -36 -149 -102c-46 -79 -86 -147 -132 -200c32 -38 84 -89 138 -89c45 0 109 33 112 112zM256 409c24 26 105 113 105 179c0 2 0 106 -60 106 c-35 0 -75 -32 -75 -116c0 -31 3 -89 30 -169zM213 329c-54 -52 -88 -88 -88 -169c0 -54 23 -151 106 -151c28 0 90 7 154 64c-37 37 -73 89 -92 117c-43 62 -58 92 -80 139z" id="267"/><path d="M110 344c0 49 -8 56 -78 56v31l141 11v-105c28 62 75 105 148 105c45 0 119 -11 133 -98c17 38 61 98 145 98c58 0 91 -20 105 -37c31 -36 31 -67 31 -153v-191c1 -30 26 -30 78 -30v-31c-34 1 -86 3 -112 3c-27 0 -78 -2 -113 -3v31c67 0 78 0 78 45v233 c0 57 -11 111 -74 111c-64 0 -135 -56 -135 -160v-184c0 -45 11 -45 78 -45v-31c-34 1 -86 3 -112 3c-27 0 -78 -2 -113 -3v31c67 0 78 0 78 45v233c0 57 -11 111 -74 111c-64 0 -135 -56 -135 -160v-184c0 -45 11 -45 78 -45v-31c-34 1 -86 3 -112 3c-27 0 -78 -2 -113 -3 v31c67 0 78 0 78 45v268z" id="6d7"/><path d="M233 176c52 0 96 44 96 101c0 53 -42 100 -96 100c-52 0 -96 -44 -96 -101c0 -53 42 -100 96 -100zM143 141c-4 -10 -6 -24 -6 -28c0 -2 1 -22 12 -36c12 -14 18 -14 33 -14c8 -2 21 -2 29 -2h70c90 0 132 -22 145 -29c51 -27 69 -77 69 -114c0 -85 -105 -147 -233 -147 s-233 61 -233 147c0 11 0 79 74 124c-9 12 -23 37 -23 72c0 30 9 52 20 68c-15 19 -32 52 -32 95c0 85 71 160 165 160c46 0 81 -19 97 -30c46 34 95 35 106 35c54 0 73 -31 73 -54c0 -29 -23 -41 -40 -41c-10 0 -33 7 -39 34c-13 -1 -37 -5 -58 -17c17 -28 26 -57 26 -87 c0 -89 -73 -161 -165 -161c-49 0 -87 23 -90 25zM262 -169c100 0 175 43 175 87c0 86 -113 86 -202 86c-73 0 -82 0 -107 -16c-32 -20 -41 -52 -41 -70c0 -44 75 -87 175 -87z" id="6714"/><path d="M367 400l-60 -317c-1 -7 -24 -128 -56 -191c-18 -38 -58 -97 -113 -97c-41 0 -85 24 -85 69c0 38 29 60 55 60c19 0 37 -12 37 -35c0 -15 -9 -51 -55 -54c19 -18 44 -18 48 -18c52 0 69 91 87 188l75 395h-66c-19 0 -28 0 -28 12c0 19 11 19 30 19h69 c24 126 27 136 33 157c30 99 93 117 127 117c41 0 87 -23 87 -69c0 -38 -29 -60 -55 -60c-19 0 -37 12 -37 35c0 15 10 50 54 54c-19 18 -45 18 -49 18c-21 0 -38 -15 -47 -34c-6 -12 -20 -83 -24 -104l-21 -114h83c17 0 27 0 27 -11c0 -20 -10 -20 -30 -20h-86z" id="6610"/><path d="M652 258l-42 -258h-577v31h24c77 0 79 11 79 47v524c0 36 -2 47 -79 47h-24v31h563l28 -225h-25c-16 139 -43 194 -196 194h-129c-47 0 -49 -7 -49 -40v-240h90c97 0 108 31 108 117h25v-265h-25c0 85 -11 117 -108 117h-90v-267c0 -33 2 -40 49 -40h133 c172 0 195 73 220 227h25z" id="457"/><path d="M155 558v-189c44 38 96 49 140 49c124 0 210 -104 210 -217c0 -126 -112 -221 -240 -221c-120 0 -202 90 -202 180c0 54 48 54 50 54c13 0 50 -8 50 -51c0 -27 -19 -52 -57 -49c25 -66 92 -102 157 -102c49 0 92 24 117 60c30 44 30 103 30 133c0 58 -6 96 -24 129 c-5 8 -32 56 -92 56c-35 0 -96 -8 -139 -63c-10 -12 -11 -14 -20 -14c-16 0 -16 12 -16 29v295c0 16 0 27 13 27c1 0 3 0 13 -5c65 -25 118 -27 146 -27c74 0 127 20 151 29c4 3 6 3 8 3c5 0 12 -3 12 -14c0 -15 -78 -105 -210 -105c-16 0 -46 0 -97 13z" id="356"/><path d="M249 106l34 137c9 34 21 84 21 104c0 48 -27 66 -60 66c-49 0 -112 -43 -137 -121c-5 -13 -6 -17 -19 -17c-3 0 -17 0 -17 13c0 30 64 153 176 153c56 0 102 -30 120 -71c22 38 62 71 112 71c40 0 104 -17 104 -73c0 -42 -33 -61 -56 -61s-40 15 -40 37c0 18 12 46 44 55 c-21 14 -52 14 -54 14c-33 0 -78 -25 -98 -102c-28 -111 -52 -202 -52 -228c0 -38 21 -65 61 -65c56 0 116 52 137 121c4 12 5 17 19 17c3 0 16 0 16 -13c0 -28 -61 -153 -176 -153c-40 0 -95 18 -119 71c-25 -42 -66 -71 -112 -71c-49 0 -105 23 -105 73c0 37 29 61 57 61 c23 0 40 -15 40 -37c0 -6 -3 -42 -44 -55c21 -14 51 -14 54 -14c51 0 84 54 94 88z" id="789"/><path d="M330 331h-66c-18 0 -28 0 -28 17c0 15 11 16 22 17c26 1 30 2 58 3c105 6 143 97 143 155c0 68 -52 105 -125 105c-21 0 -110 -3 -153 -49c36 -6 48 -34 48 -57c0 -36 -28 -57 -57 -57c-19 0 -57 12 -57 59c0 90 99 142 222 142c126 0 228 -61 228 -143 c0 -56 -32 -132 -152 -171c114 -26 187 -96 187 -178c0 -97 -102 -196 -266 -196c-136 0 -254 48 -254 152c0 42 30 63 62 63c33 0 61 -24 61 -61c0 -24 -12 -55 -53 -61c51 -52 170 -52 181 -52c89 0 152 54 152 156c0 99 -61 156 -153 156z" id="335"/><path d="M457 252v-191c1 -30 26 -30 78 -30v-31c-34 1 -86 3 -112 3c-27 0 -78 -2 -113 -3v31c67 0 78 0 78 45v233c0 57 -11 111 -74 111c-64 0 -135 -56 -135 -160v-184c0 -45 11 -45 78 -45v-31c-34 1 -86 3 -112 3c-27 0 -78 -2 -113 -3v31c67 0 78 0 78 45v520 c0 49 -8 56 -78 56v31l144 11v-348h1c16 36 60 96 144 96c58 0 91 -20 105 -37c31 -36 31 -67 31 -153z" id="687"/><path d="M359 386c-35 36 -98 37 -107 37c-53 0 -135 -42 -135 -205c0 -161 88 -204 141 -204c37 0 102 12 131 105c2 6 4 10 13 10c3 0 13 0 13 -10s-32 -130 -166 -130c-116 0 -215 99 -215 227c0 124 92 232 217 232c77 0 153 -39 153 -107c0 -30 -20 -47 -46 -47 c-28 0 -46 20 -46 46c0 13 6 43 47 46z" id="637"/><path d="M505 182l-30 -182h-412c0 28 0 30 10 39l241 238c32 36 94 105 94 192c0 81 -52 159 -152 159c-47 0 -115 -22 -146 -93c52 0 59 -35 59 -53c0 -36 -29 -53 -53 -53c-10 0 -53 5 -53 56c0 92 84 179 208 179c128 0 234 -74 234 -195c0 -95 -69 -157 -143 -216 c-60 -47 -95 -75 -200 -168h184c14 0 91 0 99 6c13 10 23 69 26 91h34z" id="326"/><path d="M122 63l32 128c5 22 15 63 22 90s16 64 16 83c0 27 -7 49 -33 49c-39 0 -58 -49 -73 -108c-7 -27 -8 -30 -22 -30c-3 0 -17 0 -17 13c0 5 14 62 36 99c13 23 36 54 79 54c41 0 100 -22 107 -91c30 40 86 91 169 91c53 0 130 -17 130 -114c0 -56 -41 -162 -53 -193 c-18 -45 -23 -58 -23 -81c0 -21 4 -35 25 -35c40 0 83 41 106 121c4 11 5 17 19 17c3 0 16 0 16 -13c0 -15 -44 -153 -144 -153c-51 0 -95 33 -95 86c0 17 4 26 15 54c16 42 59 153 59 213c0 19 -1 70 -59 70c-75 0 -122 -52 -150 -92c-29 -41 -31 -49 -42 -90 c-5 -23 -11 -45 -17 -67c-6 -25 -17 -71 -22 -90c-5 -21 -13 -53 -18 -62s-21 -22 -39 -22c-16 0 -34 10 -34 32c0 3 6 28 10 41z" id="6e9"/><path d="M463 226v-307c0 -14 0 -37 -25 -37c-24 0 -24 24 -24 37v307h-307c-14 0 -37 0 -37 25c0 24 24 24 37 24h307v307c0 14 0 37 25 37c24 0 24 -24 24 -37v-307h306c14 0 37 0 37 -25c0 -24 -24 -24 -37 -24h-306z" id="2b6"/><path d="M398 636v-550c0 -31 0 -42 106 -42h50v-44c-55 4 -144 4 -202 4s-147 0 -202 -4v44h50c106 0 106 11 106 42v500c-58 -25 -123 -28 -146 -28h-17v44h17c20 0 131 0 202 64c33 0 36 0 36 -30z" id="315"/><path d="M449 690l243 -616c11 -28 18 -38 85 -38h20v-36c-11 1 -86 4 -133 4c-35 0 -99 -2 -149 -4v36c27 0 81 0 81 28c0 5 -3 12 -5 17l-58 146h-284l-48 -123c-4 -10 -5 -12 -5 -20c0 -28 28 -48 72 -48v-36c-6 0 -80 4 -120 4c-34 0 -69 -1 -103 -4v36c90 0 107 44 117 69 l231 585c6 16 9 23 28 23s22 -7 28 -23zM391 588l-128 -325h256z" id="416"/><path d="M449 209v-168c0 -19 0 -41 -34 -41c-35 0 -35 20 -35 42c-20 -23 -62 -53 -119 -53c-119 0 -223 133 -223 317c0 181 103 316 223 316c42 0 82 -15 117 -45c15 34 20 45 41 45c30 0 30 -25 30 -41v-139c0 -20 0 -41 -35 -41c-26 0 -32 12 -34 29 c-17 108 -80 131 -115 131c-78 0 -158 -103 -158 -256c0 -147 76 -255 157 -255c53 0 102 47 114 159h-42c-16 0 -40 0 -40 31c0 30 25 30 40 30h119c15 0 41 0 41 -30c0 -31 -23 -31 -47 -31z" id="4714"/><path d="M222 172c40 0 63 28 71 40c15 25 16 57 16 84c0 23 0 123 -87 123c-40 0 -63 -28 -71 -40c-15 -25 -16 -57 -16 -84c0 -23 0 -123 87 -123zM123 180c-17 -20 -17 -43 -17 -47c0 -32 21 -63 53 -67c7 -1 50 -1 75 -1c61 0 119 0 172 -28c51 -28 65 -79 65 -114 c0 -78 -104 -129 -222 -129c-122 0 -221 55 -221 127c0 40 32 83 92 100c-31 20 -44 58 -44 89c0 35 18 68 31 83c-25 21 -47 59 -47 103c0 77 69 146 162 146c22 0 64 -3 106 -36c42 41 86 47 106 47c39 0 51 -32 51 -49c0 -23 -19 -30 -29 -30c-16 0 -29 12 -29 29 c0 12 5 23 16 27c-3 1 -8 1 -10 1c-18 0 -54 -5 -90 -39c25 -23 41 -60 41 -97c0 -77 -69 -146 -162 -146c-19 0 -60 3 -99 31zM250 -183c98 0 169 50 169 104c0 86 -112 86 -198 86h-59c-44 -3 -82 -40 -82 -86c0 -53 69 -104 170 -104z" id="677"/><path d="M334 302l-34 -137c-11 -44 -17 -66 -17 -88c0 -34 16 -66 55 -66c32 0 100 24 133 131c2 7 4 11 13 11c3 0 12 0 12 -10c0 -25 -57 -154 -160 -154c-60 0 -96 39 -108 76c-3 -6 -39 -76 -105 -76c-44 0 -94 20 -94 66c0 32 25 58 55 58c15 0 37 -8 37 -35 c0 -28 -22 -49 -47 -54c21 -13 44 -13 50 -13c44 0 79 42 95 104c37 140 54 207 54 238c0 58 -35 67 -54 67c-34 0 -100 -25 -134 -131c-2 -9 -5 -11 -13 -11c-2 0 -12 0 -12 10c0 25 57 154 161 154c29 0 83 -10 108 -76c12 23 47 76 105 76c34 0 93 -14 93 -66 c0 -40 -32 -58 -54 -58c-27 0 -38 19 -38 35c0 24 20 49 48 54c-21 13 -45 13 -50 13c-70 0 -93 -92 -99 -118z" id="7810"/><path d="M160 78l134 537c3 12 4 15 4 19c0 13 -9 14 -27 16c-17 2 -36 2 -38 2c-19 0 -28 0 -28 11c0 20 10 20 29 20h336c120 0 186 -64 186 -138c0 -95 -105 -169 -209 -188c97 -11 155 -69 155 -141c0 -98 -118 -216 -276 -216h-357c-18 0 -27 0 -27 11c0 20 10 20 27 20 c79 0 81 8 91 47zM311 366h146c122 0 208 95 208 183c0 44 -21 103 -109 103h-129c-43 0 -45 -3 -54 -38zM266 31h136c118 0 207 97 207 196c0 43 -19 117 -115 117h-189l-69 -279c-5 -18 -5 -20 -5 -23c0 -8 3 -9 13 -10c6 -1 8 -1 22 -1z" id="4210"/><path d="M175 337v-223c0 -20 0 -21 14 -42c27 -41 65 -61 105 -61c74 0 144 84 144 205c0 113 -61 201 -134 201c-51 0 -100 -29 -129 -80zM175 59v-9v-168c0 -45 11 -45 78 -45v-31c-35 1 -86 3 -113 3c-26 0 -78 -2 -112 -3v31c67 0 78 0 78 45v468c0 44 -7 50 -78 50v31 l144 11v-66c20 22 62 66 140 66c112 0 209 -99 209 -226c0 -129 -104 -227 -223 -227c-76 0 -118 54 -123 70z" id="707"/><path d="M172 377c16 18 59 65 137 65c114 0 212 -99 212 -226c0 -129 -104 -227 -223 -227c-74 0 -116 50 -131 73c-27 -47 -35 -61 -36 -62h-25v596c0 49 -8 56 -78 56v31l144 11v-317zM175 114c0 -18 0 -21 14 -42c24 -37 60 -61 105 -61c54 0 92 33 113 64 c29 45 31 105 31 142c0 41 -3 98 -29 139c-24 38 -60 64 -105 64c-24 0 -79 -8 -118 -64c-11 -16 -11 -17 -11 -36v-206z" id="627"/><path d="M289 250c0 -84 -12 -195 -63 -305c-59 -127 -149 -195 -159 -195c-6 0 -10 4 -10 10c0 3 0 5 13 17c124 126 161 302 161 473c0 209 -57 368 -155 467c-19 18 -19 20 -19 23c0 6 4 10 10 10c10 0 96 -65 156 -188c55 -113 66 -234 66 -312z" id="297"/><path d="M173 400v-278c0 -17 0 -108 67 -108c37 0 67 38 67 112v55h25v-57c0 -64 -28 -135 -99 -135c-36 0 -129 12 -129 135v276h-85v22c98 4 128 111 129 193h25v-184h143v-31h-143z" id="747"/><path d="M471 214c0 -127 -101 -225 -222 -225c-117 0 -221 96 -221 225c0 125 97 234 222 234c121 0 221 -106 221 -234zM250 14c50 0 94 29 116 74c22 44 22 98 22 134c0 38 0 96 -26 139s-69 65 -113 65c-40 0 -87 -21 -114 -67c-24 -44 -24 -98 -24 -137c0 -36 0 -97 25 -141 c27 -46 71 -67 114 -67z" id="6f7"/><path d="M582 258l-28 -258h-521v31h24c77 0 79 11 79 47v527c0 36 -2 47 -79 47h-24v31c35 -3 113 -3 152 -3c41 0 132 0 168 3v-31h-33c-95 0 -95 -14 -95 -48v-533c0 -33 2 -40 49 -40h82c176 0 190 125 201 227h25z" id="4c7"/><path d="M45 -122l112 445c4 17 7 28 7 51c0 38 -14 46 -31 46c-36 0 -56 -48 -73 -119c-6 -22 -7 -23 -17 -23c-2 0 -12 0 -12 10c0 3 13 63 31 97c9 18 28 57 74 57c37 0 80 -21 90 -75c33 39 81 75 131 75c76 0 133 -66 133 -160c0 -147 -125 -293 -241 -293 c-51 0 -79 35 -92 64c-7 -25 -49 -188 -49 -200c0 -9 0 -16 50 -16c14 0 24 0 24 -11c0 -20 -13 -20 -18 -20c-32 0 -66 3 -99 3c-28 0 -57 -3 -84 -3c-8 0 -13 4 -13 12c0 19 11 19 23 19c44 0 46 7 54 41zM221 312l-49 -196c-3 -12 -3 -14 -3 -16c0 -6 13 -89 79 -89 c37 0 85 33 119 103c18 38 51 153 51 212s-24 94 -64 94c-17 0 -46 -7 -81 -38c-18 -15 -45 -43 -52 -70z" id="7010"/><path d="M178 400v-322c0 -36 2 -47 76 -47h21v-31c-40 3 -87 3 -127 3c-28 0 -75 -2 -114 -3v31c67 0 78 0 78 45v324h-79v31h79v115c0 106 85 159 155 159c53 0 90 -33 90 -70c0 -24 -15 -44 -44 -44c-27 0 -43 20 -43 43c0 25 18 38 30 42c-15 7 -30 7 -33 7 c-44 0 -92 -48 -92 -136v-116h117v-31h-114z" id="667"/><path d="M222 186v-125h111c15 0 41 0 41 -31c0 -30 -26 -30 -41 -30h-261c-16 0 -40 0 -40 31c0 30 25 30 40 30h81v309h-81c-16 0 -40 0 -40 31c0 30 25 30 40 30h110c34 0 40 -10 40 -41v-34c55 63 119 81 170 81c83 0 95 -42 95 -62c0 -27 -20 -43 -42 -43 c-25 0 -42 20 -43 44c-121 0 -180 -96 -180 -190z" id="7214"/><path d="M324 625c0 -27 -27 -55 -56 -55c-27 0 -40 21 -40 38c0 29 29 55 56 55c28 0 40 -22 40 -38zM120 117l63 161c25 62 31 77 31 100c0 27 -9 35 -25 35c-37 0 -81 -36 -107 -122c-3 -11 -4 -16 -18 -16c-3 0 -17 0 -17 13c0 17 46 153 145 153c55 0 95 -38 95 -85 c0 -10 -3 -22 -6 -32c-4 -12 -40 -103 -49 -127c-11 -26 -22 -53 -32 -80c-9 -22 -16 -41 -16 -64c0 -22 5 -35 25 -35c39 0 83 41 106 121c4 11 5 17 19 17c3 0 16 0 16 -13c0 -15 -44 -153 -144 -153c-55 0 -95 38 -95 85c0 17 5 29 9 42z" id="699"/><path d="M486 381l-96 -382c-28 -113 -131 -204 -234 -204c-62 0 -106 37 -106 87c0 49 33 65 56 65c10 0 37 -4 37 -35c0 -19 -10 -32 -20 -41c-14 -12 -27 -12 -43 -12c17 -39 62 -42 76 -42c46 0 84 29 110 63c40 53 52 102 65 154c-28 -28 -62 -45 -101 -45 c-59 0 -122 30 -122 119c0 47 18 104 58 210c7 19 17 45 17 70c0 32 -17 32 -25 32c-34 0 -74 -30 -101 -124c-5 -16 -6 -18 -16 -18c-2 0 -12 0 -12 10c0 9 37 154 132 154c50 0 82 -37 82 -82c0 -20 -4 -31 -20 -72c-34 -88 -51 -150 -51 -196c0 -37 11 -81 62 -81 c66 0 109 70 113 85l45 180c6 27 13 54 20 80c4 18 12 49 14 54c9 15 25 21 35 21c15 0 29 -9 29 -27c0 -7 0 -9 -4 -23z" id="7910"/><path d="M208 194c-72 14 -100 20 -132 46c-27 22 -43 50 -43 85c0 56 38 123 160 123c15 0 56 0 94 -28c4 3 14 12 17 16c13 12 15 12 20 12c11 0 11 -7 11 -24v-101c0 -19 0 -24 -13 -24c-2 0 -11 0 -12 9c-2 31 -7 121 -117 121c-86 0 -112 -41 -112 -76c0 -58 67 -71 123 -82 c42 -8 81 -16 114 -48c12 -12 42 -42 42 -95c0 -72 -46 -139 -161 -139c-21 0 -66 1 -110 43c-18 -19 -18 -21 -20 -23c-19 -19 -20 -20 -25 -20c-11 0 -11 7 -11 24v132c0 18 0 25 13 25c10 0 11 -4 14 -17c19 -85 55 -142 139 -142c78 0 113 40 113 91 c0 72 -82 88 -104 92z" id="737"/><path d="M366 32c-47 -31 -109 -38 -146 -38c-102 0 -165 65 -165 134c0 96 123 146 300 149c0 71 -52 102 -128 102c-9 0 -22 0 -36 -1c-20 -2 -21 -3 -21 -11c-1 -37 -29 -46 -44 -46c-24 0 -45 16 -45 46c0 73 102 73 145 73c144 0 198 -84 198 -155v-216c8 -3 18 -8 60 -8 c15 0 40 0 40 -30c0 -31 -22 -31 -50 -31c-38 0 -86 1 -108 32zM355 218c-145 -4 -231 -41 -231 -90c0 -39 41 -73 103 -73c8 0 53 0 89 17c39 18 39 39 39 62v84z" id="6114"/><path d="M206 400l-74 -295c-4 -17 -6 -24 -6 -48c0 -33 10 -46 31 -46c34 0 87 24 130 128c5 11 6 14 15 14c4 0 12 0 12 -10c0 -8 -57 -154 -159 -154c-54 0 -92 38 -92 92c0 18 4 35 76 319h-88c-20 0 -28 0 -28 12c0 19 10 19 30 19h94l39 159c9 35 37 36 40 36 c17 0 29 -10 29 -27c0 -6 -5 -26 -41 -168h88c18 0 28 0 28 -11c0 -20 -10 -20 -30 -20h-94z" id="7410"/><path d="M294 640v-561c0 -37 3 -48 93 -48h32v-31c-35 3 -122 3 -162 3s-127 0 -162 -3v31h32c90 0 93 12 93 48v518c-52 -26 -111 -26 -131 -26v31c32 0 120 0 182 64c23 0 23 -2 23 -26z" id="317"/><path d="M331 -240c0 -7 -4 -10 -10 -10c-10 0 -96 65 -156 188c-55 113 -66 234 -66 312c0 84 12 195 63 305c59 127 149 195 159 195c6 0 10 -3 10 -10c0 -3 0 -5 -13 -17c-123 -125 -161 -299 -161 -473c0 -153 32 -342 157 -468c17 -17 17 -19 17 -22z" id="287"/><path d="M516 319c0 -72 0 -339 -232 -339s-232 267 -232 339s0 345 232 345c80 0 142 -40 173 -86c46 -70 59 -149 59 -259zM284 8c40 0 108 22 128 113c13 63 13 137 13 211c0 87 -1 159 -17 213c-18 58 -70 91 -124 91c-41 0 -105 -21 -126 -100c-15 -55 -15 -131 -15 -204 c0 -74 0 -156 14 -215c20 -82 81 -109 127 -109z" id="306"/><path d="M449 550l-132 -521c-9 -37 -28 -37 -55 -37c-29 0 -45 0 -55 38l-132 520c-36 0 -57 0 -57 31c0 30 26 30 41 30h102c15 0 41 0 41 -30c0 -31 -21 -31 -56 -31l97 -389c9 -37 13 -54 18 -89h1c7 43 26 119 39 172l77 306c-35 0 -56 0 -56 31c0 30 26 30 41 30h102 c15 0 41 0 41 -30c0 -31 -21 -31 -57 -31z" id="5614"/><path d="M666 677l19 -225h-25c-14 161 -29 194 -180 194c-19 0 -46 0 -57 -2c-18 -4 -18 -18 -18 -38v-527c0 -34 0 -48 105 -48h40v-31c-41 3 -144 3 -190 3s-148 0 -189 -3v31h40c105 0 105 14 105 48v527c0 23 0 34 -21 38c-10 2 -36 2 -54 2c-151 0 -166 -33 -180 -194h-25 l19 225h611z" id="547"/><path d="M192 250c0 -29 -24 -53 -53 -53s-53 24 -53 53s24 53 53 53s53 -24 53 -53z" id="0113"/><path d="M110 344c0 49 -8 56 -78 56v31l141 11v-105c28 62 75 105 148 105c58 0 91 -20 105 -37c31 -36 31 -67 31 -153v-191c1 -30 26 -30 78 -30v-31c-34 1 -86 3 -112 3c-27 0 -78 -2 -113 -3v31c67 0 78 0 78 45v233c0 57 -11 111 -74 111c-64 0 -135 -56 -135 -160v-184 c0 -45 11 -45 78 -45v-31c-34 1 -86 3 -112 3c-27 0 -78 -2 -113 -3v31c67 0 78 0 78 45v268z" id="6e7"/><path d="M747 226h-602c-13 0 -37 0 -37 24c0 25 23 25 37 25h602c14 0 37 0 37 -25c0 -24 -24 -24 -37 -24z" id="0012"/><path d="M298 255c32 -5 161 -26 161 -130c0 -48 -32 -131 -190 -131c-28 0 -81 2 -130 38c-12 -37 -28 -38 -37 -38c-30 0 -30 25 -30 41v97c0 20 0 41 35 41c26 0 30 -11 35 -29c25 -78 81 -89 128 -89c91 0 128 33 128 70c0 53 -80 66 -129 74c-92 14 -197 31 -197 123 c0 36 23 118 190 118c19 0 63 0 107 -21c2 7 6 21 30 21c30 0 30 -25 30 -41v-69c0 -20 0 -41 -35 -41c-31 0 -33 17 -34 34c-3 26 -17 56 -100 56c-95 0 -127 -31 -127 -57c0 -39 68 -51 97 -55c25 -5 45 -8 68 -12z" id="7314"/><path d="M1266 -1400h-1182c-18 0 -27 0 -27 11c0 1 0 6 10 18l518 607l-529 724c0 11 0 30 1 33c3 6 4 7 27 7h1182l121 -281h-25c-34 81 -102 126 -127 142c-79 50 -166 67 -220 75c-9 2 -100 16 -234 16h-548l466 -637c7 -10 7 -13 7 -15c0 -5 -2 -8 -9 -16l-509 -597h603 c192 0 290 26 311 31c115 30 221 98 260 202h25z" id="580"/><path d="M402 386l211 -319c21 -31 42 -36 94 -36h19v-31c-42 2 -88 3 -130 3c-38 0 -111 0 -146 -3v31c43 1 65 18 65 30c0 3 -3 7 -5 11l-158 239l-142 -210c-7 -11 -10 -15 -10 -24c0 -18 17 -45 63 -46v-31c-36 3 -91 3 -128 3c-33 0 -75 -2 -111 -3v31c101 0 131 46 145 66 l164 242l-184 278c-19 28 -38 35 -93 35h-19v31c37 -2 99 -3 130 -3c38 0 111 0 146 3v-31c-43 -1 -65 -18 -65 -30c0 -4 5 -12 7 -15l129 -193l114 169c7 11 9 13 9 23c0 23 -22 45 -62 46v31c40 -3 88 -3 128 -3c25 0 72 2 111 3v-31c-89 -1 -123 -33 -145 -65z" id="587"/><path d="M529 164h-111v-82c0 -34 0 -46 81 -46h27v-36c-50 2 -114 4 -151 4c-36 0 -100 -2 -150 -4v36h27c81 0 81 12 81 46v82h-294v36l331 460c10 14 14 14 26 14c22 0 22 -7 22 -28v-446h111v-36zM340 566l-264 -366h264v366z" id="346"/><path d="M172 78c0 -36 2 -47 76 -47h21v-31c-40 3 -87 3 -127 3c-28 0 -75 -2 -114 -3v31c67 0 78 0 78 45v268c0 49 -8 56 -78 56v31l139 11v-110c14 43 50 110 123 110c43 0 74 -29 74 -61s-25 -44 -43 -44c-22 0 -43 15 -43 43c0 26 20 38 23 39c-2 1 -4 1 -11 1 c-76 0 -118 -89 -118 -188v-154z" id="727"/><path d="M253 370v-309h101c15 0 41 0 41 -31c0 -30 -26 -30 -41 -30h-271c-15 0 -41 0 -41 31c0 30 26 30 41 30h101v309h-101c-15 0 -40 0 -40 30c0 31 25 31 41 31h100v53c0 87 77 133 157 133c16 0 96 0 96 -60c0 -28 -23 -44 -43 -44c-35 0 -44 39 -44 43 c-30 0 -97 0 -97 -78v-47h122c16 0 40 0 40 -31c0 -30 -25 -30 -40 -30h-122z" id="6614"/><path d="M177 694v-618c0 -45 11 -45 78 -45v-31c-37 1 -86 3 -111 3s-78 -2 -111 -3v31c67 0 78 0 78 45v520c0 49 -8 56 -78 56v31z" id="6c7"/><path d="M390 231h-279c0 -36 0 -102 30 -150c23 -37 63 -67 113 -67c10 0 100 0 135 103c2 8 4 14 13 14c5 0 13 -2 13 -12c0 -19 -45 -130 -167 -130c-115 0 -220 97 -220 231c0 125 92 228 208 228c125 0 179 -97 179 -196c0 -21 -3 -21 -25 -21zM112 252h237 c0 39 -10 174 -113 174c-34 0 -118 -25 -124 -174z" id="657"/><path d="M303 316l-62 -250c-1 -6 -3 -11 -3 -17c0 -18 28 -18 65 -18c19 0 28 0 28 -11c0 -20 -13 -20 -20 -20c-21 0 -43 2 -65 2c-21 0 -43 1 -64 1c-28 0 -99 -3 -127 -3c-3 0 -15 0 -15 12c0 19 11 19 28 19c79 0 81 8 91 47l134 537c3 12 4 15 4 19c0 11 -6 14 -22 16 c-12 1 -30 2 -43 2c-20 0 -29 0 -29 12c0 19 11 19 30 19h324c131 0 197 -74 197 -151c0 -112 -139 -216 -281 -216h-170zM375 614l-68 -272h141c44 0 104 8 154 53c39 36 59 122 59 161c0 69 -53 96 -136 96h-96c-43 0 -45 -3 -54 -38z" id="5010"/><path d="M409 230v-280c0 -14 0 -33 -20 -33s-20 19 -20 33v280h-280c-14 0 -33 0 -33 20s19 20 33 20h280v280c0 14 0 33 20 33s20 -19 20 -33v-280h279c14 0 33 0 33 -20s-19 -20 -33 -20h-279z" id="2b7"/><path d="M335 636v-554c0 -33 0 -46 100 -46h38v-36c-22 1 -148 4 -179 4c-37 0 -160 -3 -178 -4v36h38c100 0 100 13 100 46v510c-55 -28 -121 -28 -145 -28v36c41 0 132 1 196 64c28 0 30 -1 30 -28z" id="316"/><path d="M687 327h-597c-15 0 -34 0 -34 20s19 20 33 20h599c14 0 33 0 33 -20s-19 -20 -34 -20zM688 133h-599c-14 0 -33 0 -33 20s19 20 34 20h597c15 0 34 0 34 -20s-19 -20 -33 -20z" id="3d7"/><path d="M589 193l-33 -193h-465v30c1 7 2 7 12 16l244 207c77 65 135 129 135 213c0 98 -81 156 -178 156c-67 0 -125 -30 -153 -75c31 -3 57 -23 57 -59c0 -41 -32 -59 -59 -59c-14 0 -58 9 -58 61c0 98 99 176 234 176c143 0 264 -71 264 -199c0 -106 -84 -164 -174 -226 c-60 -40 -134 -96 -200 -145h196c15 0 99 0 107 6c16 10 26 72 29 91h42z" id="325"/><path d="M177 442v-367c0 -39 4 -44 70 -44v-31c-34 1 -69 3 -104 3c-24 0 -78 -2 -110 -3v31c67 0 78 0 78 45v269c0 49 -9 55 -74 55v31zM181 616c0 -32 -25 -53 -53 -53c-31 0 -53 26 -53 53c0 26 22 53 53 53c28 0 53 -21 53 -53z" id="697"/></defs>
  <sodipodi:namedview bordercolor="#666666" borderopacity="1.0" height="600px" id="base" inkscape:current-layer="layer1" inkscape:cx="328" inkscape:cy="211" inkscape:document-units="px" inkscape:guide-bbox="true" inkscape:pageopacity="0.0" inkscape:pageshadow="2" inkscape:window-height="592" inkscape:window-width="920" inkscape:window-x="0" inkscape:window-y="-37" inkscape:zoom="1" pagecolor="#ffffff" showguides="true" width="600px"/>
  <metadata id="metadata7">
    <rdf:RDF>
      <cc:Work rdf:about="">
        <dc:format>image/svg+xml</dc:format>
        <dc:type rdf:resource="http://purl.org/dc/dcmitype/StillImage"/>
      </cc:Work>
    </rdf:RDF>
  </metadata>
  <g id="layer1" inkscape:groupmode="layer" inkscape:label="Warstwa 1">
    <rect height="89.899933" id="title" inkscape:label="#rect2160" style="opacity:1;color:#000000;fill:#ececec;fill-opacity:0.50196078;fill-rule:evenodd;stroke:#000000;stroke-width:1;stroke-linecap:butt;stroke-linejoin:miter;marker:none;marker-start:none;marker-mid:none;marker-end:none;stroke-miterlimit:4;stroke-dasharray:none;stroke-dashoffset:0;stroke-opacity:1;visibility:visible;display:inline;overflow:visible" width="537.89996" x="36.050034" y="42.050034"/><g transform="translate(305,87)scale(5.04045)translate(-201.958,-132.77)"><g transform="scale(0.01,-0.01)"><g transform="translate(14927,-13527)"><use xlink:href="#4c7"/></g></g><g transform="scale(0.007,-0.007)"><g transform="translate(21702.856,-19031.432)"><use xlink:href="#416"/></g></g><g transform="scale(0.01,-0.01)"><g transform="translate(15632.287,-13527)"><use xlink:href="#547"/></g><g transform="translate(16187.585,-13742.277)"><use xlink:href="#457"/></g><g transform="translate(16743.142,-13527)"><use xlink:href="#587"/><use x="750" xlink:href="#2f7"/><use x="1250" xlink:href="#547"/></g><g transform="translate(18548.44,-13742.277)"><use xlink:href="#457"/></g><g transform="translate(19103.997,-13527)"><use xlink:href="#587"/><use x="1083.333" xlink:href="#267"/><use x="2193.666" xlink:href="#5314"/><use x="2718.666" xlink:href="#5614"/><use x="3243.666" xlink:href="#4714"/><use x="3768.666" xlink:href="#6614"/><use x="4293.666" xlink:href="#7214"/><use x="4818.666" xlink:href="#6114"/><use x="5343.666" xlink:href="#6714"/><use x="5868.666" xlink:href="#7314"/></g></g></g>
    <text id="text3133" sodipodi:linespacing="100%" style="font-size:18px;font-style:normal;font-variant:normal;font-weight:normal;font-stretch:normal;text-align:start;line-height:100%;writing-mode:lr-tb;text-anchor:start;fill:#b3b3b3;fill-opacity:1;stroke:none;stroke-width:1px;stroke-linecap:butt;stroke-linejoin:miter;stroke-opacity:1;font-family:Arial" x="39" xml:space="preserve" y="33"><tspan id="tspan3135" sodipodi:role="line" x="39" y="33">rectangle id=#title (scale to fit)</tspan></text>
    <g fill="#0000ff" transform="translate(80,194)scale(3)translate(-149.6,-137.32)"><g transform="scale(0.01,-0.01)"><g transform="translate(14927,-13527)"><use xlink:href="#737"/><use x="394" xlink:href="#697"/><use x="671" xlink:href="#6e7"/><use x="1394.443" xlink:href="#7810"/><use x="2187.66" xlink:href="#2b7"/><use x="3186.876" xlink:href="#637"/><use x="3630.876" xlink:href="#6f7"/><use x="4130.876" xlink:href="#737"/><use x="4692.429" xlink:href="#7910"/><use x="5496.078" xlink:href="#3d7"/><use x="6550.849" xlink:href="#317"/></g></g></g><text display="none" id="text3137" sodipodi:linespacing="100%" style="font-size:28px;font-style:normal;font-variant:normal;font-weight:normal;font-stretch:normal;text-align:start;line-height:100%;writing-mode:lr-tb;text-anchor:start;fill:#0000ff;fill-opacity:1;stroke:none;stroke-width:1px;stroke-linecap:butt;stroke-linejoin:miter;stroke-opacity:1;font-family:Arial" x="80" xml:space="preserve" y="194"><tspan id="tspan3139" sodipodi:role="line" x="80" y="194">equation1</tspan></text>
    <g fill="#000000" transform="translate(315,193)scale(4)translate(-149.63,-137.423)"><g transform="scale(0.01,-0.01)"><g transform="translate(14927,-13527)"><use xlink:href="#547"/></g><g transform="translate(15482.298,-13742.277)"><use xlink:href="#457"/></g><g transform="translate(16037.855,-13527)"><use xlink:href="#587"/><use x="1083.333" xlink:href="#267"/><use x="2193.666" xlink:href="#4c7"/></g></g><g transform="scale(0.007,-0.007)"><g transform="translate(26423.6,-19031.432)"><use xlink:href="#416"/></g></g><g transform="scale(0.01,-0.01)"><g transform="translate(18936.808,-13527)"><use xlink:href="#547"/></g><g transform="translate(19492.106,-13742.277)"><use xlink:href="#457"/></g><g transform="translate(20047.663,-13527)"><use xlink:href="#587"/></g></g></g><text display="none" id="text3141" sodipodi:linespacing="100%" style="font-size:28px;font-style:normal;font-variant:normal;font-weight:normal;font-stretch:normal;text-align:start;line-height:100%;writing-mode:lr-tb;text-anchor:start;fill:#000000;fill-opacity:1;stroke:none;stroke-width:1px;stroke-linecap:butt;stroke-linejoin:miter;stroke-opacity:1;font-family:Arial" x="315" xml:space="preserve" y="193"><tspan id="tspan3143" sodipodi:role="line" x="315" y="193">TeX &amp; LaTeX</tspan></text>
    <g fill="#008000" transform="translate(288.514,254.28)scale(3)translate(-149.8,-139.722)"><rect height="0.4" width="18.674" x="183.232" y="132.747"/><rect height="0.4" width="4.535" x="211.52" y="132.747"/><g transform="scale(0.01,-0.01)"><g transform="translate(14927,-13544.732)"><use xlink:href="#6610"/><use x="596.64" xlink:href="#287"/><use x="984.64" xlink:href="#7810"/><use x="1555.64" xlink:href="#297"/><use x="2221.411" xlink:href="#3d7"/></g></g><g transform="scale(0.007,-0.007)"><g transform="translate(26175.974,-18787.144)"><use xlink:href="#789"/></g></g><g transform="scale(0.005,-0.005)"><g transform="translate(37552.164,-25698.443)"><use xlink:href="#335"/></g></g><g transform="scale(0.007,-0.007)"><g transform="translate(27380.521,-18787.144)"><use xlink:href="#0012"/><use x="892" xlink:href="#356"/></g><g transform="translate(26183.911,-19842.245)"><use xlink:href="#789"/></g></g><g transform="scale(0.005,-0.005)"><g transform="translate(37563.275,-27379.146)"><use xlink:href="#325"/></g></g><g transform="scale(0.007,-0.007)"><g transform="translate(27388.458,-19842.245)"><use xlink:href="#2b6"/><use x="876" xlink:href="#346"/></g></g><g transform="scale(0.01,-0.01)"><g transform="translate(20532.769,-13544.732)"><use xlink:href="#0113"/></g></g><g transform="scale(0.007,-0.007)"><g transform="translate(30256.309,-18787.144)"><use xlink:href="#316"/></g><g transform="translate(30217.122,-19842.245)"><use xlink:href="#789"/></g></g></g><text display="none" id="text4114" sodipodi:linespacing="100%" style="font-size:28px;font-style:normal;font-variant:normal;font-weight:normal;font-stretch:normal;text-align:start;line-height:100%;writing-mode:lr-tb;text-anchor:start;fill:#008000;fill-opacity:1;stroke:none;stroke-width:1px;stroke-linecap:butt;stroke-linejoin:miter;stroke-opacity:1;font-family:Arial" x="288.51367" xml:space="preserve" y="254.28027"><tspan id="tspan4116" sodipodi:role="line" x="288.51367" y="254.28027">equation2</tspan></text>
    <g fill="#000000" transform="translate(398.849,309.789)scale(2.7933)translate(-149.6,-135.38)"><g transform="scale(0.01,-0.01)"><g transform="translate(14927,-13527)"><use xlink:href="#6c7"/><use x="277" xlink:href="#657"/><use x="721" xlink:href="#667"/><use x="1026" xlink:href="#747"/></g></g></g><text display="none" id="text4122" sodipodi:linespacing="100%" style="font-size:18px;font-style:normal;font-variant:normal;font-weight:normal;font-stretch:normal;text-align:start;line-height:100%;writing-mode:lr-tb;text-anchor:start;fill:#000000;fill-opacity:1;stroke:none;stroke-width:1px;stroke-linecap:butt;stroke-linejoin:miter;stroke-opacity:1;font-family:Arial" x="398.84863" xml:space="preserve" y="309.78906"><tspan id="tspan4124" sodipodi:role="line" x="398.84863" y="309.78906">left</tspan></text>
    <rect height="62.263824" id="scaletowidth" inkscape:label="#rect4126" style="opacity:1;color:#000000;fill:#ececec;fill-opacity:0.50196078;fill-rule:evenodd;stroke:#000000;stroke-width:0.63611352;stroke-linecap:butt;stroke-linejoin:miter;marker:none;marker-start:none;marker-mid:none;marker-end:none;stroke-miterlimit:4;stroke-dasharray:none;stroke-dashoffset:0;stroke-opacity:1;visibility:visible;display:inline;overflow:visible" width="314.26385" x="19.868074" y="291.8681"/><g transform="translate(19.868,354.132)scale(3.90488)translate(-266.209,-174.723)"><g transform="scale(0.01,-0.01)"><g transform="translate(26580.908,-16278.393)"><use xlink:href="#5010"/><use x="780.89" xlink:href="#287"/><use x="1168.89" xlink:href="#7410"/><use x="1529.89" xlink:href="#297"/><use x="2195.661" xlink:href="#3d7"/></g></g><g transform="scale(0.007,-0.007)"><g transform="translate(43294.854,-21469.126)"><use xlink:href="#6e9"/></g></g><g transform="scale(0.01,-0.01)"><g transform="translate(29831.34,-15328.387)"><use xlink:href="#580"/></g></g><g transform="scale(0.007,-0.007)"><g transform="translate(42722.639,-24940.368)"><use xlink:href="#699"/><use x="404" xlink:href="#3d6"/><use x="1280" xlink:href="#306"/></g></g><g transform="scale(0.01,-0.01)"><g transform="translate(31442.45,-16278.393)"><use xlink:href="#7010"/></g></g><g transform="scale(0.007,-0.007)"><g transform="translate(45636.357,-23469.131)"><use xlink:href="#699"/></g></g><g transform="scale(0.01,-0.01)"><g transform="translate(32278.378,-16278.393)"><use xlink:href="#4210"/></g></g><g transform="scale(0.007,-0.007)"><g transform="translate(47266.501,-22665.001)"><use xlink:href="#6e9"/></g><g transform="translate(47194.826,-23608.014)"><use xlink:href="#699"/></g></g><g transform="scale(0.01,-0.01)"><g transform="translate(33630.884,-16278.393)"><use xlink:href="#287"/><use x="388" xlink:href="#7410"/><use x="749" xlink:href="#297"/></g></g></g>
    <text id="text4128" sodipodi:linespacing="100%" style="font-size:18px;font-style:normal;font-variant:normal;font-weight:normal;font-stretch:normal;text-align:start;line-height:100%;writing-mode:lr-tb;text-anchor:start;fill:#b3b3b3;fill-opacity:1;stroke:none;stroke-width:1px;stroke-linecap:butt;stroke-linejoin:miter;stroke-opacity:1;font-family:Arial" x="23.953613" xml:space="preserve" y="280.6582"><tspan id="tspan4130" sodipodi:role="line" x="23.953613" y="280.6582">rectangle id=#scaletowidth</tspan></text>
    <rect height="192.08769" id="scaletoheight" inkscape:label="#rect4132" style="opacity:1;color:#000000;fill:#ececec;fill-opacity:0.50196078;fill-rule:evenodd;stroke:#000000;stroke-width:0.81224686;stroke-linecap:butt;stroke-linejoin:miter;marker:none;marker-start:none;marker-mid:none;marker-end:none;stroke-miterlimit:4;stroke-dasharray:none;stroke-dashoffset:0;stroke-opacity:1;visibility:visible;display:inline;overflow:visible" width="166.08772" x="21.956139" y="372.95618"/><g transform="translate(138.218,565.044)scale(7.04976)translate(-308.522,-173.302)"><rect height="0.4" width="8.758" x="302.391" y="156.78"/><rect height="0.4" width="6.358" x="303.591" y="164.128"/><rect height="0.4" width="3.958" x="304.791" y="168.887"/><g transform="scale(0.01,-0.01)"><g transform="translate(30427,-15271.444)"><use xlink:href="#317"/></g></g><g transform="scale(0.007,-0.007)"><g transform="translate(43539.563,-23270.078)"><use xlink:href="#316"/></g></g><g transform="scale(0.005,-0.005)"><g transform="translate(61013.72,-33630.007)"><use xlink:href="#315"/></g><g transform="translate(60958.166,-34649.367)"><use xlink:href="#788"/></g></g></g>
    <text id="text4134" sodipodi:linespacing="100%" style="font-size:18px;font-style:normal;font-variant:normal;font-weight:normal;font-stretch:normal;text-align:start;line-height:100%;writing-mode:lr-tb;text-anchor:start;fill:#b3b3b3;fill-opacity:1;stroke:none;stroke-width:1px;stroke-linecap:butt;stroke-linejoin:miter;stroke-opacity:1;font-family:Arial" x="20.630371" xml:space="preserve" y="584.6582"><tspan id="tspan4136" sodipodi:role="line" x="20.630371" y="584.6582">rectangle id=#scaletoheight</tspan></text>
    <rect height="93.431793" id="nonuniform" inkscape:label="#rect4140" style="opacity:1;color:#000000;fill:#ececec;fill-opacity:0.50196078;fill-rule:evenodd;stroke:#000000;stroke-width:0.46814921;stroke-linecap:butt;stroke-linejoin:miter;marker:none;marker-start:none;marker-mid:none;marker-end:none;stroke-miterlimit:4;stroke-dasharray:none;stroke-dashoffset:0;stroke-opacity:1;visibility:visible;display:inline;overflow:visible" width="113.43182" x="220.78409" y="375.78412"/><g transform="translate(220.784,469.216)scale(1.69751,4.10527)translate(-273.355,-169.018)"><rect height="0.4" width="27.424" x="273.355" y="157.014"/><rect height="0.4" width="24.785" x="315.393" y="157.014"/><g transform="scale(0.01,-0.01)"><g transform="translate(28456.659,-15294.859)"><use xlink:href="#317"/></g><g transform="translate(27335.481,-16657.316)"><use xlink:href="#7810"/></g></g><g transform="scale(0.007,-0.007)"><g transform="translate(39866.401,-23383.468)"><use xlink:href="#326"/></g></g><g transform="scale(0.01,-0.01)"><g transform="translate(28577.311,-16657.316)"><use xlink:href="#2b7"/><use x="999.217" xlink:href="#317"/></g><g transform="translate(30420.053,-15971.366)"><use xlink:href="#2b7"/></g><g transform="translate(31795.521,-15294.859)"><use xlink:href="#737"/><use x="394" xlink:href="#697"/><use x="671" xlink:href="#6e7"/><use x="1394.443" xlink:href="#7810"/></g><g transform="translate(31539.269,-16657.316)"><use xlink:href="#6c7"/><use x="277" xlink:href="#6f7"/><use x="777" xlink:href="#677"/></g></g><g transform="scale(0.007,-0.007)"><g transform="translate(46901.34,-24145.37)"><use xlink:href="#326"/></g></g><g transform="scale(0.01,-0.01)"><g transform="translate(33446.213,-16657.316)"><use xlink:href="#7810"/></g></g></g>
    <rect height="62.511845" id="settowidth" inkscape:label="#rect4142" style="opacity:1;color:#000000;fill:#ececec;fill-opacity:0.50196078;fill-rule:evenodd;stroke:#000000;stroke-width:0.38809296;stroke-linecap:butt;stroke-linejoin:miter;marker:none;marker-start:none;marker-mid:none;marker-end:none;stroke-miterlimit:4;stroke-dasharray:none;stroke-dashoffset:0;stroke-opacity:1;visibility:visible;display:inline;overflow:visible" width="116.51188" x="254.74406" y="513.74408"/><g transform="translate(254.744,576.256)scale(16.64143,13.73997)translate(-149.6,-135.38)"><g transform="scale(0.01,-0.01)"><g transform="translate(14927,-13527)"><use xlink:href="#737"/><use x="394" xlink:href="#697"/><use x="671" xlink:href="#6e7"/><use x="1394.443" xlink:href="#7810"/></g></g></g>
    <text id="text4144" sodipodi:linespacing="100%" style="font-size:18px;font-style:normal;font-variant:normal;font-weight:normal;font-stretch:normal;text-align:start;line-height:100%;writing-mode:lr-tb;text-anchor:start;fill:#b3b3b3;fill-opacity:1;stroke:none;stroke-width:1px;stroke-linecap:butt;stroke-linejoin:miter;stroke-opacity:1;font-family:Arial" x="340.57861" xml:space="preserve" y="464.6582"><tspan id="tspan4146" sodipodi:role="line" x="340.57861" y="464.6582">rectangle id=#nonuniform</tspan></text>
    <text id="text4166" sodipodi:linespacing="100%" style="font-size:18px;font-style:normal;font-variant:normal;font-weight:normal;font-stretch:normal;text-align:start;line-height:100%;writing-mode:lr-tb;text-anchor:start;fill:#b3b3b3;fill-opacity:1;stroke:none;stroke-width:1px;stroke-linecap:butt;stroke-linejoin:miter;stroke-opacity:1;font-family:Arial" x="377.65088" xml:space="preserve" y="504.6582"><tspan id="tspan4168" sodipodi:role="line" x="377.65088" y="504.6582">rectangle id=#settowidth</tspan></text>
    <use fill="#000000" transform="translate(398.849,339.789)scale(3.19489)translate(-162.496,-135.38)" xlink:href="#svgfrags-0"/><text display="none" id="text4170" sodipodi:linespacing="100%" style="font-size:18px;font-style:normal;font-variant:normal;font-weight:normal;font-stretch:normal;text-align:start;line-height:100%;writing-mode:lr-tb;text-anchor:start;fill:#000000;fill-opacity:1;stroke:none;stroke-width:1px;stroke-linecap:butt;stroke-linejoin:miter;stroke-opacity:1;font-family:Arial" x="398.84863" xml:space="preserve" y="339.78906"><tspan id="tspan4172" sodipodi:role="line" x="398.84863" y="339.78906">center</tspan></text>
    <g fill="#000000" transform="translate(398.849,366.212)scale(2.22222)translate(-169.542,-137.33)"><g transform="scale(0.01,-0.01)"><g transform="translate(14927,-13527)"><use xlink:href="#727"/><use x="391" xlink:href="#697"/><use x="668" xlink:href="#677"/><use x="1168" xlink:href="#687"/><use x="1695.221" xlink:href="#747"/></g></g></g><text display="none" id="text4174" sodipodi:linespacing="100%" style="font-size:18px;font-style:normal;font-variant:normal;font-weight:normal;font-stretch:normal;text-align:start;line-height:100%;writing-mode:lr-tb;text-anchor:start;fill:#000000;fill-opacity:1;stroke:none;stroke-width:1px;stroke-linecap:butt;stroke-linejoin:miter;stroke-opacity:1;font-family:Arial" x="398.84863" xml:space="preserve" y="366.21191"><tspan id="tspan4176" sodipodi:role="line" x="398.84863" y="366.21191">right</tspan></text>
    <g fill="#000000" transform="translate(513.503,286.423)scale(2.47219)translate(-149.46,-129.12)"><g transform="scale(0.01,-0.01)"><g transform="translate(14927,-13527)"><use xlink:href="#747"/><use x="388" xlink:href="#6f7"/><use x="888" xlink:href="#707"/></g></g></g><text display="none" id="text4178" sodipodi:linespacing="100%" style="font-size:18px;font-style:normal;font-variant:normal;font-weight:normal;font-stretch:normal;text-align:start;line-height:100%;writing-mode:lr-tb;text-anchor:start;fill:#000000;fill-opacity:1;stroke:none;stroke-width:1px;stroke-linecap:butt;stroke-linejoin:miter;stroke-opacity:1;font-family:Arial" x="513.50293" xml:space="preserve" y="286.42285"><tspan id="tspan4180" sodipodi:role="line" x="513.50293" y="286.42285">top</tspan></text>
    <use fill="#000000" transform="translate(513.503,339.789)scale(3.19489)translate(-149.61,-132.25)" xlink:href="#svgfrags-0"/><text display="none" id="text4182" sodipodi:linespacing="100%" style="font-size:18px;font-style:normal;font-variant:normal;font-weight:normal;font-stretch:normal;text-align:start;line-height:100%;writing-mode:lr-tb;text-anchor:start;fill:#000000;fill-opacity:1;stroke:none;stroke-width:1px;stroke-linecap:butt;stroke-linejoin:miter;stroke-opacity:1;font-family:Arial" x="513.50293" xml:space="preserve" y="339.78906"><tspan id="tspan4184" sodipodi:role="line" x="513.50293" y="339.78906">center2</tspan></text>
    <g fill="#000000" transform="translate(513.503,389.789)scale(2.83688)translate(-149.55,-135.38)"><g transform="scale(0.01,-0.01)"><g transform="translate(14927,-13527)"><use xlink:href="#627"/><use x="582.779" xlink:href="#6f7"/><use x="1082.779" xlink:href="#747"/><use x="1470.779" xlink:href="#747"/><use x="1858.779" xlink:href="#6f7"/><use x="2358.779" xlink:href="#6d7"/></g></g></g><text display="none" id="text4186" sodipodi:linespacing="100%" style="font-size:18px;font-style:normal;font-variant:normal;font-weight:normal;font-stretch:normal;text-align:start;line-height:100%;writing-mode:lr-tb;text-anchor:start;fill:#000000;fill-opacity:1;stroke:none;stroke-width:1px;stroke-linecap:butt;stroke-linejoin:miter;stroke-opacity:1;font-family:Arial" x="513.50293" xml:space="preserve" y="389.78906"><tspan id="tspan4188" sodipodi:role="line" x="513.50293" y="389.78906">bottom</tspan></text>
  </g>
</svg>